<?xml version="1.0" standalone="no"?>
<!DOCTYPE svg PUBLIC "-//W3C//DTD SVG 1.1//EN" "http://www.w3.org/Graphics/SVG/1.1/DTD/svg11.dtd" >
<svg>
<metadata>
Created by FontForge 20090914 at Wed Jul  6 22:05:05 2022
 By www-data
Copyright &#194;&#169; 2018 by Rene Bieder. All rights reserved.
</metadata>
<defs>
<font id="Faktum-SemiBold" horiz-adv-x="600" >
  <font-face 
    font-family="Faktum SemiBold"
    font-weight="600"
    font-stretch="normal"
    units-per-em="1000"
    panose-1="2 11 0 3 3 2 2 6 2 3"
    ascent="800"
    descent="-200"
    x-height="490"
    cap-height="700"
    bbox="-660 -240.002 2109 963"
    underline-thickness="83"
    underline-position="-225"
    unicode-range="U+0020-U+FB02"
  />
<missing-glyph 
d="M80 700h440v-700h-440v700zM459 660h-317l159 -273zM279 350l-162 279v-558zM484 629l-162 -279l162 -279v558zM142 40h317l-158 273z" />
    <glyph glyph-name=".notdef" 
d="M80 700h440v-700h-440v700zM459 660h-317l159 -273zM279 350l-162 279v-558zM484 629l-162 -279l162 -279v558zM142 40h317l-158 273z" />
    <glyph glyph-name="space" unicode=" " horiz-adv-x="240" 
 />
    <glyph glyph-name="exclam" unicode="!" horiz-adv-x="304" 
d="M77 700h151l-12 -253l-30 -217h-68l-30 217zM153 -5c-54.667 0 -82.668 27.333 -84.001 82c0 26 7.33301 46 22 60s35.334 21 62.001 21c27.333 0 48.333 -7 63 -21s22 -34 22 -60c0 -54.667 -28.333 -82 -85 -82z" />
    <glyph glyph-name="quotedbl" unicode="&#x22;" horiz-adv-x="394" 
d="M40 700h136l-30 -305h-76zM218 700h136l-30 -305h-76z" />
    <glyph glyph-name="numbersign" unicode="#" horiz-adv-x="729" 
d="M703 446h-149l-48 -187h168v-76h-188l-47 -183h-79l47 183h-176l-47 -183h-80l47 183h-118v76h137l48 187h-156v77h176l45 177h80l-45 -177h176l46 177h79l-46 -177h130v-77zM427 259l48 187h-177l-48 -187h177z" />
    <glyph glyph-name="dollar" unicode="$" 
d="M572 211c0 -61.333 -20.667 -111.666 -62 -150.999s-97.333 -62 -168 -68l5 -132h-100l4 133c-137.333 15.333 -214.666 88.333 -231.999 219l135 36c4.66699 -44.667 15.167 -77.834 31.5 -99.501s39.5 -35.5 69.5 -41.5l6 187l-48 9c-118 22.667 -177 89.667 -177 201
c0 56 19.5 102.333 58.5 139s90.833 58.334 155.5 65.001l-5 129h102l-5 -130c64.667 -8 116.167 -29.833 154.5 -65.5s60.166 -85.5 65.499 -149.5l-126 -35c-2.66699 44 -12 76.167 -28 96.5s-39 33.166 -69 38.499l-7 -181l57 -11c122 -22.667 183 -85.667 183 -189z
M173 510c0 -26.667 6.5 -45.832 19.5 -57.499s35.5 -20.834 67.5 -27.501l-6 169c-54 -6.66699 -81 -34.667 -81 -84zM339 103.002c33.333 2.66699 57.833 11.332 73.5 25.999s23.5 36 23.5 64c0 28.667 -7.16699 48.334 -21.5 59.001s-41.833 20 -82.5 28z" />
    <glyph glyph-name="percent" unicode="%" horiz-adv-x="965" 
d="M249 332c-56 0 -103.167 17.667 -141.5 53s-57.5 81 -57.5 137c0 54.667 19.333 99.667 58 135s85.667 53 141 53s102 -17.667 140 -53s57 -80.333 57 -135c0 -56 -19 -101.667 -57 -137s-84.667 -53 -140 -53zM684 700h99l-263 -351l-244 -349h-101l271 356zM249 430
c60.667 0 91 30.667 91 92c0 60.667 -30.333 91 -91 91c-61.333 0 -92 -30.333 -92 -91c0 -61.333 30.667 -92 92 -92zM718 -10c-56 0 -103.167 17.667 -141.5 53s-57.5 81 -57.5 137c0 54.667 19.333 99.667 58 135s85.667 53 141 53s102 -17.667 140 -53
s57 -80.333 57 -135c0 -56 -19 -101.667 -57 -137s-84.667 -53 -140 -53zM718 88c60.667 0 91 30.667 91 92c0 60 -30.333 90 -91 90c-61.333 0 -92 -30 -92 -90c0 -61.333 30.667 -92 92 -92z" />
    <glyph glyph-name="ampersand" unicode="&#x26;" horiz-adv-x="718" 
d="M705 0l-157.002 -0.000976562l-98 101c-18.667 -74 -79.334 -111 -182.001 -111c-73.333 0 -128.666 16.667 -165.999 50s-56 80.666 -56 141.999c0 42.667 12.333 78.167 37 106.5s60.334 54.5 107.001 78.5c-30.667 32 -52.167 59.5 -64.5 82.5
s-18.5 48.833 -18.5 77.5c0 54.667 19.333 98.834 58 132.501s88.334 50.5 149.001 50.5c61.333 0 111 -16.167 149 -48.5s57 -74.833 57 -127.5c0 -45.333 -13.667 -82.666 -41 -111.999s-66 -55.333 -116 -78l136 -137l105 114l83 -77l-109 -116zM315.998 613.999
c-62 0 -93 -29 -93 -87c0 -14 3.5 -28 10.5 -42s14.5 -25.5 22.5 -34.5s20 -20.833 36 -35.5c41.333 19.333 71 37.333 89 54s27 37 27 61c0 56 -30.667 84 -92 84zM303.998 98.999c42.667 0 80.667 11.667 114 35l-161 164c-54 -28 -81 -61.667 -81 -101
c0 -32 9.66699 -56.333 29 -73s52.333 -25 99 -25z" />
    <glyph glyph-name="quotesingle" unicode="'" horiz-adv-x="216" 
d="M40 700h136l-30 -305h-76z" />
    <glyph glyph-name="parenleft" unicode="(" horiz-adv-x="372" 
d="M263 -100c-62 55.333 -110.168 120.833 -144.501 196.5s-51.5 155.5 -51.5 239.5s16.833 163.333 50.5 238s81.834 140 144.501 196h103c-56 -58 -99.5 -124.167 -130.5 -198.5s-46.5 -152.833 -46.5 -235.5s15.667 -161.5 47 -236.5s75 -141.5 131 -199.5h-103z" />
    <glyph glyph-name="parenright" unicode=")" horiz-adv-x="372" 
d="M109 -100h-102c56 58 99.667 124.5 131 199.5s47 153.833 47 236.5s-15.5 161.167 -46.5 235.5s-74.5 140.5 -130.5 198.5h102c62.667 -56 111 -121.333 145 -196s51 -154 51 -238s-17.167 -163.833 -51.5 -239.5s-82.833 -141.167 -145.5 -196.5z" />
    <glyph glyph-name="asterisk" unicode="*" horiz-adv-x="404" 
d="M360 606l-125 -46l125 -45l-39 -70l-102 87l23 -131h-79l23 131l-102 -87l-41 70l127 46l-127 45l41 70l102 -87l-23 131h79l-23 -131l102 87z" />
    <glyph glyph-name="plus" unicode="+" 
d="M245 235h-192v108h192v198h111v-198h192v-108h-192v-198h-111v198z" />
    <glyph glyph-name="comma" unicode="," horiz-adv-x="267" 
d="M133 158c27.333 0 48.332 -7 62.999 -21s22 -33.667 22 -59c0 -23.333 -7.33301 -48 -22 -74l-81 -143h-112l125 133c-24 0.666992 -43.167 8.5 -57.5 23.5s-21.5 35.167 -21.5 60.5s7.33301 45 22 59s35.334 21 62.001 21z" />
    <glyph glyph-name="hyphen" unicode="-" horiz-adv-x="449" 
d="M66 342h316v-107h-316v107z" />
    <glyph glyph-name="period" unicode="." horiz-adv-x="267" 
d="M133 -5c-26.667 0 -47.168 7 -61.501 21s-21.5 34.333 -21.5 61c-0.666992 26 6.33301 46 21 60s35.334 21 62.001 21c27.333 0 48.333 -7 63 -21s22 -34 22 -60c0.666992 -26.667 -6.5 -47 -21.5 -61s-36.167 -21 -63.5 -21z" />
    <glyph glyph-name="slash" unicode="/" horiz-adv-x="474" 
d="M-24 -100l209 458l183 412h121l-206 -451l-185 -419h-122z" />
    <glyph glyph-name="zero" unicode="0" horiz-adv-x="652" 
d="M325 710c86 0 155.333 -31.833 208 -95.5s79 -151.834 79 -264.501s-26.333 -200.834 -79 -264.501s-122 -95.5 -208 -95.5s-155 31.833 -207 95.5s-78 151.834 -78 264.501s26 200.834 78 264.501s121 95.5 207 95.5zM325 106c56.667 0 96.167 17.833 118.5 53.5
s33.5 99.167 33.5 190.5s-11.167 154.833 -33.5 190.5s-61.833 53.5 -118.5 53.5s-96 -17.833 -118 -53.5s-33 -99.167 -33 -190.5s11 -154.833 33 -190.5s61.333 -53.5 118 -53.5z" />
    <glyph glyph-name="one" unicode="1" horiz-adv-x="460" 
d="M251 700h124v-700h-131v611l-150 -146l-68 117z" />
    <glyph glyph-name="two" unicode="2" horiz-adv-x="613" 
d="M179 115h385v-115h-509v108l211 155c50 36.667 89.333 72.167 118 106.5s43 71.166 43 110.499c0 75.333 -39.667 113 -119 113c-52 0 -87.333 -16.333 -106 -49s-21.334 -83.667 -8.00098 -153l-142 16c-13.333 94.667 3.83398 168.834 51.501 222.501
s115.5 80.5 203.5 80.5c76.667 0 138.5 -20.333 185.5 -61s70.5 -94 70.5 -160c0 -67.333 -19.167 -124 -57.5 -170s-93.5 -86.333 -165.5 -121z" />
    <glyph glyph-name="three" unicode="3" horiz-adv-x="606" 
d="M405 364c54 -10.667 95.6689 -31.167 125.002 -61.5s44 -67.5 44 -111.5c0 -58 -24 -106 -72 -144s-112.667 -57 -194 -57c-84.667 0 -151.334 20.167 -200.001 60.5s-74.334 95.833 -77.001 166.5l140 16c2 -85.333 49 -128 141 -128c87.333 0 131 34 131 102
c0 66 -50 98 -150 96l-70 -1v113l73 -1c84.667 -2 127 28 127 90c0 60.667 -38.333 91 -115 91c-42 0 -73.167 -10 -93.5 -30s-30.5 -52.667 -30.5 -98l-139 17c0.666992 71.333 24 126.833 70 166.5s109.333 59.5 190 59.5c74.667 0 134.667 -17.5 180 -52.5
s68 -79.5 68 -133.5c0 -40 -12.833 -73.667 -38.5 -101s-62.167 -47 -109.5 -59z" />
    <glyph glyph-name="four" unicode="4" horiz-adv-x="614" 
d="M599 279v-114.999h-88v-164h-131v164h-348v116c44.667 63.333 76.667 127.166 96 191.499s29.333 140.5 30 228.5h153c-6 -150 -69 -295.333 -189 -436l261 14l17 312h111v-311h88z" />
    <glyph glyph-name="five" unicode="5" horiz-adv-x="609" 
d="M366 469c65.333 0 117.997 -20.833 157.997 -62.5s60 -97.5 60 -167.5c0 -75.333 -25.167 -135.666 -75.5 -180.999s-117.166 -68 -200.499 -68c-71.333 0 -132.166 17.167 -182.499 51.5s-80.5 81.833 -90.5 142.5l133 41c9.33301 -78.667 57 -118 143 -118
c92.667 0 139 43.667 139 131c0 42.667 -10.167 74.167 -30.5 94.5s-52.166 30.5 -95.499 30.5c-32 0 -60 -7.83301 -84 -23.5s-42 -36.834 -54 -63.501l-121 24l31 400h452v-115h-168l-169 16l-19 -241c14 35.333 37 62.333 69 81s67 28 105 28z" />
    <glyph glyph-name="six" unicode="6" horiz-adv-x="604" 
d="M362 474c61.333 0 113.333 -21.833 156 -65.5s64 -99.834 64 -168.501c0 -74.667 -25.667 -135 -77 -181s-116.333 -69 -195 -69c-78 0 -142.167 23.167 -192.5 69.5s-75.5 106.833 -75.5 181.5c0 62.667 17.667 127.334 53 194.001s102 155 200 265h194l-80 -71
l-75.5 -67.5c-16.333 -15 -38 -37.333 -65 -67s-54.833 -63.167 -83.5 -100.5c52.667 53.333 111.667 80 177 80zM311 107c46.667 0 81.334 10.668 104.001 32.001s34 54.333 34 99c0 46 -11.333 79.833 -34 101.5s-57.667 32.5 -105 32.5
c-46.667 0 -81.167 -10.833 -103.5 -32.5s-33.5 -55.167 -33.5 -100.5c0 -44.667 11.167 -77.834 33.5 -99.501s57.166 -32.5 104.499 -32.5z" />
    <glyph glyph-name="seven" unicode="7" horiz-adv-x="507" 
d="M18 700h484.001v-112c-80 -110.667 -138.333 -208.167 -175 -292.5s-56.334 -182.833 -59.001 -295.5h-168c28 218.667 131.667 413.667 311 585h-393v115z" />
    <glyph glyph-name="eight" unicode="8" horiz-adv-x="630" 
d="M416 365c50.667 -9.33301 92.5 -28.5 125.5 -57.5s49.5 -68.167 49.5 -117.5c0 -62 -25.167 -110.833 -75.5 -146.5s-116.833 -53.5 -199.5 -53.5c-84 0 -151.167 18 -201.5 54s-75.5 85.333 -75.5 148c0 48.667 16.167 87.167 48.5 115.5s74.833 47.5 127.5 57.5
c-101.333 20 -152 71.333 -152 154c0 59.333 23 106 69 140s107 51 183 51c76.667 0 138 -17 184 -51s69 -80.333 69 -139c0 -40 -13 -73.167 -39 -99.5s-63.667 -44.833 -113 -55.5zM316 604c-82.667 0 -124 -31.333 -124 -94c0 -64 41 -96 123 -96c83.333 0 125 32 125 96
c0 62.667 -41.333 94 -124 94zM315 99c92 0 138 34.667 138 104c0 71.333 -46 107 -138 107c-48 0 -83.333 -8.5 -106 -25.5s-34 -43.833 -34 -80.5c0 -70 46.667 -105 140 -105z" />
    <glyph glyph-name="nine" unicode="9" horiz-adv-x="604" 
d="M294 710c78 0 142.167 -23.167 192.5 -69.5s75.5 -106.833 75.5 -181.5c0 -62.667 -17.667 -127.334 -53 -194.001s-102 -155 -200 -265h-194l80 71l75.5 67.5c16.333 15 38 37.333 65 67s54.833 63.167 83.5 100.5c-52.667 -53.333 -111.667 -80 -177 -80
c-61.333 0 -113.333 21.833 -156 65.5s-64 99.834 -64 168.501c0 74.667 25.667 135 77 181s116.333 69 195 69zM294 328c46.667 0 81.167 10.832 103.5 32.499s33.5 55.167 33.5 100.5c0 44.667 -11.167 77.834 -33.5 99.501s-57.166 32.5 -104.499 32.5
c-46.667 0 -81.334 -10.667 -104.001 -32s-34 -54.333 -34 -99c0 -46 11.333 -79.833 34 -101.5s57.667 -32.5 105 -32.5z" />
    <glyph glyph-name="colon" unicode=":" horiz-adv-x="267" 
d="M133 500c27.333 0 48.501 -7.16699 63.501 -21.5s22.167 -34.833 21.5 -61.5c0 -26 -7.33301 -46 -22 -60s-35.667 -21 -63 -21c-26.667 0 -47.334 7 -62.001 21s-21.667 34 -21 60c0 26.667 7.16699 47.167 21.5 61.5s34.833 21.5 61.5 21.5zM133.001 -5
c-26.667 0 -47.168 7 -61.501 21s-21.5 34.333 -21.5 61c-0.666992 26 6.33301 46 21 60s35.334 21 62.001 21c27.333 0 48.333 -7 63 -21s22 -34 22 -60c0.666992 -26.667 -6.5 -47 -21.5 -61s-36.167 -21 -63.5 -21z" />
    <glyph glyph-name="semicolon" unicode=";" horiz-adv-x="267" 
d="M133 500c27.333 0 48.501 -7.16699 63.501 -21.5s22.167 -34.833 21.5 -61.5c0 -26 -7.33301 -46 -22 -60s-35.667 -21 -63 -21c-26.667 0 -47.334 7 -62.001 21s-21.667 34 -21 60c0 26.667 7.16699 47.167 21.5 61.5s34.833 21.5 61.5 21.5zM133.001 158
c27.333 0 48.332 -7 62.999 -21s22 -33.667 22 -59c0 -23.333 -7.33301 -48 -22 -74l-81 -143h-112l125 133c-24 0.666992 -43.167 8.5 -57.5 23.5s-21.5 35.167 -21.5 60.5s7.33301 45 22 59s35.334 21 62.001 21z" />
    <glyph glyph-name="less" unicode="&#x3c;" 
d="M487 414l-211 -84l-121 -36l118 -33l214 -84v-127l-414 192v106l414 192v-126z" />
    <glyph glyph-name="equal" unicode="=" 
d="M59 341v101h483v-101h-483zM59 142v101h483v-101h-483z" />
    <glyph glyph-name="greater" unicode="&#x3e;" 
d="M113 540l414 -192v-106l-414 -192v127l214 84l118 33l-121 36l-211 84v126z" />
    <glyph glyph-name="question" unicode="?" horiz-adv-x="513" 
d="M25 506c6.66699 67.333 31.667 118.165 75 152.498s95.333 51.5 156 51.5c66 0 120.5 -19 163.5 -57s64.5 -87.333 64.5 -148c0 -55.333 -17.667 -99.166 -53 -131.499s-80.333 -55.166 -135 -68.499v-76h-114v30c0 24.667 6 45.834 18 63.501s26.333 32 43 43l50.5 32
c17 10.333 31.5 23.5 43.5 39.5s18 35 18 57c0 32.667 -8 56.667 -24 72s-42 23 -78 23c-34 0 -59.667 -9.33301 -77 -28s-25 -50.334 -23 -95.001zM239 -5.00098c-54.667 0 -82.668 27.333 -84.001 82c0 26 7.33301 46 22 60s35.334 21 62.001 21
c27.333 0 48.333 -7 63 -21s22 -34 22 -60c0 -54.667 -28.333 -82 -85 -82z" />
    <glyph glyph-name="at" unicode="@" horiz-adv-x="906" 
d="M542 475l98.999 -0.000976562v-242c0 -50 17.333 -75 52 -75c30 0 54.167 15.333 72.5 46s27.5 68.334 27.5 113.001c0 100.667 -26.5 181 -79.5 241s-134.833 90 -245.5 90c-116 0 -203.333 -33 -262 -99s-88 -154.333 -88 -265c0 -108.667 29.333 -195 88 -259
s148.334 -96 269.001 -96c66 0 117.667 8 155 24s81.333 45 132 87l36 -58c-104 -78 -211 -117 -321 -117c-126.667 0 -230.667 39.5 -312 118.5s-122 179.167 -122 300.5c0 122 40.333 223.5 121 304.5s181.667 121.5 303 121.5c112.667 0 206.667 -37 282 -111
s113 -167.333 113 -280c0 -68.667 -16.333 -124 -49 -166s-77.667 -63 -135 -63c-34.667 0 -62.167 8.5 -82.5 25.5s-33.5 44.833 -39.5 83.5c-7.33301 -35.333 -24 -62.5 -50 -81.5s-56 -28.5 -90 -28.5c-52 0 -93.667 18.167 -125 54.5s-47 84.5 -47 144.5
c0 58 15.833 104.833 47.5 140.5s73.5 53.5 125.5 53.5c28 0 53.833 -7.33301 77.5 -22s39.5 -36.667 47.5 -66v81zM447.999 179.999c65.333 0 98 35.334 98 106.001c0 37.333 -8 64.666 -24 81.999s-41 26 -75 26c-66.667 0 -100 -35.333 -100 -106
c0 -72 33.667 -108 101 -108z" />
    <glyph glyph-name="A" unicode="A" horiz-adv-x="723" 
d="M570 0l-60 167h-297l-60 -167h-141l258 700h185l256 -700h-141zM255 284h213l-67 186l-39 123l-41 -123z" />
    <glyph glyph-name="B" unicode="B" horiz-adv-x="669" 
d="M456 358c62 -8.66699 106.666 -27.5 133.999 -56.5s41 -63.833 41 -104.5c0 -60.667 -19.5 -108.667 -58.5 -144s-90.833 -53 -155.5 -53h-332v700h305c66.667 0 119.334 -16 158.001 -48s58 -75 58 -129c0 -86.667 -50 -141.667 -150 -165zM214.999 584v-176h161
c61.333 0 92 31.333 92 94c0 54.667 -31 82 -93 82h-160zM389.999 116c68.667 0 103 32.333 103 97c0 57.333 -37 86 -111 86h-167v-183h175z" />
    <glyph glyph-name="C" unicode="C" horiz-adv-x="781" 
d="M402 110c64 0 113 15.167 147 45.5s56.333 79.833 67 148.5l132 -28c-16 -90.667 -55.167 -161 -117.5 -211s-138.5 -75 -228.5 -75c-102 0 -187.833 33.833 -257.5 101.5s-104.5 153.834 -104.5 258.501c0 105.333 34.833 191.666 104.5 258.999s155.5 101 257.5 101
c90 0 166.167 -25 228.5 -75s101.5 -120.333 117.5 -211l-132 -28c-10.667 68.667 -33 118.167 -67 148.5s-83 45.5 -147 45.5c-150 0 -225 -79.667 -225 -239c0 -160.667 75 -241 225 -241z" />
    <glyph glyph-name="D" unicode="D" horiz-adv-x="765" 
d="M85 0v700h268c114.667 0 205.334 -31.833 272.001 -95.5s100 -148.5 100 -254.5s-33.333 -190.833 -100 -254.5s-157.334 -95.5 -272.001 -95.5h-268zM217 120h134c86.667 0 147.834 17.333 183.501 52s53.5 94 53.5 178s-17.833 143.333 -53.5 178
s-96.834 52 -183.501 52h-134v-460z" />
    <glyph glyph-name="E" unicode="E" horiz-adv-x="597" 
d="M535 579h-319v-150h301v-117h-301v-191h319v-121h-450v700h450v-121z" />
    <glyph glyph-name="F" unicode="F" horiz-adv-x="558" 
d="M526 578h-309v-163h293v-121h-293v-294h-132v700h441v-122z" />
    <glyph glyph-name="G" unicode="G" horiz-adv-x="807" 
d="M416 372l328 0.000976562v-372h-115v152c-34.667 -108 -116 -162 -244 -162c-96 0 -177.5 34 -244.5 102s-100.5 154.333 -100.5 259c0 105.333 35.167 191.5 105.5 258.5s159.833 100.5 268.5 100.5c80 0 149.5 -20.5 208.5 -61.5s96.833 -97.833 113.5 -170.5l-121 -53
c-14.667 57.333 -38.834 99.166 -72.501 125.499s-77.5 39.5 -131.5 39.5c-76.667 0 -135 -20.333 -175 -61s-60 -100 -60 -178c0 -164.667 79.333 -247 238 -247c56 0 102.333 13.667 139 41s58.334 66 65.001 116h-202v111z" />
    <glyph glyph-name="H" unicode="H" horiz-adv-x="757" 
d="M540 700h132v-700h-132v301h-323v-301h-132v700h132v-278h323v278z" />
    <glyph glyph-name="I" unicode="I" horiz-adv-x="305" 
d="M85 0v700h135v-700h-135z" />
    <glyph glyph-name="J" unicode="J" horiz-adv-x="621" 
d="M177 266c-2.66699 -57.333 5.00391 -97.667 23.0039 -121s48.667 -35 92 -35c44 0 74.833 9.5 92.5 28.5s26.5 55.167 26.5 108.5v453h132v-445c0 -86.667 -23.167 -152.5 -69.5 -197.5s-106.833 -67.5 -181.5 -67.5c-34.667 0 -65.334 3.66699 -92.001 11
s-51.834 20.166 -75.501 38.499s-42.334 44.833 -56.001 79.5s-21.834 77.334 -24.501 128.001z" />
    <glyph glyph-name="K" unicode="K" horiz-adv-x="692" 
d="M518 0l-170 328l-130 -149v-179h-133v700h133v-395l87 150l193 245h177l-235 -268l242 -432h-164z" />
    <glyph glyph-name="L" unicode="L" horiz-adv-x="541" 
d="M218 120h305v-120h-438v700h133v-580z" />
    <glyph glyph-name="M" unicode="M" horiz-adv-x="984" 
d="M671 700h228v-700h-130v614l-33 -142l-162 -472h-164l-162 472l-33 139v-611h-130v700h228l133 -413l46 -168l46 168z" />
    <glyph glyph-name="N" unicode="N" horiz-adv-x="797" 
d="M580 700h132v-700h-178l-267 452l-50 101v-553h-132v700h183l257 -437l55 -108v545z" />
    <glyph glyph-name="O" unicode="O" horiz-adv-x="801" 
d="M400 710c101.333 0 186.835 -33.667 256.502 -101s104.5 -153.666 104.5 -258.999c0 -104.667 -34.833 -190.834 -104.5 -258.501s-155.167 -101.5 -256.5 -101.5c-100.667 0 -185.834 33.833 -255.501 101.5s-104.5 153.834 -104.5 258.501
c0 105.333 34.667 191.666 104 258.999s154.666 101 255.999 101zM400.002 110c149.333 0 224 80.333 224 241c0 159.333 -74.667 239 -224 239c-148.667 0 -223 -79.667 -223 -239c0 -160.667 74.333 -241 223 -241z" />
    <glyph glyph-name="P" unicode="P" horiz-adv-x="620" 
d="M352 700c82 0 143.833 -18.833 185.5 -56.5s62.5 -88.5 62.5 -152.5c0 -65.333 -20.833 -117.5 -62.5 -156.5s-103.5 -58.5 -185.5 -58.5h-136v-276h-131v700h267zM361 391c38 0 65.167 7.50098 81.5 22.501s24.5 39.833 24.5 74.5c0 33.333 -8.33301 57.666 -25 72.999
s-43.667 23 -81 23h-145v-193h145z" />
    <glyph glyph-name="Q" unicode="Q" horiz-adv-x="803" 
d="M426 0l301.001 -54.999l33 -12l-47 -115l-450 197c-66.667 30 -120.5 74 -161.5 132s-61.5 125.667 -61.5 203c0 105.333 35 191.666 105 258.999s156.333 101 259 101c101.333 0 186.166 -33.5 254.499 -100.5s102.5 -153.5 102.5 -259.5
c0 -94 -31.667 -175.167 -95 -243.5s-143.333 -103.833 -240 -106.5zM177.001 351.001c0 -160.667 75.667 -241 227 -241c146.667 0 220 80.333 220 241c0 159.333 -73.333 239 -220 239c-151.333 0 -227 -79.667 -227 -239z" />
    <glyph glyph-name="R" unicode="R" horiz-adv-x="659" 
d="M471 0l-131 283.999h-124v-284h-131v700h288c74 0 132.667 -19 176 -57s65 -88.333 65 -151c0 -52.667 -15.167 -96.667 -45.5 -132s-72.5 -58.666 -126.5 -69.999l59 -66l126 -224h-156zM216 583.999v-187.999h154c40 0 68.5 7.16699 85.5 21.5s25.5 38.833 25.5 73.5
c0 33.333 -8.5 57.166 -25.5 71.499s-45.5 21.5 -85.5 21.5h-154z" />
    <glyph glyph-name="S" unicode="S" horiz-adv-x="623" 
d="M322 -10c-80.667 0 -146.169 18.165 -196.502 54.498s-80.5 92.166 -90.5 167.499l135 36c5.33301 -56 20.333 -94.333 45 -115s61.334 -31 110.001 -31c44.667 0 77 7.33301 97 22s30 37.667 30 69c0 28.667 -7.16699 48.334 -21.5 59.001s-41.833 20 -82.5 28l-119 23
c-118 22.667 -177 89.667 -177 201c0 62 23.333 111.833 70 149.5s108 56.5 184 56.5c79.333 0 142.833 -18.333 190.5 -55s74.834 -91 81.501 -163l-126 -35c-2.66699 54.667 -16.167 91.5 -40.5 110.5s-59.833 28.5 -106.5 28.5c-77.333 0 -116 -28.667 -116 -86
c0 -29.333 7.83301 -49.666 23.5 -60.999s43.167 -20.666 82.5 -27.999l110 -21c122 -22.667 183 -85.667 183 -189c0 -66.667 -24 -120.167 -72 -160.5s-112.667 -60.5 -194 -60.5z" />
    <glyph glyph-name="T" unicode="T" horiz-adv-x="587" 
d="M568 700v-118h-209v-582h-131v582h-210v118h550z" />
    <glyph glyph-name="U" unicode="U" horiz-adv-x="756" 
d="M546 700h131.999v-415c0 -95.333 -27.167 -168.333 -81.5 -219s-127.166 -76 -218.499 -76s-164.166 25.333 -218.499 76s-81.5 123.667 -81.5 219v415h132v-430c0 -58.667 13.167 -100 39.5 -124s69.166 -36 128.499 -36c60 0 103 12 129 36s39 65.333 39 124v430z" />
    <glyph glyph-name="V" unicode="V" horiz-adv-x="676" 
d="M517 700h154l-245 -700h-174l-247 700h154l130 -406l49 -175l49 174z" />
    <glyph glyph-name="W" unicode="W" horiz-adv-x="1033" 
d="M878 700h148l-175 -700h-172l-137 442l-25 115l-26 -116l-137 -441h-172l-175 700h149l94 -459l19 -109l26 109l132 459h178l133 -459l27 -110l19 110z" />
    <glyph glyph-name="X" unicode="X" horiz-adv-x="649" 
d="M409 352l235 -352h-164l-114 195l-40 78l-42 -79l-115 -194h-164l236 351l-231 349h161l109 -183l44 -84l43 81l111 186h162z" />
    <glyph glyph-name="Y" unicode="Y" horiz-adv-x="661" 
d="M496 700h153l-251 -421v-279h-132v277l-254 423h153l166 -298z" />
    <glyph glyph-name="Z" unicode="Z" horiz-adv-x="617" 
d="M178 118h399v-118h-537v123l361 459h-352v118h519v-127l-248 -308z" />
    <glyph glyph-name="bracketleft" unicode="[" horiz-adv-x="336" 
d="M309 671h-154v-672h154v-99h-263v870h263v-99z" />
    <glyph glyph-name="backslash" unicode="\" horiz-adv-x="474" 
d="M498 -100h-121l-186 419l-206 451h121l183 -412z" />
    <glyph glyph-name="bracketright" unicode="]" horiz-adv-x="336" 
d="M27 671v99h263v-870h-263v99h154v672h-154z" />
    <glyph glyph-name="asciicircum" unicode="^" horiz-adv-x="494" 
d="M445 474h-117l-82 141l-80 -141h-116l147 226h100z" />
    <glyph glyph-name="underscore" unicode="_" horiz-adv-x="502" 
d="M10 -63h482v-96h-482v96z" />
    <glyph glyph-name="a" unicode="a" horiz-adv-x="627" 
d="M429 490h127v-490h-127v107c-31.333 -78 -88 -117 -170 -117c-69.333 0 -123.833 23.167 -163.5 69.5s-59.5 107.833 -59.5 184.5c0 78 19.167 140.167 57.5 186.5s91.5 69.5 159.5 69.5c85.333 0 144 -40 176 -120v110zM297 105c46.667 0 81 11.333 103 34
s33 57.667 33 105c0 48 -11 83.5 -33 106.5s-56.333 34.5 -103 34.5c-88.667 0 -133 -47 -133 -141c0 -92.667 44.333 -139 133 -139z" />
    <glyph glyph-name="b" unicode="b" horiz-adv-x="627" 
d="M375 500c67.333 0 120.167 -23.167 158.5 -69.5s57.5 -108.5 57.5 -186.5c0 -76.667 -19.833 -138.167 -59.5 -184.5s-94.167 -69.5 -163.5 -69.5c-80.667 0 -137 38.333 -169 115v-105h-127v700h127v-318c32 78.667 90.667 118 176 118zM330.001 105
c45.333 0 78.833 11.333 100.5 34s32.5 57.667 32.5 105c0 48 -10.833 83.5 -32.5 106.5s-55.167 34.5 -100.5 34.5c-46.667 0 -81 -11.5 -103 -34.5s-33 -58.5 -33 -106.5c0 -47.333 11 -82.333 33 -105s56.333 -34 103 -34z" />
    <glyph glyph-name="c" unicode="c" horiz-adv-x="575" 
d="M294 105c35.333 0 62.166 8 80.499 24s31.5 44.333 39.5 85l125 -30c-16 -66 -45.667 -114.833 -89 -146.5s-95.333 -47.5 -156 -47.5c-76.667 0 -138.834 23.333 -186.501 70s-71.5 108 -71.5 184c0 76.667 23.833 138.5 71.5 185.5s109.834 70.5 186.501 70.5
c62 0 114.5 -16.167 157.5 -48.5s72.167 -80.833 87.5 -145.5l-125 -30c-7.33301 40.667 -20.166 69 -38.499 85s-45.5 24 -81.5 24c-44.667 0 -77.5 -11.5 -98.5 -34.5s-31.5 -58.5 -31.5 -106.5c0 -47.333 10.5 -82.333 31.5 -105s53.833 -34 98.5 -34z" />
    <glyph glyph-name="d" unicode="d" horiz-adv-x="628" 
d="M429 700h127v-700h-127v107c-31.333 -78 -88 -117 -170 -117c-69.333 0 -123.833 23.167 -163.5 69.5s-59.5 107.833 -59.5 184.5c0 78 19.167 140.167 57.5 186.5s91.5 69.5 159.5 69.5c85.333 0 144 -40 176 -120v320zM297 105c46.667 0 81 11.333 103 34
s33 57.667 33 105c0 48 -11 83.5 -33 106.5s-56.333 34.5 -103 34.5c-88.667 0 -133 -47 -133 -141c0 -92.667 44.333 -139 133 -139z" />
    <glyph glyph-name="e" unicode="e" horiz-adv-x="554" 
d="M517 252c0 -18 -0.334961 -33.668 -1.00195 -47.001h-348c4 -40.667 15.5 -70.167 34.5 -88.5s47.833 -27.5 86.5 -27.5c28.667 0 50.667 5 66 15s29 28 41 54l110 -40c-33.333 -85.333 -106.666 -128 -219.999 -128c-75.333 0 -135.833 23 -181.5 69
s-68.5 107 -68.5 183c0 76.667 22.833 138.834 68.5 186.501s104.834 71.5 177.501 71.5c70.667 0 127.5 -22.5 170.5 -67.5s64.5 -105.167 64.5 -180.5zM282.998 403.999c-35.333 0 -62.167 -8.83301 -80.5 -26.5s-29.833 -46.167 -34.5 -85.5h223
c-0.666992 40.667 -9.66699 69.5 -27 86.5s-44.333 25.5 -81 25.5z" />
    <glyph glyph-name="f" unicode="f" horiz-adv-x="393" 
d="M388 490v-112h-145v-378h-127v378h-103v112h103v85c0 45.333 14 82 42 110s64.667 42 110 42h117v-112h-142v-125h145z" />
    <glyph glyph-name="g" unicode="g" horiz-adv-x="608" 
d="M410 490l127.001 -0.00292969v-430c0 -75.333 -22.5 -134.166 -67.5 -176.499s-107.5 -63.5 -187.5 -63.5c-63.333 0 -116.5 11.333 -159.5 34s-70.5 55.334 -82.5 98.001l122 51c8.66699 -31.333 22.5 -52.5 41.5 -63.5s47.167 -16.5 84.5 -16.5
c41.333 0 72 9.16699 92 27.5s30 47.166 30 86.499v93c-33.333 -68 -89 -102 -167 -102c-62.667 0 -112.834 21.833 -150.501 65.5s-56.5 100.834 -56.5 171.501s18.333 127.334 55 170.001s86 64 148 64c80 0 137 -35 171 -105v96zM288.001 139.997
c84.667 0 127 41.333 127 124s-42 124 -126 124c-82.667 0 -124 -41.333 -124 -124s41 -124 123 -124z" />
    <glyph glyph-name="h" unicode="h" horiz-adv-x="602" 
d="M361 500c116.667 0 175 -69 175 -207v-293h-127v286c0 66 -31.667 99 -95 99c-36 0 -64.167 -12.833 -84.5 -38.5s-30.5 -63.167 -30.5 -112.5v-234h-127v700h127v-324c25.333 82.667 79.333 124 162 124z" />
    <glyph glyph-name="i" unicode="i" horiz-adv-x="270" 
d="M135 572c-26.667 0 -47.167 7.00098 -61.5 21.001s-21.5 34 -21.5 60c0 52 27.667 78 83 78c26.667 0 47.167 -6.83301 61.5 -20.5s21.5 -32.834 21.5 -57.501c0 -26 -7.16699 -46 -21.5 -60s-34.833 -21 -61.5 -21zM72 0.000976562v490h127v-490h-127z" />
    <glyph glyph-name="j" unicode="j" horiz-adv-x="270" 
d="M136 572c-26.667 0 -47.167 7.00098 -61.5 21.001s-21.5 34 -21.5 60c0 52 27.667 78 83 78c26.667 0 47.167 -6.83301 61.5 -20.5s21.5 -32.834 21.5 -57.501c0 -26 -7.16699 -46 -21.5 -60s-34.833 -21 -61.5 -21zM-14 -169.999v115h85v545h127v-508
c0 -45.333 -13.833 -82 -41.5 -110s-64.167 -42 -109.5 -42h-61z" />
    <glyph glyph-name="k" unicode="k" horiz-adv-x="575" 
d="M403 0l-120 205l-84 -90v-115h-127v700h127v-472l69 110l122 152h159l-187 -201l193 -289h-152z" />
    <glyph glyph-name="l" unicode="l" horiz-adv-x="270" 
d="M72 0v700h127v-700h-127z" />
    <glyph glyph-name="m" unicode="m" horiz-adv-x="939" 
d="M703 500c113.333 0 170 -69.668 170 -209.001v-291h-127v283c0 32.667 -8.16699 57.834 -24.5 75.501s-39.833 26.5 -70.5 26.5c-76.667 0 -115 -57.667 -115 -173v-212h-127v286c0 66 -31.667 99 -95 99c-36 0 -64.167 -12.833 -84.5 -38.5s-30.5 -63.167 -30.5 -112.5
v-234h-127v490h127v-114c25.333 82.667 79.333 124 162 124c90.667 0 146 -42 166 -126c31.333 84 90 126 176 126z" />
    <glyph glyph-name="n" unicode="n" horiz-adv-x="602" 
d="M361 500c116.667 0 175 -69 175 -207v-293h-127v286c0 66 -31.667 99 -95 99c-36 0 -64.167 -12.833 -84.5 -38.5s-30.5 -63.167 -30.5 -112.5v-234h-127v490h127v-114c25.333 82.667 79.333 124 162 124z" />
    <glyph glyph-name="o" unicode="o" horiz-adv-x="597" 
d="M299 500c73.333 0 135.333 -23.5 186 -70.5s76 -108.833 76 -185.5c0 -76 -25.333 -137.333 -76 -184s-112.667 -70 -186 -70c-74 0 -136.333 23.333 -187 70s-76 108 -76 184c0 76.667 25.333 138.5 76 185.5s113 70.5 187 70.5zM299 105c89.333 0 134 46.333 134 139
c0 48 -11 83.5 -33 106.5s-55.667 34.5 -101 34.5c-46 0 -80 -11.5 -102 -34.5s-33 -58.5 -33 -106.5c0 -92.667 45 -139 135 -139z" />
    <glyph glyph-name="p" unicode="p" horiz-adv-x="627" 
d="M375 500c67.333 0 120.167 -23.167 158.5 -69.5s57.5 -108.5 57.5 -186.5c0 -76.667 -19.833 -138.167 -59.5 -184.5s-94.167 -69.5 -163.5 -69.5c-80.667 0 -137 38.333 -169 115v-275h-127v660h127v-108c32 78.667 90.667 118 176 118zM330.001 105
c45.333 0 78.833 11.333 100.5 34s32.5 57.667 32.5 105c0 48 -10.833 83.5 -32.5 106.5s-55.167 34.5 -100.5 34.5c-46.667 0 -81 -11.5 -103 -34.5s-33 -58.5 -33 -106.5c0 -47.333 11 -82.333 33 -105s56.333 -34 103 -34z" />
    <glyph glyph-name="q" unicode="q" horiz-adv-x="628" 
d="M429 490h127v-660h-127v277c-31.333 -78 -88 -117 -170 -117c-69.333 0 -123.833 23.167 -163.5 69.5s-59.5 107.833 -59.5 184.5c0 78 19.167 140.167 57.5 186.5s91.5 69.5 159.5 69.5c85.333 0 144 -40 176 -120v110zM297 105c46.667 0 81 11.333 103 34
s33 57.667 33 105c0 48 -11 83.5 -33 106.5s-56.333 34.5 -103 34.5c-88.667 0 -133 -47 -133 -141c0 -92.667 44.333 -139 133 -139z" />
    <glyph glyph-name="r" unicode="r" horiz-adv-x="421" 
d="M342 498c27.333 0 47 -2.33301 59 -7v-120c-17.333 6.66699 -39.333 10 -66 10c-42 0 -75.167 -14.667 -99.5 -44s-36.5 -74 -36.5 -134v-203h-127v490h127v-139c17.333 98 65 147 143 147z" />
    <glyph glyph-name="s" unicode="s" horiz-adv-x="486" 
d="M241 -10c-60.667 0 -110.001 13.666 -148.001 40.999s-60.333 62 -67 104l119 33c4 -30.667 14.167 -51.834 30.5 -63.501s40.833 -17.5 73.5 -17.5c53.333 0 80 16.667 80 50c0 15.333 -5 27 -15 35s-29 14.333 -57 19l-82 13c-44 7.33301 -78.167 23.333 -102.5 48
s-36.5 57.667 -36.5 99c0 46.667 17.333 83.167 52 109.5s82.667 39.5 144 39.5c122 0 191.667 -47.333 209 -142l-112 -27c-3.33301 30 -11.666 50.333 -24.999 61s-36 16 -68 16c-48 0 -72 -17 -72 -51c0 -14.667 4.5 -26 13.5 -34s24.833 -13.667 47.5 -17l100 -15
c41.333 -5.33301 73.5 -20.166 96.5 -44.499s34.5 -56.166 34.5 -95.499c0 -50.667 -19 -90.167 -57 -118.5s-90.667 -42.5 -158 -42.5z" />
    <glyph glyph-name="t" unicode="t" horiz-adv-x="410" 
d="M381 378h-142v-266h130v-112h-105c-45.333 0 -82 14 -110 42s-42 64.667 -42 110v226h-94v112h94v146h127v-146h142v-112z" />
    <glyph glyph-name="u" unicode="u" horiz-adv-x="603" 
d="M404 490h126.999v-490h-127v115c-25.333 -83.333 -79.666 -125 -162.999 -125c-116 0 -174 69 -174 207v293h127v-286c0 -66 31.333 -99 94 -99c36 0 64.333 12.833 85 38.5s31 63.167 31 112.5v234z" />
    <glyph glyph-name="v" unicode="v" horiz-adv-x="548" 
d="M398 490h139l-188 -490h-151l-187 490h138l125 -390z" />
    <glyph glyph-name="w" unicode="w" horiz-adv-x="815" 
d="M666 490h136l-142 -490h-137l-89 253l-26 92l-27 -93l-89 -252h-134l-145 490h138l66 -282l16 -84l22 85l90 281h125l89 -281l24 -90l17 90z" />
    <glyph glyph-name="x" unicode="x" horiz-adv-x="525" 
d="M510 490l-168 -246l168 -244h-150l-70 122l-29 64l-28 -63l-68 -123h-151l169 244l-167 246h153l64 -117l30 -68l29 65l67 120h151z" />
    <glyph glyph-name="y" unicode="y" horiz-adv-x="548" 
d="M399 490h138l-208 -544c-15.333 -40.667 -36.5 -70.167 -63.5 -88.5s-66.167 -27.5 -117.5 -27.5h-102v112h170l-205 548h138l94 -290l29 -109l32 109z" />
    <glyph glyph-name="z" unicode="z" horiz-adv-x="488" 
d="M176 110h279v-110h-412v106l242 274h-236v110h396v-107l-165 -181z" />
    <glyph glyph-name="braceleft" unicode="{" horiz-adv-x="413" 
d="M244 487c0 -44.667 -8.5 -78.668 -25.5 -102.001s-45.833 -40 -86.5 -50c41.333 -10 70.333 -26.667 87 -50s25 -57.333 25 -102v-184h142v-99h-118c-38.667 0 -70.334 10.833 -95.001 32.5s-37 51.834 -37 90.501v188c0 24 -7.33301 43.167 -22 57.5
s-33 20.833 -55 19.5l-38 -3v100l38 -3c22 -1.33301 40.333 5.16699 55 19.5s22 33.5 22 57.5v188c0 38 12.333 68 37 90s56.334 33 95.001 33h118v-99h-142v-184z" />
    <glyph glyph-name="bar" unicode="|" horiz-adv-x="319" 
d="M214 -100h-109v870h109v-870z" />
    <glyph glyph-name="braceright" unicode="}" horiz-adv-x="413" 
d="M354 382l38 3.00098v-100l-38 3c-22 1.33301 -40.333 -5.16699 -55 -19.5s-22 -33.5 -22 -57.5v-188c0 -38.667 -12.333 -68.834 -37 -90.501s-56.334 -32.5 -95.001 -32.5h-118v99h142v184c0 44.667 8.33301 78.667 25 102s45.667 40 87 50
c-40.667 10 -69.5 26.667 -86.5 50s-25.5 57.333 -25.5 102v184h-142v99h118c38.667 0 70.334 -11 95.001 -33s37 -52 37 -90v-188c0 -24 7.33301 -43.167 22 -57.5s33 -20.833 55 -19.5z" />
    <glyph glyph-name="asciitilde" unicode="~" 
d="M155 215l-104 52c12 24.667 30.5 48.167 55.5 70.5s54.833 33.5 89.5 33.5c24.667 0 58.5 -7.66699 101.5 -23s71.167 -23 84.5 -23c24.667 0 46 16.333 64 49l103 -50c-39.333 -70 -86.666 -105 -141.999 -105c-25.333 0 -59.833 7.66699 -103.5 23s-71.5 23 -83.5 23
c-10.667 0 -20.834 -3.33301 -30.501 -10s-16 -12.167 -19 -16.5z" />
    <glyph glyph-name="exclamdown" unicode="&#xa1;" horiz-adv-x="304" 
d="M153 500c27.333 0 48.334 -7.16699 63.001 -21.5s22 -34.833 22 -61.5c0 -26 -7.33301 -46 -22 -60s-35.667 -21 -63 -21c-26.667 0 -47.334 7 -62.001 21s-22 34 -22 60c1.33301 55.333 29.333 83 84 83zM77.001 -205l11 253l30 216h68l30 -216l12 -253h-151z" />
    <glyph glyph-name="cent" unicode="&#xa2;" horiz-adv-x="578" 
d="M330 108c23.333 4.66699 41.502 15.3369 54.502 32.0039s22.833 41.334 29.5 74.001l125 -30c-14.667 -58.667 -39.834 -103.834 -75.501 -135.501s-78.834 -50.5 -129.501 -56.5l4 -115h-95l4 116c-64 9.33301 -115.167 36.666 -153.5 81.999
s-57.5 101.666 -57.5 168.999c0 68.667 19.167 125.667 57.5 171s89.833 72.666 154.5 81.999l-5 123h95l-4 -122c52 -6.66699 95.833 -26 131.5 -58s60.167 -76.667 73.5 -134l-125 -30c-6 33.333 -15.5 58.166 -28.5 74.499s-31.5 26.833 -55.5 31.5l-5 -129z
M164.002 244.003c0 -77.333 29.333 -122.332 88 -134.999l5 144l-5 128c-58.667 -12.667 -88 -58.334 -88 -137.001z" />
    <glyph glyph-name="sterling" unicode="&#xa3;" horiz-adv-x="635" 
d="M269 267l-34 -146h363v-121h-541v88l90 22v157h-90v110h90v92c0 76.667 22.667 136 68 178s103.333 63 174 63c58 0 107.667 -15.5 149 -46.5s68 -75.833 80 -134.5l-122 -45c-4 38.667 -14.333 66 -31 82s-41.667 24 -75 24c-74 0 -111 -43 -111 -129v-84h187v-110h-197
z" />
    <glyph glyph-name="yen" unicode="&#xa5;" horiz-adv-x="671" 
d="M629 700l-191 -349h123v-87h-163v-68h163v-87h-163v-109h-132v109h-155v87h155v68h-155v87h114l-193 349h153l146 -292l145 292h153z" />
    <glyph glyph-name="brokenbar" unicode="&#xa6;" horiz-adv-x="319" 
d="M105 409v361h109v-361h-109zM214 261v-361h-109v361h109z" />
    <glyph glyph-name="section" unicode="&#xa7;" horiz-adv-x="638" 
d="M479 149c50 -29.333 74.9971 -74.668 74.9971 -136.001c0 -58 -21 -104.667 -63 -140s-99.333 -53 -172 -53c-76.667 0 -135.834 17.333 -177.501 52s-66.167 84.334 -73.5 149.001l107 32c2.66699 -51.333 15.334 -87.166 38.001 -107.499s59.334 -30.5 110.001 -30.5
c74.667 0 112 28.333 112 85c0 25.333 -12.667 44.666 -38 57.999s-56.166 23.333 -92.499 30s-72.666 14.334 -108.999 23.001s-67.166 25 -92.499 49s-38 56.333 -38 97c0 56 31.333 97 94 123c-50.667 30.667 -76 76.334 -76 137.001c0 58 21 104.667 63 140
s99.333 53 172 53c76.667 0 136 -17.333 178 -52s66.667 -84.334 74 -149.001l-107 -32c-2.66699 51.333 -15.5 87.166 -38.5 107.499s-59.833 30.5 -110.5 30.5c-74.667 0 -112 -28.333 -112 -85c0 -25.333 12.667 -44.666 38 -57.999s56.333 -23.333 93 -30
s73.167 -14.334 109.5 -23.001s67.166 -25 92.499 -49s38 -56.333 38 -97c0 -56 -31.333 -97.333 -94 -124zM182.997 290.998c0 -16.667 4.83301 -30.665 14.5 -41.998s23.834 -20.333 42.501 -27s37.667 -12.167 57 -16.5l68.5 -15.5c26.333 -6 48.5 -12.333 66.5 -19
c14.667 25.333 22 48 22 68s-8.33301 36.667 -25 50s-35.5 22.666 -56.5 27.999s-48.833 11.833 -83.5 19.5s-62.334 15.167 -83.001 22.5c-15.333 -24.667 -23 -47.334 -23 -68.001z" />
    <glyph glyph-name="copyright" unicode="&#xa9;" horiz-adv-x="798" 
d="M398 -6c-104.667 0 -190.5 33.668 -257.5 101.001s-100.5 153 -100.5 257s33.667 189.667 101 257s153.666 101 258.999 101c104.667 0 190.5 -33.333 257.5 -100s100.5 -152 100.5 -256c0 -104.667 -33.667 -190.834 -101 -258.501s-153.666 -101.5 -258.999 -101.5z
M398 47.001c98 0 172.667 25.999 224 77.999s77 128.333 77 229c0 98.667 -25.5 173.834 -76.5 225.501s-125.167 77.5 -222.5 77.5c-98 0 -172.5 -25.833 -223.5 -77.5s-76.5 -127.5 -76.5 -227.5s25.333 -175.833 76 -227.5s124.667 -77.5 222 -77.5zM405 146
c-58.667 0 -107.999 19.001 -147.999 57.001s-60 86.667 -60 146c0 60 20 109 60 147s89.333 57 148 57c49.333 0 91.666 -13.667 126.999 -41s57.333 -65 66 -113l-90 -18c-6.66699 31.333 -17.5 54.333 -32.5 69s-38.5 22 -70.5 22c-76.667 0 -115 -40.667 -115 -122
c0 -80.667 38.333 -121 115 -121c32 0 55.5 7.16699 70.5 21.5s25.833 37.166 32.5 68.499l90 -18c-8.66699 -47.333 -30.5 -85 -65.5 -113s-77.5 -42 -127.5 -42z" />
    <glyph glyph-name="ordfeminine" unicode="&#xaa;" horiz-adv-x="547" 
d="M374 701h110.998v-425h-111v91c-27.333 -66.667 -75.666 -100 -144.999 -100c-60.667 0 -108.667 20.167 -144 60.5s-53 93.833 -53 160.5s17.333 120.167 52 160.5s81.334 60.5 140.001 60.5c72.667 0 122.667 -34 150 -102v94zM259.998 365c79.333 0 119 41 119 123
s-39.667 123 -119 123c-78 0 -117 -41 -117 -123s39 -123 117 -123z" />
    <glyph glyph-name="guillemotleft" unicode="&#xab;" horiz-adv-x="566" 
d="M306 448l-173 -189l173 -188h-138l-120 188l120 189h138zM512 448l-173 -189l173 -188h-138l-119 188l119 189h138z" />
    <glyph glyph-name="registered" unicode="&#xae;" horiz-adv-x="469" 
d="M235 743c61.333 0 113.166 -21.5 155.499 -64.5s63.5 -94.833 63.5 -155.5c0 -62 -21.167 -113.833 -63.5 -155.5s-94.166 -62.5 -155.499 -62.5s-113.333 20.833 -156 62.5s-64 93.167 -64 154.5s21.333 113.5 64 156.5s94.667 64.5 156 64.5zM235 343
c56 0 99.333 16 130 48s46 76 46 132c0 56.667 -15.333 101 -46 133s-74 48 -130 48s-99.333 -16.167 -130 -48.5s-46 -76.833 -46 -133.5c0 -56 15.5 -99.833 46.5 -131.5s74.167 -47.5 129.5 -47.5zM278 497l25.999 -21l41 -59h-63l-43 78h-40v-78h-49v227h100
c26.667 0 48.334 -6.5 65.001 -19.5s25 -30.5 25 -52.5c0 -20 -5.5 -36.5 -16.5 -49.5s-26.167 -21.5 -45.5 -25.5zM198.999 600v-61h59c20.667 0 31 11 31 33c0 18.667 -10.667 28 -32 28h-58z" />
    <glyph glyph-name="degree" unicode="&#xb0;" horiz-adv-x="471" 
d="M236 332c-56 0 -103.167 17.667 -141.5 53s-57.5 81 -57.5 137c0 54.667 19.333 99.667 58 135s85.667 53 141 53s102.166 -17.5 140.499 -52.5s57.5 -80.167 57.5 -135.5c0 -56 -19.167 -101.667 -57.5 -137s-85.166 -53 -140.499 -53zM236 430
c60.667 0 91 30.667 91 92c0 60.667 -30.333 91 -91 91s-91 -30.333 -91 -91c0 -61.333 30.333 -92 91 -92z" />
    <glyph glyph-name="plusminus" unicode="&#xb1;" 
d="M245 204v165h-189v101h189v165h111v-165h189v-101h-189v-165h-111zM56 41v98h489v-98h-489z" />
    <glyph glyph-name="uni00B2" unicode="&#xb2;" horiz-adv-x="358" 
d="M115 486l227.001 0.00488281v-81h-313v75l107 76c18.667 13.333 33.5 24.666 44.5 33.999s22.5 22.166 34.5 38.499s18 32.166 18 47.499c0 34.667 -18.333 52 -55 52c-22 0 -38.167 -7.5 -48.5 -22.5s-12.5 -37.167 -6.5 -66.5l-96 10c-7.33301 52 4 91.667 34 119
s69.333 41 118 41c45.333 0 82.333 -12 111 -36s43 -56 43 -96c0 -38.667 -12.833 -69.834 -38.5 -93.501s-62.834 -45.834 -111.501 -66.501z" />
    <glyph glyph-name="uni00B3" unicode="&#xb3;" horiz-adv-x="369" 
d="M237 609c70.667 -8 106 -39.998 106 -95.998c0 -34 -14.167 -61.5 -42.5 -82.5s-65.833 -31.5 -112.5 -31.5c-49.333 0 -88.666 12 -117.999 36s-43.666 57 -42.999 99l93 13c-2 -24.667 2.5 -42.5 13.5 -53.5s29.167 -16.5 54.5 -16.5c43.333 0 65 16 65 48
c0 14.667 -5.33301 26.5 -16 35.5s-25.334 13.167 -44.001 12.5l-44 -1v69l45 -1c15.333 -0.666992 27.333 3.33301 36 12s13 20 13 34c0 30 -18.667 45 -56 45c-24 0 -41.333 -5.33301 -52 -16s-14.334 -28.334 -11.001 -53.001l-91 12
c-1.33301 42.667 12 75.834 40 99.501s66.333 35.5 115 35.5c44 0 79.5 -9.83301 106.5 -29.5s40.5 -45.834 40.5 -78.501c0 -50.667 -32.667 -81.334 -98 -92.001z" />
    <glyph glyph-name="paragraph" unicode="&#xb6;" horiz-adv-x="810" 
d="M725 700v-870.001h-114v767h-160v-767h-125v400h-16c-88 0 -155.833 21.167 -203.5 63.5s-71.5 99.833 -71.5 172.5s23.667 129.834 71 171.501s115.333 62.5 204 62.5h415z" />
    <glyph glyph-name="periodcentered" unicode="&#xb7;" horiz-adv-x="267" 
d="M133 241c-26.667 0 -47.168 7.16699 -61.501 21.5s-21.5 34.833 -21.5 61.5c-0.666992 26 6.33301 46 21 60s35.334 21 62.001 21c27.333 0 48.333 -7 63 -21s22 -34 22 -60c0.666992 -26.667 -6.5 -47.167 -21.5 -61.5s-36.167 -21.5 -63.5 -21.5z" />
    <glyph glyph-name="uni00B9" unicode="&#xb9;" horiz-adv-x="302" 
d="M136 803h92v-398h-95v340l-95 -88l-36 78z" />
    <glyph glyph-name="ordmasculine" unicode="&#xba;" horiz-adv-x="520" 
d="M260 709c64.667 0 118.999 -20.333 162.999 -61s66 -94.334 66 -161.001c0 -66 -22 -119.167 -66 -159.5s-98.333 -60.5 -163 -60.5c-64 0 -118 20.167 -162 60.5s-66 93.5 -66 159.5c0 66.667 21.833 120.334 65.5 161.001s97.834 61 162.501 61zM259.999 367
c78.667 0 118 39.999 118 119.999c0 81.333 -39.333 122 -118 122c-40 0 -69.5 -10 -88.5 -30s-28.5 -50.667 -28.5 -92s9.5 -71.666 28.5 -90.999s48.5 -29 88.5 -29z" />
    <glyph glyph-name="guillemotright" unicode="&#xbb;" horiz-adv-x="566" 
d="M54 448h138l119 -189l-119 -188h-138l173 188zM260 448h138l120 -189l-120 -188h-138l173 188z" />
    <glyph glyph-name="onequarter" unicode="&#xbc;" horiz-adv-x="799" 
d="M133 302v340l-95 -88l-36 78l134 68h92v-398h-95zM586 700h99l-263 -351l-243 -349h-102l271 356zM729 161h54v-72h-54v-89h-83v89h-204v85c51.333 56 79.333 130.667 84 224h94c-12.667 -102.667 -51.667 -184 -117 -244l145 6l10 176h71v-175z" />
    <glyph glyph-name="onehalf" unicode="&#xbd;" horiz-adv-x="799" 
d="M133 302v340l-95 -88l-36 78l134 68h92v-398h-95zM586 700h99l-263 -351l-243 -349h-102l271 356zM555 81l228.001 0.00488281v-81h-313v75l107 76c18.667 13.333 33.5 24.666 44.5 33.999s22.5 22.166 34.5 38.499s18 32.166 18 47.499c0 34.667 -18.333 52 -55 52
c-22 0 -38.167 -7.5 -48.5 -22.5s-12.5 -37.167 -6.5 -66.5l-96 10c-7.33301 52 4 91.667 34 119s69.333 41 118 41c45.333 0 82.333 -12 111 -36s43 -56 43 -96c0 -38.667 -12.833 -69.834 -38.5 -93.501s-62.834 -45.834 -111.501 -66.501z" />
    <glyph glyph-name="threequarters" unicode="&#xbe;" horiz-adv-x="839" 
d="M343 411c0 -34 -14.167 -61.498 -42.5 -82.498s-65.833 -31.5 -112.5 -31.5c-49.333 0 -88.666 12 -117.999 36s-43.666 57 -42.999 99l93 13c-2 -24.667 2.5 -42.5 13.5 -53.5s29.167 -16.5 54.5 -16.5c43.333 0 65 16 65 48c0 14.667 -5.33301 26.5 -16 35.5
s-25.334 13.167 -44.001 12.5l-44 -1v69l45 -1c15.333 -0.666992 27.333 3.33301 36 12s13 20 13 34c0 30 -18.667 45 -56 45c-24 0 -41.333 -5.33301 -52 -16s-14.334 -28.334 -11.001 -53.001l-91 12c-1.33301 42.667 12 75.834 40 99.501s66.333 35.5 115 35.5
c44 0 79.5 -9.83301 106.5 -29.5s40.5 -45.834 40.5 -78.501c0 -50.667 -32.667 -81.334 -98 -92.001c70.667 -8 106 -40 106 -96zM626 700.002h99l-263 -351l-243 -349h-102l271 356zM769 161.002h54v-72h-54v-89h-83v89h-204v85c51.333 56 79.333 130.667 84 224h94
c-12.667 -102.667 -51.667 -184 -117 -244l145 6l10 176h71v-175z" />
    <glyph glyph-name="questiondown" unicode="&#xbf;" horiz-adv-x="513" 
d="M274 500c26.667 0 47.333 -7.16699 62 -21.5s22 -34.833 22 -61.5c0 -26 -7.33301 -46 -22 -60s-35.334 -21 -62.001 -21c-55.333 0 -83.666 27 -84.999 81c0 26.667 7.33301 47.167 22 61.5s35.667 21.5 63 21.5zM488.999 -11c-6.66699 -68 -31.668 -119 -75.001 -153
s-95.666 -51 -156.999 -51c-66 0 -120.333 18.833 -163 56.5s-64 86.834 -64 147.501c0 56 17.667 100.167 53 132.5s80 54.833 134 67.5v77h114v-30c0 -24.667 -5.83301 -46 -17.5 -64s-26 -32.333 -43 -43l-51 -31.5c-17 -10.333 -31.333 -23.5 -43 -39.5
s-17.5 -35 -17.5 -57c0 -32.667 8 -56.834 24 -72.501s41.667 -23.5 77 -23.5c34 0 59.667 9.33301 77 28s25 50.667 23 96z" />
    <glyph glyph-name="Agrave" unicode="&#xc0;" horiz-adv-x="723" 
d="M413 760h-70l-172 173h181zM570 0l-60 167h-297l-60 -167h-141l258 700h185l256 -700h-141zM255 284h213l-67 186l-39 123l-41 -123z" />
    <glyph glyph-name="Aacute" unicode="&#xc1;" horiz-adv-x="723" 
d="M575 933l-172 -173h-70l60 173h182zM570 0l-60 167h-297l-60 -167h-141l258 700h185l256 -700h-141zM255 284h213l-67 186l-39 123l-41 -123z" />
    <glyph glyph-name="Acircumflex" unicode="&#xc2;" horiz-adv-x="723" 
d="M362 839l-100 -79h-79l123 173h111l123 -173h-79zM570 0l-60 167h-297l-60 -167h-141l258 700h185l256 -700h-141zM255 284h213l-67 186l-39 123l-41 -123z" />
    <glyph glyph-name="Atilde" unicode="&#xc3;" horiz-adv-x="723" 
d="M283 817c-17.333 0 -25.999 -18.666 -25.999 -55.999h-59c0 56 6.5 95.5 19.5 118.5s34.833 34.5 65.5 34.5c22 0 42.833 -5.83301 62.5 -17.5s37.167 -23.334 52.5 -35.001s28.666 -17.5 39.999 -17.5c18.667 0 28 18.333 28 55h58
c0 -54.667 -6.16699 -93.5 -18.5 -116.5s-33.833 -34.5 -64.5 -34.5c-22 0 -43.167 5.66699 -63.5 17s-38.333 22.833 -54 34.5s-29.167 17.5 -40.5 17.5zM570.001 0.000976562l-60 167h-297l-60 -167h-141l258 700h185l256 -700h-141zM255.001 284.001h213l-67 186l-39 123
l-41 -123z" />
    <glyph glyph-name="Adieresis" unicode="&#xc4;" horiz-adv-x="723" 
d="M241 767c-26.667 0 -47.167 7.00098 -61.5 21.001s-21.5 34 -21.5 60c0 52 27.667 78 83 78c26.667 0 47.167 -6.83301 61.5 -20.5s21.5 -32.834 21.5 -57.501c0 -26 -7.16699 -46 -21.5 -60s-34.833 -21 -61.5 -21zM479 767.001c-26 0 -46.165 6.99902 -60.498 20.999
s-21.5 34 -21.5 60c-0.666992 24.667 6.16602 43.834 20.499 57.501s34.833 20.5 61.5 20.5c54.667 0 82.667 -26 84 -78c0 -26 -7.33301 -46 -22 -60s-35.334 -21 -62.001 -21zM570.002 0l-60 167h-297l-60 -167h-141l258 700h185l256 -700h-141zM255.002 284h213l-67 186
l-39 123l-41 -123z" />
    <glyph glyph-name="Aring" unicode="&#xc5;" horiz-adv-x="723" 
d="M361 725c-37.333 0 -68 11.167 -92 33.5s-36 50.833 -36 85.5c0 35.333 12 64 36 86s54.667 33 92 33s68 -11 92 -33s36 -50.667 36 -86c0 -34.667 -12 -63.167 -36 -85.5s-54.667 -33.5 -92 -33.5zM362 889c-17.333 0 -29.5 -3.33301 -36.5 -10
s-10.5 -18.334 -10.5 -35.001c0 -16 3.66699 -27.5 11 -34.5s19.333 -10.5 36 -10.5s28.334 3.5 35.001 10.5s10 18.5 10 34.5c0 16.667 -3.33301 28.334 -10 35.001s-18.334 10 -35.001 10zM570 0l-60 167h-297l-60 -167h-141l258 700h185l256 -700h-141zM255 284h213
l-67 186l-39 123l-41 -123z" />
    <glyph glyph-name="AE" unicode="&#xc6;" horiz-adv-x="1026" 
d="M964 579h-319v-150h301v-117h-301v-191h319v-121h-450v167h-251l-99 -167h-152l426 700h526v-121zM333 284h181v304z" />
    <glyph glyph-name="Ccedilla" unicode="&#xc7;" horiz-adv-x="781" 
d="M402 110c64 0 112.999 15.1689 146.999 45.502s56.333 79.833 67 148.5l132 -28c-15.333 -87.333 -52.166 -155.833 -110.499 -205.5s-130.166 -76.5 -215.499 -80.5l-27 -45c32.667 -2 57.667 -10.833 75 -26.5s26 -35.834 26 -60.501
c0 -28.667 -11.333 -52.167 -34 -70.5s-51 -27.5 -85 -27.5c-28.667 0 -54.167 6.16699 -76.5 18.5s-37.833 29.166 -46.5 50.499l61 45c8 -32.667 28 -49 60 -49c11.333 0 20.666 2.83301 27.999 8.5s11 13.5 11 23.5c0 12.667 -9 24.334 -27 35.001s-41.333 18.667 -70 24
l46 76c-92.667 9.33301 -169.667 46.833 -231 112.5s-92 147.5 -92 245.5c0 105.333 34.833 191.666 104.5 258.999s155.5 101 257.5 101c90 0 166.167 -25 228.5 -75s101.5 -120.333 117.5 -211l-132 -28c-10.667 68.667 -33 118.167 -67 148.5s-83 45.5 -147 45.5
c-150 0 -225 -79.667 -225 -239c0 -160.667 75 -241 225 -241z" />
    <glyph glyph-name="Egrave" unicode="&#xc8;" horiz-adv-x="597" 
d="M127 933h181l61 -173h-70zM535 579h-319v-150h301v-117h-301v-191h319v-121h-450v700h450v-121z" />
    <glyph glyph-name="Eacute" unicode="&#xc9;" horiz-adv-x="597" 
d="M507 933l-172 -173h-70l61 173h181zM535 579h-319v-150h301v-117h-301v-191h319v-121h-450v700h450v-121z" />
    <glyph glyph-name="Ecircumflex" unicode="&#xca;" horiz-adv-x="597" 
d="M318 839l-100 -79h-79l123 173h111l123 -173h-79zM535 579h-319v-150h301v-117h-301v-191h319v-121h-450v700h450v-121z" />
    <glyph glyph-name="Edieresis" unicode="&#xcb;" horiz-adv-x="597" 
d="M197 767c-26.667 0 -47.167 7.00098 -61.5 21.001s-21.5 34 -21.5 60c0 52 27.667 78 83 78c26.667 0 47.167 -6.83301 61.5 -20.5s21.5 -32.834 21.5 -57.501c0 -26 -7.16699 -46 -21.5 -60s-34.833 -21 -61.5 -21zM435 767.001c-26 0 -46.165 6.99902 -60.498 20.999
s-21.5 34 -21.5 60c-0.666992 24.667 6.16602 43.834 20.499 57.501s34.833 20.5 61.5 20.5c54.667 0 82.667 -26 84 -78c0 -26 -7.33301 -46 -22 -60s-35.334 -21 -62.001 -21zM535.002 579h-319v-150h301v-117h-301v-191h319v-121h-450v700h450v-121z" />
    <glyph glyph-name="Igrave" unicode="&#xcc;" horiz-adv-x="305" 
d="M-64 933h181l61 -173h-70zM220 0h-135v700h135v-700z" />
    <glyph glyph-name="Iacute" unicode="&#xcd;" horiz-adv-x="305" 
d="M369 933l-172 -173h-70l61 173h181zM85 0v700h135v-700h-135z" />
    <glyph glyph-name="Icircumflex" unicode="&#xce;" horiz-adv-x="305" 
d="M208 933l123 -173h-79l-99 79l-100 -79h-79l123 173h111zM85 0v700h135v-700h-135z" />
    <glyph glyph-name="Idieresis" unicode="&#xcf;" horiz-adv-x="305" 
d="M32 767c-26.667 0 -47.167 7.00098 -61.5 21.001s-21.5 34 -21.5 60c0 52 27.667 78 83 78c26.667 0 47.167 -6.83301 61.5 -20.5s21.5 -32.834 21.5 -57.501c0 -26 -7.16699 -46 -21.5 -60s-34.833 -21 -61.5 -21zM270 767.001c-26 0 -46.165 6.99902 -60.498 20.999
s-21.5 34 -21.5 60c-0.666992 24.667 6.16602 43.834 20.499 57.501s34.833 20.5 61.5 20.5c54.667 0 82.667 -26 84 -78c0 -26 -7.33301 -46 -22 -60s-35.334 -21 -62.001 -21zM85.002 0v700h135v-700h-135z" />
    <glyph glyph-name="Eth" unicode="&#xd0;" horiz-adv-x="758" 
d="M353 700c114.667 0 205.334 -31.833 272.001 -95.5s100 -148.5 100 -254.5s-33.333 -190.833 -100 -254.5s-157.334 -95.5 -272.001 -95.5h-268v305h-85l1 93h84v302h268zM351 120c86.667 0 147.834 17.333 183.501 52s53.5 94 53.5 178s-17.833 143.333 -53.5 178
s-96.834 52 -183.501 52h-134v-182h123l-1 -93h-122v-185h134z" />
    <glyph glyph-name="Ntilde" unicode="&#xd1;" horiz-adv-x="797" 
d="M334 817c-17.333 0 -25.999 -18.666 -25.999 -55.999h-59c0 56 6.5 95.5 19.5 118.5s34.833 34.5 65.5 34.5c22 0 42.833 -5.83301 62.5 -17.5s37.167 -23.334 52.5 -35.001s28.666 -17.5 39.999 -17.5c18.667 0 28 18.333 28 55h58
c0 -54.667 -6.16699 -93.5 -18.5 -116.5s-33.833 -34.5 -64.5 -34.5c-22 0 -43.167 5.66699 -63.5 17s-38.333 22.833 -54 34.5s-29.167 17.5 -40.5 17.5zM580.001 700.001h132v-700h-178l-267 452l-50 101v-553h-132v700h183l257 -437l55 -108v545z" />
    <glyph glyph-name="Ograve" unicode="&#xd2;" horiz-adv-x="801" 
d="M210 933h181l61 -173h-70zM400 710c101.333 0 186.835 -33.667 256.502 -101s104.5 -153.666 104.5 -258.999c0 -104.667 -34.833 -190.834 -104.5 -258.501s-155.167 -101.5 -256.5 -101.5c-100.667 0 -185.834 33.833 -255.501 101.5s-104.5 153.834 -104.5 258.501
c0 105.333 34.667 191.666 104 258.999s154.666 101 255.999 101zM400.002 110c149.333 0 224 80.333 224 241c0 159.333 -74.667 239 -224 239c-148.667 0 -223 -79.667 -223 -239c0 -160.667 74.333 -241 223 -241z" />
    <glyph glyph-name="Oacute" unicode="&#xd3;" horiz-adv-x="801" 
d="M590 933l-172 -173h-70l61 173h181zM400 710c101.333 0 186.835 -33.667 256.502 -101s104.5 -153.666 104.5 -258.999c0 -104.667 -34.833 -190.834 -104.5 -258.501s-155.167 -101.5 -256.5 -101.5c-100.667 0 -185.834 33.833 -255.501 101.5
s-104.5 153.834 -104.5 258.501c0 105.333 34.667 191.666 104 258.999s154.666 101 255.999 101zM400.002 110c149.333 0 224 80.333 224 241c0 159.333 -74.667 239 -224 239c-148.667 0 -223 -79.667 -223 -239c0 -160.667 74.333 -241 223 -241z" />
    <glyph glyph-name="Ocircumflex" unicode="&#xd4;" horiz-adv-x="801" 
d="M401 839l-100 -79h-79l123 173h111l123 -173h-79zM400 710c101.333 0 186.835 -33.667 256.502 -101s104.5 -153.666 104.5 -258.999c0 -104.667 -34.833 -190.834 -104.5 -258.501s-155.167 -101.5 -256.5 -101.5c-100.667 0 -185.834 33.833 -255.501 101.5
s-104.5 153.834 -104.5 258.501c0 105.333 34.667 191.666 104 258.999s154.666 101 255.999 101zM400.002 110c149.333 0 224 80.333 224 241c0 159.333 -74.667 239 -224 239c-148.667 0 -223 -79.667 -223 -239c0 -160.667 74.333 -241 223 -241z" />
    <glyph glyph-name="Otilde" unicode="&#xd5;" horiz-adv-x="801" 
d="M480 748c-22 0 -43.166 5.66797 -63.499 17.001s-38.333 22.833 -54 34.5s-29.167 17.5 -40.5 17.5c-17.333 0 -26 -18.667 -26 -56h-59c0 56 6.5 95.5 19.5 118.5s34.833 34.5 65.5 34.5c22 0 42.833 -5.83301 62.5 -17.5s37.167 -23.334 52.5 -35.001
s28.666 -17.5 39.999 -17.5c18.667 0 28 18.333 28 55h58c0 -54.667 -6.16699 -93.5 -18.5 -116.5s-33.833 -34.5 -64.5 -34.5zM400.001 710.001c101.333 0 186.835 -33.667 256.502 -101s104.5 -153.666 104.5 -258.999c0 -104.667 -34.833 -190.834 -104.5 -258.501
s-155.167 -101.5 -256.5 -101.5c-100.667 0 -185.834 33.833 -255.501 101.5s-104.5 153.834 -104.5 258.501c0 105.333 34.667 191.666 104 258.999s154.666 101 255.999 101zM400.003 110.001c149.333 0 224 80.333 224 241c0 159.333 -74.667 239 -224 239
c-148.667 0 -223 -79.667 -223 -239c0 -160.667 74.333 -241 223 -241z" />
    <glyph glyph-name="Odieresis" unicode="&#xd6;" horiz-adv-x="801" 
d="M280 767c-26.667 0 -47.167 7.00098 -61.5 21.001s-21.5 34 -21.5 60c0 52 27.667 78 83 78c26.667 0 47.167 -6.83301 61.5 -20.5s21.5 -32.834 21.5 -57.501c0 -26 -7.16699 -46 -21.5 -60s-34.833 -21 -61.5 -21zM518 767.001c-26 0 -46.165 6.99902 -60.498 20.999
s-21.5 34 -21.5 60c-0.666992 24.667 6.16602 43.834 20.499 57.501s34.833 20.5 61.5 20.5c54.667 0 82.667 -26 84 -78c0 -26 -7.33301 -46 -22 -60s-35.334 -21 -62.001 -21zM400.002 710c101.333 0 186.835 -33.667 256.502 -101s104.5 -153.666 104.5 -258.999
c0 -104.667 -34.833 -190.834 -104.5 -258.501s-155.167 -101.5 -256.5 -101.5c-100.667 0 -185.834 33.833 -255.501 101.5s-104.5 153.834 -104.5 258.501c0 105.333 34.667 191.666 104 258.999s154.666 101 255.999 101zM400.004 110c149.333 0 224 80.333 224 241
c0 159.333 -74.667 239 -224 239c-148.667 0 -223 -79.667 -223 -239c0 -160.667 74.333 -241 223 -241z" />
    <glyph glyph-name="multiply" unicode="&#xd7;" 
d="M538 451l-162 -162l162 -163l-75 -75l-162 163l-163 -163l-75 75l163 163l-163 162l75 75l163 -162l162 162z" />
    <glyph glyph-name="Oslash" unicode="&#xd8;" horiz-adv-x="801" 
d="M674 591c58 -66.667 87.002 -146.998 87.002 -240.998c0 -104.667 -34.833 -190.834 -104.5 -258.501s-155.167 -101.5 -256.5 -101.5c-72.667 0 -138.667 18.667 -198 56l-74 -90l-78 70l77 84c-58 65.333 -87 145.333 -87 240c0 105.333 34.667 191.666 104 258.999
s154.666 101 255.999 101c73.333 0 139.666 -18.667 198.999 -56l73 90l77 -71zM177.002 351.002c0 -62.667 11.333 -112.667 34 -150l160 173l154 189c-34 18 -75.667 27 -125 27c-148.667 0 -223 -79.667 -223 -239zM400.002 110.002c149.333 0 224 80.333 224 241
c0 60.667 -11 110 -33 148l-155 -170l-159 -192c32.667 -18 73.667 -27 123 -27z" />
    <glyph glyph-name="Ugrave" unicode="&#xd9;" horiz-adv-x="756" 
d="M186 933h181l61 -173h-70zM546 700h131.999v-415c0 -95.333 -27.167 -168.333 -81.5 -219s-127.166 -76 -218.499 -76s-164.166 25.333 -218.499 76s-81.5 123.667 -81.5 219v415h132v-430c0 -58.667 13.167 -100 39.5 -124s69.166 -36 128.499 -36c60 0 103 12 129 36
s39 65.333 39 124v430z" />
    <glyph glyph-name="Uacute" unicode="&#xda;" horiz-adv-x="756" 
d="M566 933l-172 -173h-70l61 173h181zM546 700h131.999v-415c0 -95.333 -27.167 -168.333 -81.5 -219s-127.166 -76 -218.499 -76s-164.166 25.333 -218.499 76s-81.5 123.667 -81.5 219v415h132v-430c0 -58.667 13.167 -100 39.5 -124s69.166 -36 128.499 -36
c60 0 103 12 129 36s39 65.333 39 124v430z" />
    <glyph glyph-name="Ucircumflex" unicode="&#xdb;" horiz-adv-x="756" 
d="M377 839l-100 -79h-79l123 173h111l123 -173h-79zM546 700h131.999v-415c0 -95.333 -27.167 -168.333 -81.5 -219s-127.166 -76 -218.499 -76s-164.166 25.333 -218.499 76s-81.5 123.667 -81.5 219v415h132v-430c0 -58.667 13.167 -100 39.5 -124
s69.166 -36 128.499 -36c60 0 103 12 129 36s39 65.333 39 124v430z" />
    <glyph glyph-name="Udieresis" unicode="&#xdc;" horiz-adv-x="756" 
d="M256 767c-26.667 0 -47.167 7.00098 -61.5 21.001s-21.5 34 -21.5 60c0 52 27.667 78 83 78c26.667 0 47.167 -6.83301 61.5 -20.5s21.5 -32.834 21.5 -57.501c0 -26 -7.16699 -46 -21.5 -60s-34.833 -21 -61.5 -21zM494 767.001c-26 0 -46.165 6.99902 -60.498 20.999
s-21.5 34 -21.5 60c-0.666992 24.667 6.16602 43.834 20.499 57.501s34.833 20.5 61.5 20.5c54.667 0 82.667 -26 84 -78c0 -26 -7.33301 -46 -22 -60s-35.334 -21 -62.001 -21zM546.002 700h131.999v-415c0 -95.333 -27.167 -168.333 -81.5 -219s-127.166 -76 -218.499 -76
s-164.166 25.333 -218.499 76s-81.5 123.667 -81.5 219v415h132v-430c0 -58.667 13.167 -100 39.5 -124s69.166 -36 128.499 -36c60 0 103 12 129 36s39 65.333 39 124v430z" />
    <glyph glyph-name="Yacute" unicode="&#xdd;" horiz-adv-x="661" 
d="M521 933l-172 -173h-70l61 173h181zM496 700h153l-251 -421v-279h-132v277l-254 423h153l166 -298z" />
    <glyph glyph-name="Thorn" unicode="&#xde;" horiz-adv-x="620" 
d="M352 563c82 0 143.833 -18.834 185.5 -56.501s62.5 -88.5 62.5 -152.5c0 -65.333 -20.833 -117.666 -62.5 -156.999s-103.5 -59 -185.5 -59h-136v-138h-131v700h131v-137h136zM361 253.999c38 0 65.167 7.49902 81.5 22.499s24.5 39.833 24.5 74.5
c0 32.667 -8.33301 56.834 -25 72.501s-43.667 23.5 -81 23.5h-145v-193h145z" />
    <glyph glyph-name="germandbls" unicode="&#xdf;" horiz-adv-x="607" 
d="M384 360c69.333 -8 120.832 -27.498 154.499 -58.498s50.5 -70.833 50.5 -119.5c0 -60.667 -21.833 -107.834 -65.5 -141.501s-99.5 -50.5 -167.5 -50.5c-20.667 0 -47 2.66699 -79 8v116c24 -6 46.333 -9 67 -9c36.667 0 65.334 8.16699 86.001 24.5
s31 39.166 31 68.499c0 64 -56 96 -168 96v105c40.667 2.66699 72 14.167 94 34.5s33 45.833 33 76.5c0 58.667 -34.333 88 -103 88c-78.667 0 -118 -36.667 -118 -110v-488h-127v499c0 66.667 22 118.5 66 155.5s102.667 55.5 176 55.5c70.667 0 127 -18 169 -54
s63 -80.667 63 -134c0 -39.333 -13 -74 -39 -104s-67 -49.333 -123 -58z" />
    <glyph glyph-name="agrave" unicode="&#xe0;" horiz-adv-x="627" 
d="M392 560h-71l-171 173h181zM429 490h127v-490h-127v107c-31.333 -78 -88 -117 -170 -117c-69.333 0 -123.833 23.167 -163.5 69.5s-59.5 107.833 -59.5 184.5c0 78 19.167 140.167 57.5 186.5s91.5 69.5 159.5 69.5c85.333 0 144 -40 176 -120v110zM297 105
c46.667 0 81 11.333 103 34s33 57.667 33 105c0 48 -11 83.5 -33 106.5s-56.333 34.5 -103 34.5c-88.667 0 -133 -47 -133 -141c0 -92.667 44.333 -139 133 -139z" />
    <glyph glyph-name="aacute" unicode="&#xe1;" horiz-adv-x="627" 
d="M503 733l-172 -173h-70l61 173h181zM429 490h127v-490h-127v107c-31.333 -78 -88 -117 -170 -117c-69.333 0 -123.833 23.167 -163.5 69.5s-59.5 107.833 -59.5 184.5c0 78 19.167 140.167 57.5 186.5s91.5 69.5 159.5 69.5c85.333 0 144 -40 176 -120v110zM297 105
c46.667 0 81 11.333 103 34s33 57.667 33 105c0 48 -11 83.5 -33 106.5s-56.333 34.5 -103 34.5c-88.667 0 -133 -47 -133 -141c0 -92.667 44.333 -139 133 -139z" />
    <glyph glyph-name="acircumflex" unicode="&#xe2;" horiz-adv-x="627" 
d="M314 639l-100 -79h-79l123 173h111l123 -173h-79zM429 490h127v-490h-127v107c-31.333 -78 -88 -117 -170 -117c-69.333 0 -123.833 23.167 -163.5 69.5s-59.5 107.833 -59.5 184.5c0 78 19.167 140.167 57.5 186.5s91.5 69.5 159.5 69.5c85.333 0 144 -40 176 -120v110z
M297 105c46.667 0 81 11.333 103 34s33 57.667 33 105c0 48 -11 83.5 -33 106.5s-56.333 34.5 -103 34.5c-88.667 0 -133 -47 -133 -141c0 -92.667 44.333 -139 133 -139z" />
    <glyph glyph-name="atilde" unicode="&#xe3;" horiz-adv-x="627" 
d="M235 624c-17.333 0 -25.999 -18.668 -25.999 -56.001h-59c0 56 6.5 95.5 19.5 118.5s34.833 34.5 65.5 34.5c17.333 0 34.166 -3.66699 50.499 -11s29.5 -15.5 39.5 -24.5s21 -17.167 33 -24.5s22.667 -11 32 -11c18.667 0 28 18.667 28 56h58
c0 -54.667 -6.16699 -93.667 -18.5 -117s-33.833 -35 -64.5 -35c-22 0 -43.167 5.83301 -63.5 17.5s-38.333 23.334 -54 35.001s-29.167 17.5 -40.5 17.5zM429.001 489.999h127v-490h-127v107c-31.333 -78 -88 -117 -170 -117c-69.333 0 -123.833 23.167 -163.5 69.5
s-59.5 107.833 -59.5 184.5c0 78 19.167 140.167 57.5 186.5s91.5 69.5 159.5 69.5c85.333 0 144 -40 176 -120v110zM297.001 104.999c46.667 0 81 11.333 103 34s33 57.667 33 105c0 48 -11 83.5 -33 106.5s-56.333 34.5 -103 34.5c-88.667 0 -133 -47 -133 -141
c0 -92.667 44.333 -139 133 -139z" />
    <glyph glyph-name="adieresis" unicode="&#xe4;" horiz-adv-x="627" 
d="M200 572c-54 0 -81.6689 27 -83.002 81c0 24.667 7.16699 43.834 21.5 57.501s34.833 20.5 61.5 20.5s47.167 -6.83301 61.5 -20.5s21.5 -32.834 21.5 -57.501c0.666992 -26 -6.16602 -46 -20.499 -60s-35.166 -21 -62.499 -21zM424.998 572
c-54 0 -81.6689 27 -83.002 81c0 24.667 7.16699 43.834 21.5 57.501s34.833 20.5 61.5 20.5s47.167 -6.83301 61.5 -20.5s21.5 -32.834 21.5 -57.501c0.666992 -26 -6.16602 -46 -20.499 -60s-35.166 -21 -62.499 -21zM428.996 490h127v-490h-127v107
c-31.333 -78 -88 -117 -170 -117c-69.333 0 -123.833 23.167 -163.5 69.5s-59.5 107.833 -59.5 184.5c0 78 19.167 140.167 57.5 186.5s91.5 69.5 159.5 69.5c85.333 0 144 -40 176 -120v110zM296.996 105c46.667 0 81 11.333 103 34s33 57.667 33 105
c0 48 -11 83.5 -33 106.5s-56.333 34.5 -103 34.5c-88.667 0 -133 -47 -133 -141c0 -92.667 44.333 -139 133 -139z" />
    <glyph glyph-name="aring" unicode="&#xe5;" horiz-adv-x="627" 
d="M313 545c-37.333 0 -68 11.167 -92 33.5s-36 50.833 -36 85.5c0 35.333 12 64 36 86s54.667 33 92 33s68 -11 92 -33s36 -50.667 36 -86c0 -34.667 -12 -63.167 -36 -85.5s-54.667 -33.5 -92 -33.5zM314 709c-17.333 0 -29.5 -3.33301 -36.5 -10
s-10.5 -18.334 -10.5 -35.001c0 -16 3.66699 -27.5 11 -34.5s19.333 -10.5 36 -10.5s28.334 3.5 35.001 10.5s10 18.5 10 34.5c0 16.667 -3.33301 28.334 -10 35.001s-18.334 10 -35.001 10zM429 490h127v-490h-127v107c-31.333 -78 -88 -117 -170 -117
c-69.333 0 -123.833 23.167 -163.5 69.5s-59.5 107.833 -59.5 184.5c0 78 19.167 140.167 57.5 186.5s91.5 69.5 159.5 69.5c85.333 0 144 -40 176 -120v110zM297 105c46.667 0 81 11.333 103 34s33 57.667 33 105c0 48 -11 83.5 -33 106.5s-56.333 34.5 -103 34.5
c-88.667 0 -133 -47 -133 -141c0 -92.667 44.333 -139 133 -139z" />
    <glyph glyph-name="ae" unicode="&#xe6;" horiz-adv-x="885" 
d="M848 252c0 -18 -0.334961 -33.667 -1.00195 -47h-348c4 -40.667 15.5 -70.167 34.5 -88.5s47.833 -27.5 86.5 -27.5c28.667 0 50.667 5 66 15s29 28 41 54l110 -40c-33.333 -85.333 -106.666 -128 -219.999 -128c-51.333 0 -96.333 11 -135 33s-67.667 53 -87 93
c-24.667 -84 -86.667 -126 -186 -126c-50.667 0 -91.167 12.5 -121.5 37.5s-45.5 58.167 -45.5 99.5c0 101.333 81.667 152 245 152h80v32c0 30 -7.16699 51.833 -21.5 65.5s-37.5 20.5 -69.5 20.5c-66 0 -99 -33.667 -99 -101l-114 23
c-1.33301 49.333 17.334 91.833 56.001 127.5s91.334 53.5 158.001 53.5c75.333 0 132 -20 170 -60c45.333 40 100.666 60 165.999 60c70.667 0 127.5 -22.5 170.5 -67.5s64.5 -105.167 64.5 -180.5zM613.998 404c-37.333 0 -65.1689 -9.83301 -83.502 -29.5
s-29.166 -50.834 -32.499 -93.501h224c0.666992 44.667 -7.66602 76.334 -24.999 95.001s-45 28 -83 28zM242.995 81c34 0 63.167 11.001 87.5 33.001s36.5 52.333 36.5 91h-71c-38 0 -68.5 -5.83301 -91.5 -17.5s-34.5 -28.834 -34.5 -51.501c0 -36.667 24.333 -55 73 -55z
" />
    <glyph glyph-name="ccedilla" unicode="&#xe7;" horiz-adv-x="575" 
d="M294 105c35.333 0 62.166 7.99902 80.499 23.999s31.5 44.333 39.5 85l125 -30c-15.333 -63.333 -43 -110.666 -83 -141.999s-88 -48.666 -144 -51.999l-27 -45c32.667 -2 57.667 -10.833 75 -26.5s26 -35.834 26 -60.501c0 -28.667 -11.333 -52.167 -34 -70.5
s-51 -27.5 -85 -27.5c-28.667 0 -54.167 6.16699 -76.5 18.5s-37.833 29.166 -46.5 50.499l61 45c8 -32.667 28 -49 60 -49c11.333 0 20.666 2.83301 27.999 8.5s11 13.5 11 23.5c0 12.667 -9 24.334 -27 35.001s-41.333 18.667 -70 24l47 76
c-66 8.66699 -118.833 35.667 -158.5 81s-59.5 102.333 -59.5 171c0 76.667 23.833 138.5 71.5 185.5s109.834 70.5 186.501 70.5c62 0 114.5 -16.167 157.5 -48.5s72.167 -80.833 87.5 -145.5l-125 -30c-7.33301 40.667 -20.166 69 -38.499 85s-45.5 24 -81.5 24
c-44.667 0 -77.5 -11.5 -98.5 -34.5s-31.5 -58.5 -31.5 -106.5c0 -47.333 10.5 -82.333 31.5 -105s53.833 -34 98.5 -34z" />
    <glyph glyph-name="egrave" unicode="&#xe8;" horiz-adv-x="554" 
d="M353 560h-70l-172 173h181zM517 252c0 -18 -0.334961 -33.668 -1.00195 -47.001h-348c4 -40.667 15.5 -70.167 34.5 -88.5s47.833 -27.5 86.5 -27.5c28.667 0 50.667 5 66 15s29 28 41 54l110 -40c-33.333 -85.333 -106.666 -128 -219.999 -128
c-75.333 0 -135.833 23 -181.5 69s-68.5 107 -68.5 183c0 76.667 22.833 138.834 68.5 186.501s104.834 71.5 177.501 71.5c70.667 0 127.5 -22.5 170.5 -67.5s64.5 -105.167 64.5 -180.5zM282.998 403.999c-35.333 0 -62.167 -8.83301 -80.5 -26.5
s-29.833 -46.167 -34.5 -85.5h223c-0.666992 40.667 -9.66699 69.5 -27 86.5s-44.333 25.5 -81 25.5z" />
    <glyph glyph-name="eacute" unicode="&#xe9;" horiz-adv-x="554" 
d="M471 733l-172 -173h-70l61 173h181zM517 252c0 -18 -0.334961 -33.668 -1.00195 -47.001h-348c4 -40.667 15.5 -70.167 34.5 -88.5s47.833 -27.5 86.5 -27.5c28.667 0 50.667 5 66 15s29 28 41 54l110 -40c-33.333 -85.333 -106.666 -128 -219.999 -128
c-75.333 0 -135.833 23 -181.5 69s-68.5 107 -68.5 183c0 76.667 22.833 138.834 68.5 186.501s104.834 71.5 177.501 71.5c70.667 0 127.5 -22.5 170.5 -67.5s64.5 -105.167 64.5 -180.5zM282.998 403.999c-35.333 0 -62.167 -8.83301 -80.5 -26.5
s-29.833 -46.167 -34.5 -85.5h223c-0.666992 40.667 -9.66699 69.5 -27 86.5s-44.333 25.5 -81 25.5z" />
    <glyph glyph-name="ecircumflex" unicode="&#xea;" horiz-adv-x="554" 
d="M282 639l-100 -79h-79l123 173h111l123 -173h-79zM517 252c0 -18 -0.334961 -33.668 -1.00195 -47.001h-348c4 -40.667 15.5 -70.167 34.5 -88.5s47.833 -27.5 86.5 -27.5c28.667 0 50.667 5 66 15s29 28 41 54l110 -40c-33.333 -85.333 -106.666 -128 -219.999 -128
c-75.333 0 -135.833 23 -181.5 69s-68.5 107 -68.5 183c0 76.667 22.833 138.834 68.5 186.501s104.834 71.5 177.501 71.5c70.667 0 127.5 -22.5 170.5 -67.5s64.5 -105.167 64.5 -180.5zM282.998 403.999c-35.333 0 -62.167 -8.83301 -80.5 -26.5
s-29.833 -46.167 -34.5 -85.5h223c-0.666992 40.667 -9.66699 69.5 -27 86.5s-44.333 25.5 -81 25.5z" />
    <glyph glyph-name="edieresis" unicode="&#xeb;" horiz-adv-x="554" 
d="M168 572c-54 0 -81.6689 27 -83.002 81c0 24.667 7.16699 43.834 21.5 57.501s34.833 20.5 61.5 20.5s47.167 -6.83301 61.5 -20.5s21.5 -32.834 21.5 -57.501c0.666992 -26 -6.16602 -46 -20.499 -60s-35.166 -21 -62.499 -21zM392.998 572
c-54 0 -81.6689 27 -83.002 81c0 24.667 7.16699 43.834 21.5 57.501s34.833 20.5 61.5 20.5s47.167 -6.83301 61.5 -20.5s21.5 -32.834 21.5 -57.501c0.666992 -26 -6.16602 -46 -20.499 -60s-35.166 -21 -62.499 -21zM516.996 252
c0 -18 -0.334961 -33.668 -1.00195 -47.001h-348c4 -40.667 15.5 -70.167 34.5 -88.5s47.833 -27.5 86.5 -27.5c28.667 0 50.667 5 66 15s29 28 41 54l110 -40c-33.333 -85.333 -106.666 -128 -219.999 -128c-75.333 0 -135.833 23 -181.5 69s-68.5 107 -68.5 183
c0 76.667 22.833 138.834 68.5 186.501s104.834 71.5 177.501 71.5c70.667 0 127.5 -22.5 170.5 -67.5s64.5 -105.167 64.5 -180.5zM282.994 403.999c-35.333 0 -62.167 -8.83301 -80.5 -26.5s-29.833 -46.167 -34.5 -85.5h223c-0.666992 40.667 -9.66699 69.5 -27 86.5
s-44.333 25.5 -81 25.5z" />
    <glyph glyph-name="igrave" unicode="&#xec;" horiz-adv-x="271" 
d="M-72 733h182l60 -173h-70zM199 0h-127v490h127v-490z" />
    <glyph glyph-name="iacute" unicode="&#xed;" horiz-adv-x="270" 
d="M342 733l-172 -173h-70l61 173h181zM72 0v490h127v-490h-127z" />
    <glyph glyph-name="icircumflex" unicode="&#xee;" horiz-adv-x="270" 
d="M191 733l123 -173h-79l-99 79l-100 -79h-79l123 173h111zM72 0v490h127v-490h-127z" />
    <glyph glyph-name="idieresis" unicode="&#xef;" horiz-adv-x="270" 
d="M22 572c-54 0 -81.6689 27 -83.002 81c0 24.667 7.16699 43.834 21.5 57.501s34.833 20.5 61.5 20.5s47.167 -6.83301 61.5 -20.5s21.5 -32.834 21.5 -57.501c0.666992 -26 -6.16602 -46 -20.499 -60s-35.166 -21 -62.499 -21zM246.998 572c-54 0 -81.6689 27 -83.002 81
c0 24.667 7.16699 43.834 21.5 57.501s34.833 20.5 61.5 20.5s47.167 -6.83301 61.5 -20.5s21.5 -32.834 21.5 -57.501c0.666992 -26 -6.16602 -46 -20.499 -60s-35.166 -21 -62.499 -21zM71.9961 0v490h127v-490h-127z" />
    <glyph glyph-name="eth" unicode="&#xf0;" horiz-adv-x="598" 
d="M398 606c109.333 -98.667 164 -212.333 164 -341c0 -82.667 -24.667 -149.167 -74 -199.5s-112.666 -75.5 -189.999 -75.5c-74.667 0 -137 23.5 -187 70.5s-75 110.167 -75 189.5c0 73.333 21.5 133.333 64.5 180s100.5 70 172.5 70c70 0 127.667 -31.333 173 -94
c-30.667 62 -85.334 115.333 -164.001 160l-154 -52l-22 63l92 31c-11.333 5.33301 -27.333 12.5 -48 21.5l-42 18.5l81 101c58 -32 107 -63 147 -93l118 40l22 -64zM299 105.001c46 0 80 11.167 102 33.5s33 57.5 33 105.5c0 48.667 -11 84.334 -33 107.001s-56 34 -102 34
s-80 -11.333 -102 -34s-33 -58.334 -33 -107.001c0 -48 11 -83.167 33 -105.5s56 -33.5 102 -33.5z" />
    <glyph glyph-name="ntilde" unicode="&#xf1;" horiz-adv-x="602" 
d="M232 624c-17.333 0 -25.999 -18.668 -25.999 -56.001h-59c0 56 6.5 95.5 19.5 118.5s34.833 34.5 65.5 34.5c17.333 0 34.166 -3.66699 50.499 -11s29.5 -15.5 39.5 -24.5s21 -17.167 33 -24.5s22.667 -11 32 -11c18.667 0 28 18.667 28 56h58
c0 -54.667 -6.16699 -93.667 -18.5 -117s-33.833 -35 -64.5 -35c-22 0 -43.167 5.83301 -63.5 17.5s-38.333 23.334 -54 35.001s-29.167 17.5 -40.5 17.5zM361.001 499.999c116.667 0 175 -69 175 -207v-293h-127v286c0 66 -31.667 99 -95 99
c-36 0 -64.167 -12.833 -84.5 -38.5s-30.5 -63.167 -30.5 -112.5v-234h-127v490h127v-114c25.333 82.667 79.333 124 162 124z" />
    <glyph glyph-name="ograve" unicode="&#xf2;" horiz-adv-x="597" 
d="M120 733h182l60 -173h-70zM299 500c73.333 0 135.333 -23.5 186 -70.5s76 -108.833 76 -185.5c0 -76 -25.333 -137.333 -76 -184s-112.667 -70 -186 -70c-74 0 -136.333 23.333 -187 70s-76 108 -76 184c0 76.667 25.333 138.5 76 185.5s113 70.5 187 70.5zM299 105
c89.333 0 134 46.333 134 139c0 48 -11 83.5 -33 106.5s-55.667 34.5 -101 34.5c-46 0 -80 -11.5 -102 -34.5s-33 -58.5 -33 -106.5c0 -92.667 45 -139 135 -139z" />
    <glyph glyph-name="oacute" unicode="&#xf3;" horiz-adv-x="597" 
d="M489 733l-172 -173h-70l61 173h181zM299 500c73.333 0 135.333 -23.5 186 -70.5s76 -108.833 76 -185.5c0 -76 -25.333 -137.333 -76 -184s-112.667 -70 -186 -70c-74 0 -136.333 23.333 -187 70s-76 108 -76 184c0 76.667 25.333 138.5 76 185.5s113 70.5 187 70.5z
M299 105c89.333 0 134 46.333 134 139c0 48 -11 83.5 -33 106.5s-55.667 34.5 -101 34.5c-46 0 -80 -11.5 -102 -34.5s-33 -58.5 -33 -106.5c0 -92.667 45 -139 135 -139z" />
    <glyph glyph-name="ocircumflex" unicode="&#xf4;" horiz-adv-x="597" 
d="M300 639l-100 -79h-79l123 173h111l123 -173h-79zM299 500c73.333 0 135.333 -23.5 186 -70.5s76 -108.833 76 -185.5c0 -76 -25.333 -137.333 -76 -184s-112.667 -70 -186 -70c-74 0 -136.333 23.333 -187 70s-76 108 -76 184c0 76.667 25.333 138.5 76 185.5
s113 70.5 187 70.5zM299 105c89.333 0 134 46.333 134 139c0 48 -11 83.5 -33 106.5s-55.667 34.5 -101 34.5c-46 0 -80 -11.5 -102 -34.5s-33 -58.5 -33 -106.5c0 -92.667 45 -139 135 -139z" />
    <glyph glyph-name="otilde" unicode="&#xf5;" horiz-adv-x="597" 
d="M382 554c-22 0 -43.166 5.83203 -63.499 17.499s-38.333 23.334 -54 35.001s-29.167 17.5 -40.5 17.5c-17.333 0 -26 -18.667 -26 -56h-59c0 56 6.5 95.5 19.5 118.5s34.833 34.5 65.5 34.5c17.333 0 34.166 -3.66699 50.499 -11s29.5 -15.5 39.5 -24.5
s21 -17.167 33 -24.5s22.667 -11 32 -11c18.667 0 28 18.667 28 56h58c0 -54.667 -6.16699 -93.667 -18.5 -117s-33.833 -35 -64.5 -35zM299.001 499.999c73.333 0 135.333 -23.5 186 -70.5s76 -108.833 76 -185.5c0 -76 -25.333 -137.333 -76 -184s-112.667 -70 -186 -70
c-74 0 -136.333 23.333 -187 70s-76 108 -76 184c0 76.667 25.333 138.5 76 185.5s113 70.5 187 70.5zM299.001 104.999c89.333 0 134 46.333 134 139c0 48 -11 83.5 -33 106.5s-55.667 34.5 -101 34.5c-46 0 -80 -11.5 -102 -34.5s-33 -58.5 -33 -106.5
c0 -92.667 45 -139 135 -139z" />
    <glyph glyph-name="odieresis" unicode="&#xf6;" horiz-adv-x="597" 
d="M186 572c-54 0 -81.6689 27 -83.002 81c0 24.667 7.16699 43.834 21.5 57.501s34.833 20.5 61.5 20.5s47.167 -6.83301 61.5 -20.5s21.5 -32.834 21.5 -57.501c0.666992 -26 -6.16602 -46 -20.499 -60s-35.166 -21 -62.499 -21zM410.998 572
c-54 0 -81.6689 27 -83.002 81c0 24.667 7.16699 43.834 21.5 57.501s34.833 20.5 61.5 20.5s47.167 -6.83301 61.5 -20.5s21.5 -32.834 21.5 -57.501c0.666992 -26 -6.16602 -46 -20.499 -60s-35.166 -21 -62.499 -21zM298.996 500c73.333 0 135.333 -23.5 186 -70.5
s76 -108.833 76 -185.5c0 -76 -25.333 -137.333 -76 -184s-112.667 -70 -186 -70c-74 0 -136.333 23.333 -187 70s-76 108 -76 184c0 76.667 25.333 138.5 76 185.5s113 70.5 187 70.5zM298.996 105c89.333 0 134 46.333 134 139c0 48 -11 83.5 -33 106.5
s-55.667 34.5 -101 34.5c-46 0 -80 -11.5 -102 -34.5s-33 -58.5 -33 -106.5c0 -92.667 45 -139 135 -139z" />
    <glyph glyph-name="divide" unicode="&#xf7;" 
d="M301 406c-27.333 0 -48.332 7.16699 -62.999 21.5s-22 34.833 -22 61.5c1.33301 54 29.666 81 84.999 81c26.667 0 47.334 -7 62.001 -21s22 -34 22 -60c0 -26.667 -7.33301 -47.167 -22 -61.5s-35.334 -21.5 -62.001 -21.5zM53.001 236v105h495v-105h-495zM301.001 10
c-27.333 0 -48.332 7.16699 -62.999 21.5s-22 34.833 -22 61.5c1.33301 54 29.666 81 84.999 81c26.667 0 47.334 -7 62.001 -21s22 -34 22 -60c0 -26.667 -7.33301 -47.167 -22 -61.5s-35.334 -21.5 -62.001 -21.5z" />
    <glyph glyph-name="oslash" unicode="&#xf8;" horiz-adv-x="597" 
d="M496 418c43.333 -46.667 65 -104.667 65 -174c0 -76 -25.333 -137.333 -76 -184s-112.667 -70 -186 -70c-48 0 -91 10 -129 30l-44 -60l-72 64l45 49c-42 46 -63 103 -63 171c0 76.667 25.333 138.5 76 185.5s113 70.5 187 70.5c47.333 0 90 -10 128 -30l42 57l71 -61z
M164 244c0 -34.667 5.66699 -62 17 -82l98 107l79 108c-18 5.33301 -37.667 8 -59 8c-46 0 -80 -11.5 -102 -34.5s-33 -58.5 -33 -106.5zM299 105c89.333 0 134 46.333 134 139c0 34.667 -6 63 -18 85l-90 -99l-86 -117c18 -5.33301 38 -8 60 -8z" />
    <glyph glyph-name="ugrave" unicode="&#xf9;" horiz-adv-x="603" 
d="M350 560h-70l-172 173h181zM404 490h126.999v-490h-127v115c-25.333 -83.333 -79.666 -125 -162.999 -125c-116 0 -174 69 -174 207v293h127v-286c0 -66 31.333 -99 94 -99c36 0 64.333 12.833 85 38.5s31 63.167 31 112.5v234z" />
    <glyph glyph-name="uacute" unicode="&#xfa;" horiz-adv-x="603" 
d="M488 733l-172 -173h-70l61 173h181zM404 490h126.999v-490h-127v115c-25.333 -83.333 -79.666 -125 -162.999 -125c-116 0 -174 69 -174 207v293h127v-286c0 -66 31.333 -99 94 -99c36 0 64.333 12.833 85 38.5s31 63.167 31 112.5v234z" />
    <glyph glyph-name="ucircumflex" unicode="&#xfb;" horiz-adv-x="603" 
d="M299 639l-100 -79h-79l123 173h111l123 -173h-79zM404 490h126.999v-490h-127v115c-25.333 -83.333 -79.666 -125 -162.999 -125c-116 0 -174 69 -174 207v293h127v-286c0 -66 31.333 -99 94 -99c36 0 64.333 12.833 85 38.5s31 63.167 31 112.5v234z" />
    <glyph glyph-name="udieresis" unicode="&#xfc;" horiz-adv-x="603" 
d="M185 572c-54 0 -81.6689 27 -83.002 81c0 24.667 7.16699 43.834 21.5 57.501s34.833 20.5 61.5 20.5s47.167 -6.83301 61.5 -20.5s21.5 -32.834 21.5 -57.501c0.666992 -26 -6.16602 -46 -20.499 -60s-35.166 -21 -62.499 -21zM409.998 572
c-54 0 -81.6689 27 -83.002 81c0 24.667 7.16699 43.834 21.5 57.501s34.833 20.5 61.5 20.5s47.167 -6.83301 61.5 -20.5s21.5 -32.834 21.5 -57.501c0.666992 -26 -6.16602 -46 -20.499 -60s-35.166 -21 -62.499 -21zM403.996 490h126.999v-490h-127v115
c-25.333 -83.333 -79.666 -125 -162.999 -125c-116 0 -174 69 -174 207v293h127v-286c0 -66 31.333 -99 94 -99c36 0 64.333 12.833 85 38.5s31 63.167 31 112.5v234z" />
    <glyph glyph-name="yacute" unicode="&#xfd;" horiz-adv-x="548" 
d="M471 733l-172 -173h-70l61 173h181zM399 490h138l-208 -544c-15.333 -40.667 -36.5 -70.167 -63.5 -88.5s-66.167 -27.5 -117.5 -27.5h-102v112h170l-205 548h138l94 -290l29 -109l32 109z" />
    <glyph glyph-name="thorn" unicode="&#xfe;" horiz-adv-x="627" 
d="M375 500c67.333 0 120.167 -23.167 158.5 -69.5s57.5 -108.5 57.5 -186.5c0 -76.667 -19.833 -138.167 -59.5 -184.5s-94.167 -69.5 -163.5 -69.5c-80.667 0 -137 38.333 -169 115v-275h-127v870h127v-318c32 78.667 90.667 118 176 118zM330.001 105
c45.333 0 78.833 11.333 100.5 34s32.5 57.667 32.5 105c0 48 -10.833 83.5 -32.5 106.5s-55.167 34.5 -100.5 34.5c-46.667 0 -81 -11.5 -103 -34.5s-33 -58.5 -33 -106.5c0 -47.333 11 -82.333 33 -105s56.333 -34 103 -34z" />
    <glyph glyph-name="ydieresis" unicode="&#xff;" horiz-adv-x="548" 
d="M168 572c-54 0 -81.6689 27 -83.002 81c0 24.667 7.16699 43.834 21.5 57.501s34.833 20.5 61.5 20.5s47.167 -6.83301 61.5 -20.5s21.5 -32.834 21.5 -57.501c0.666992 -26 -6.16602 -46 -20.499 -60s-35.166 -21 -62.499 -21zM392.998 572
c-54 0 -81.6689 27 -83.002 81c0 24.667 7.16699 43.834 21.5 57.501s34.833 20.5 61.5 20.5s47.167 -6.83301 61.5 -20.5s21.5 -32.834 21.5 -57.501c0.666992 -26 -6.16602 -46 -20.499 -60s-35.166 -21 -62.499 -21zM398.996 490h138l-208 -544
c-15.333 -40.667 -36.5 -70.167 -63.5 -88.5s-66.167 -27.5 -117.5 -27.5h-102v112h170l-205 548h138l94 -290l29 -109l32 109z" />
    <glyph glyph-name="Amacron" unicode="&#x100;" horiz-adv-x="723" 
d="M511 874v-91h-300v91h300zM570 0l-60 167h-297l-60 -167h-141l258 700h185l256 -700h-141zM255 284h213l-67 186l-39 123l-41 -123z" />
    <glyph glyph-name="amacron" unicode="&#x101;" horiz-adv-x="627" 
d="M463 684v-91h-300v91h300zM429 490h127v-490h-127v107c-31.333 -78 -88 -117 -170 -117c-69.333 0 -123.833 23.167 -163.5 69.5s-59.5 107.833 -59.5 184.5c0 78 19.167 140.167 57.5 186.5s91.5 69.5 159.5 69.5c85.333 0 144 -40 176 -120v110zM297 105
c46.667 0 81 11.333 103 34s33 57.667 33 105c0 48 -11 83.5 -33 106.5s-56.333 34.5 -103 34.5c-88.667 0 -133 -47 -133 -141c0 -92.667 44.333 -139 133 -139z" />
    <glyph glyph-name="Abreve" unicode="&#x102;" horiz-adv-x="723" 
d="M360 765c-48 0 -86.834 14.333 -116.501 43s-45.167 66.334 -46.5 113.001h104c0 -26 4.33301 -44 13 -54s24 -15 46 -15c23.333 0 39.5 5 48.5 15s13.5 28 13.5 54h104c-1.33301 -46.667 -17.166 -84.334 -47.499 -113.001s-69.833 -43 -118.5 -43zM569.999 0l-60 167
h-297l-60 -167h-141l258 700h185l256 -700h-141zM254.999 284h213l-67 186l-39 123l-41 -123z" />
    <glyph glyph-name="abreve" unicode="&#x103;" horiz-adv-x="627" 
d="M312 560c-48 0 -86.834 14.166 -116.501 42.499s-45.167 65.833 -46.5 112.5h104c0 -25.333 4.33301 -43.166 13 -53.499s24 -15.5 46 -15.5c23.333 0 39.5 5 48.5 15s13.5 28 13.5 54h104c-1.33301 -46.667 -17.166 -84.167 -47.499 -112.5s-69.833 -42.5 -118.5 -42.5z
M428.999 489.999h127v-490h-127v107c-31.333 -78 -88 -117 -170 -117c-69.333 0 -123.833 23.167 -163.5 69.5s-59.5 107.833 -59.5 184.5c0 78 19.167 140.167 57.5 186.5s91.5 69.5 159.5 69.5c85.333 0 144 -40 176 -120v110zM296.999 104.999c46.667 0 81 11.333 103 34
s33 57.667 33 105c0 48 -11 83.5 -33 106.5s-56.333 34.5 -103 34.5c-88.667 0 -133 -47 -133 -141c0 -92.667 44.333 -139 133 -139z" />
    <glyph glyph-name="Aogonek" unicode="&#x104;" horiz-adv-x="723" 
d="M571 -58c0 -22.667 14 -34 42 -34c20.667 0 38.334 3 53.001 9v-77c-24.667 -6.66699 -50.334 -10 -77.001 -10c-37.333 0 -65.833 8.16699 -85.5 24.5s-29.5 36.5 -29.5 60.5c0 42.667 30.667 75 92 97l-56 155h-297l-60 -167h-141l258 700h185l256 -700h-99
c-27.333 -22 -41 -41.333 -41 -58zM255 284h213l-67 186l-39 123l-41 -123z" />
    <glyph glyph-name="aogonek" unicode="&#x105;" horiz-adv-x="627" 
d="M522 0c-25.333 -18.667 -43 -33.334 -53 -44.001s-15 -22 -15 -34c0 -22.667 14 -34 42 -34c20 0 37.667 3 53 9v-77c-25.333 -6.66699 -51 -10 -77 -10c-37.333 0 -65.833 8.16699 -85.5 24.5s-29.5 36.5 -29.5 60.5c0 22 9.5 42.333 28.5 61s47.833 33.334 86.5 44.001
h-43v107c-31.333 -78 -88 -117 -170 -117c-69.333 0 -123.833 23.167 -163.5 69.5s-59.5 107.833 -59.5 184.5c0 78 19.167 140.167 57.5 186.5s91.5 69.5 159.5 69.5c85.333 0 144 -40 176 -120v110h127v-490h-34zM297 105c46.667 0 81 11.333 103 34s33 57.667 33 105
c0 48 -11 83.5 -33 106.5s-56.333 34.5 -103 34.5c-88.667 0 -133 -47 -133 -141c0 -92.667 44.333 -139 133 -139z" />
    <glyph glyph-name="Cacute" unicode="&#x106;" horiz-adv-x="781" 
d="M600 933l-172 -173h-70l61 173h181zM402 110c64 0 113 15.167 147 45.5s56.333 79.833 67 148.5l132 -28c-16 -90.667 -55.167 -161 -117.5 -211s-138.5 -75 -228.5 -75c-102 0 -187.833 33.833 -257.5 101.5s-104.5 153.834 -104.5 258.501
c0 105.333 34.833 191.666 104.5 258.999s155.5 101 257.5 101c90 0 166.167 -25 228.5 -75s101.5 -120.333 117.5 -211l-132 -28c-10.667 68.667 -33 118.167 -67 148.5s-83 45.5 -147 45.5c-150 0 -225 -79.667 -225 -239c0 -160.667 75 -241 225 -241z" />
    <glyph glyph-name="cacute" unicode="&#x107;" horiz-adv-x="575" 
d="M491 733l-172 -173h-70l61 173h181zM294 105c35.333 0 62.166 8 80.499 24s31.5 44.333 39.5 85l125 -30c-16 -66 -45.667 -114.833 -89 -146.5s-95.333 -47.5 -156 -47.5c-76.667 0 -138.834 23.333 -186.501 70s-71.5 108 -71.5 184c0 76.667 23.833 138.5 71.5 185.5
s109.834 70.5 186.501 70.5c62 0 114.5 -16.167 157.5 -48.5s72.167 -80.833 87.5 -145.5l-125 -30c-7.33301 40.667 -20.166 69 -38.499 85s-45.5 24 -81.5 24c-44.667 0 -77.5 -11.5 -98.5 -34.5s-31.5 -58.5 -31.5 -106.5c0 -47.333 10.5 -82.333 31.5 -105
s53.833 -34 98.5 -34z" />
    <glyph glyph-name="Cdotaccent" unicode="&#x10a;" horiz-adv-x="781" 
d="M410 768c-26.667 0 -47.167 7.00098 -61.5 21.001s-21.5 34 -21.5 60c0 52 27.667 78 83 78c26.667 0 47.167 -6.83301 61.5 -20.5s21.5 -32.834 21.5 -57.501c0 -26 -7.16699 -46 -21.5 -60s-34.833 -21 -61.5 -21zM402 110.001c64 0 113 15.167 147 45.5
s56.333 79.833 67 148.5l132 -28c-16 -90.667 -55.167 -161 -117.5 -211s-138.5 -75 -228.5 -75c-102 0 -187.833 33.833 -257.5 101.5s-104.5 153.834 -104.5 258.501c0 105.333 34.833 191.666 104.5 258.999s155.5 101 257.5 101c90 0 166.167 -25 228.5 -75
s101.5 -120.333 117.5 -211l-132 -28c-10.667 68.667 -33 118.167 -67 148.5s-83 45.5 -147 45.5c-150 0 -225 -79.667 -225 -239c0 -160.667 75 -241 225 -241z" />
    <glyph glyph-name="cdotaccent" unicode="&#x10b;" horiz-adv-x="575" 
d="M301 572c-26.667 0 -47.167 7.00098 -61.5 21.001s-21.5 34 -21.5 60c0 52 27.667 78 83 78c26.667 0 47.167 -6.83301 61.5 -20.5s21.5 -32.834 21.5 -57.501c0 -26 -7.16699 -46 -21.5 -60s-34.833 -21 -61.5 -21zM294 105.001c35.333 0 62.166 8 80.499 24
s31.5 44.333 39.5 85l125 -30c-16 -66 -45.667 -114.833 -89 -146.5s-95.333 -47.5 -156 -47.5c-76.667 0 -138.834 23.333 -186.501 70s-71.5 108 -71.5 184c0 76.667 23.833 138.5 71.5 185.5s109.834 70.5 186.501 70.5c62 0 114.5 -16.167 157.5 -48.5
s72.167 -80.833 87.5 -145.5l-125 -30c-7.33301 40.667 -20.166 69 -38.499 85s-45.5 24 -81.5 24c-44.667 0 -77.5 -11.5 -98.5 -34.5s-31.5 -58.5 -31.5 -106.5c0 -47.333 10.5 -82.333 31.5 -105s53.833 -34 98.5 -34z" />
    <glyph glyph-name="Ccaron" unicode="&#x10c;" horiz-adv-x="781" 
d="M466 760h-111l-123 173h79l100 -79l99 79h79zM402 110c64 0 113 15.167 147 45.5s56.333 79.833 67 148.5l132 -28c-16 -90.667 -55.167 -161 -117.5 -211s-138.5 -75 -228.5 -75c-102 0 -187.833 33.833 -257.5 101.5s-104.5 153.834 -104.5 258.501
c0 105.333 34.833 191.666 104.5 258.999s155.5 101 257.5 101c90 0 166.167 -25 228.5 -75s101.5 -120.333 117.5 -211l-132 -28c-10.667 68.667 -33 118.167 -67 148.5s-83 45.5 -147 45.5c-150 0 -225 -79.667 -225 -239c0 -160.667 75 -241 225 -241z" />
    <glyph glyph-name="ccaron" unicode="&#x10d;" horiz-adv-x="575" 
d="M357 560h-111l-123 173h79l100 -79l99 79h79zM294 105c35.333 0 62.166 8 80.499 24s31.5 44.333 39.5 85l125 -30c-16 -66 -45.667 -114.833 -89 -146.5s-95.333 -47.5 -156 -47.5c-76.667 0 -138.834 23.333 -186.501 70s-71.5 108 -71.5 184
c0 76.667 23.833 138.5 71.5 185.5s109.834 70.5 186.501 70.5c62 0 114.5 -16.167 157.5 -48.5s72.167 -80.833 87.5 -145.5l-125 -30c-7.33301 40.667 -20.166 69 -38.499 85s-45.5 24 -81.5 24c-44.667 0 -77.5 -11.5 -98.5 -34.5s-31.5 -58.5 -31.5 -106.5
c0 -47.333 10.5 -82.333 31.5 -105s53.833 -34 98.5 -34z" />
    <glyph glyph-name="Dcaron" unicode="&#x10e;" horiz-adv-x="765" 
d="M421 760h-111l-123 173h79l100 -79l99 79h79zM353 700c114.667 0 205.334 -31.833 272.001 -95.5s100 -148.5 100 -254.5s-33.333 -190.833 -100 -254.5s-157.334 -95.5 -272.001 -95.5h-268v700h268zM351 120c86.667 0 147.834 17.333 183.501 52s53.5 94 53.5 178
s-17.833 143.333 -53.5 178s-96.834 52 -183.501 52h-134v-460h134z" />
    <glyph glyph-name="dcaron" unicode="&#x10f;" horiz-adv-x="628" 
d="M429 380v320h127v-700h-127v107c-31.333 -78 -88 -117 -170 -117c-69.333 0 -123.833 23.167 -163.5 69.5s-59.5 107.833 -59.5 184.5c0 78 19.167 140.167 57.5 186.5s91.5 69.5 159.5 69.5c85.333 0 144 -40 176 -120zM634 700h134l-65 -247h-69v247zM297 105
c46.667 0 81 11.333 103 34s33 57.667 33 105c0 48 -11 83.5 -33 106.5s-56.333 34.5 -103 34.5c-88.667 0 -133 -47 -133 -141c0 -92.667 44.333 -139 133 -139z" />
    <glyph glyph-name="Dcroat" unicode="&#x110;" horiz-adv-x="758" 
d="M353 700c114.667 0 205.334 -31.833 272.001 -95.5s100 -148.5 100 -254.5s-33.333 -190.833 -100 -254.5s-157.334 -95.5 -272.001 -95.5h-268v305h-85l1 93h84v302h268zM351 120c86.667 0 147.834 17.333 183.501 52s53.5 94 53.5 178s-17.833 143.333 -53.5 178
s-96.834 52 -183.501 52h-134v-182h123l-1 -93h-122v-185h134z" />
    <glyph glyph-name="dcroat" unicode="&#x111;" horiz-adv-x="628" 
d="M647 629v-86h-91v-543h-127v107c-31.333 -78 -88 -117 -170 -117c-69.333 0 -123.833 23.167 -163.5 69.5s-59.5 107.833 -59.5 184.5c0 78 19.167 140.167 57.5 186.5s91.5 69.5 159.5 69.5c85.333 0 144 -40 176 -120v163h-144v86h144v71h127v-71h91zM297 105
c46.667 0 81 11.333 103 34s33 57.667 33 105c0 48 -11 83.5 -33 106.5s-56.333 34.5 -103 34.5c-88.667 0 -133 -47 -133 -141c0 -92.667 44.333 -139 133 -139z" />
    <glyph glyph-name="Emacron" unicode="&#x112;" horiz-adv-x="597" 
d="M167 874h300v-91h-300v91zM535 579h-319v-150h301v-117h-301v-191h319v-121h-450v700h450v-121z" />
    <glyph glyph-name="emacron" unicode="&#x113;" horiz-adv-x="554" 
d="M431 684v-91h-300v91h300zM517 252c0 -18 -0.334961 -33.668 -1.00195 -47.001h-348c4 -40.667 15.5 -70.167 34.5 -88.5s47.833 -27.5 86.5 -27.5c28.667 0 50.667 5 66 15s29 28 41 54l110 -40c-33.333 -85.333 -106.666 -128 -219.999 -128
c-75.333 0 -135.833 23 -181.5 69s-68.5 107 -68.5 183c0 76.667 22.833 138.834 68.5 186.501s104.834 71.5 177.501 71.5c70.667 0 127.5 -22.5 170.5 -67.5s64.5 -105.167 64.5 -180.5zM282.998 403.999c-35.333 0 -62.167 -8.83301 -80.5 -26.5
s-29.833 -46.167 -34.5 -85.5h223c-0.666992 40.667 -9.66699 69.5 -27 86.5s-44.333 25.5 -81 25.5z" />
    <glyph glyph-name="Edotaccent" unicode="&#x116;" horiz-adv-x="597" 
d="M317 768c-26.667 0 -47.167 7.00098 -61.5 21.001s-21.5 34 -21.5 60c0 52 27.667 78 83 78c26.667 0 47.167 -6.83301 61.5 -20.5s21.5 -32.834 21.5 -57.501c0 -26 -7.16699 -46 -21.5 -60s-34.833 -21 -61.5 -21zM535 579.001h-319v-150h301v-117h-301v-191h319v-121
h-450v700h450v-121z" />
    <glyph glyph-name="edotaccent" unicode="&#x117;" horiz-adv-x="554" 
d="M281 572c-26.667 0 -47.167 7.00098 -61.5 21.001s-21.5 34 -21.5 60c0 52 27.667 78 83 78c26.667 0 47.167 -6.83301 61.5 -20.5s21.5 -32.834 21.5 -57.501c0 -26 -7.16699 -46 -21.5 -60s-34.833 -21 -61.5 -21zM517 252.001
c0 -18 -0.334961 -33.668 -1.00195 -47.001h-348c4 -40.667 15.5 -70.167 34.5 -88.5s47.833 -27.5 86.5 -27.5c28.667 0 50.667 5 66 15s29 28 41 54l110 -40c-33.333 -85.333 -106.666 -128 -219.999 -128c-75.333 0 -135.833 23 -181.5 69s-68.5 107 -68.5 183
c0 76.667 22.833 138.834 68.5 186.501s104.834 71.5 177.501 71.5c70.667 0 127.5 -22.5 170.5 -67.5s64.5 -105.167 64.5 -180.5zM282.998 404c-35.333 0 -62.167 -8.83301 -80.5 -26.5s-29.833 -46.167 -34.5 -85.5h223c-0.666992 40.667 -9.66699 69.5 -27 86.5
s-44.333 25.5 -81 25.5z" />
    <glyph glyph-name="Eogonek" unicode="&#x118;" horiz-adv-x="597" 
d="M535 579l-318.998 -0.000976562v-150h301v-117h-301v-191h319v-121h-35c-23.333 -17.333 -39.833 -31.166 -49.5 -41.499s-14.5 -21.5 -14.5 -33.5c0 -22.667 14 -34 42 -34c20 0 37.667 3 53 9v-77c-24.667 -6.66699 -50.334 -10 -77.001 -10
c-37.333 0 -65.833 8.16699 -85.5 24.5s-29.5 36.5 -29.5 60.5c0 21.333 8.66699 40.833 26 58.5s43.666 32.167 78.999 43.5h-359v700h450v-121z" />
    <glyph glyph-name="eogonek" unicode="&#x119;" horiz-adv-x="554" 
d="M517 252c0 -18 -0.333984 -33.668 -1.00098 -47.001h-348c4 -40.667 15.5 -70.167 34.5 -88.5s47.833 -27.5 86.5 -27.5c28.667 0 50.667 5 66 15s29 28 41 54l110 -40c-13.333 -34.667 -34.666 -63 -63.999 -85c-46 -47.333 -72 -76.666 -78 -87.999
c-4 -7.33301 -6 -15 -6 -23c0 -22.667 14 -34 42 -34c20 0 37.667 3 53 9v-77c-26.667 -6.66699 -52.334 -10 -77.001 -10c-38.667 0 -67.667 6.66699 -87 20s-29 31.666 -29 54.999c0 18.667 7.5 36.5 22.5 53.5s41.167 36.833 78.5 59.5
c-24.667 -5.33301 -49.667 -8 -75 -8c-75.333 0 -135.833 23 -181.5 69s-68.5 107 -68.5 183c0 76.667 22.833 138.834 68.5 186.501s104.834 71.5 177.501 71.5c70.667 0 127.5 -22.5 170.5 -67.5s64.5 -105.167 64.5 -180.5zM282.999 403.999
c-35.333 0 -62.167 -8.83301 -80.5 -26.5s-29.833 -46.167 -34.5 -85.5h223c-0.666992 40.667 -9.66699 69.5 -27 86.5s-44.333 25.5 -81 25.5z" />
    <glyph glyph-name="Ecaron" unicode="&#x11a;" horiz-adv-x="597" 
d="M373 760h-111l-123 173h79l100 -79l99 79h79zM535 579h-319v-150h301v-117h-301v-191h319v-121h-450v700h450v-121z" />
    <glyph glyph-name="ecaron" unicode="&#x11b;" horiz-adv-x="554" 
d="M337 560h-111l-123 173h79l100 -79l99 79h79zM517 252c0 -18 -0.334961 -33.668 -1.00195 -47.001h-348c4 -40.667 15.5 -70.167 34.5 -88.5s47.833 -27.5 86.5 -27.5c28.667 0 50.667 5 66 15s29 28 41 54l110 -40c-33.333 -85.333 -106.666 -128 -219.999 -128
c-75.333 0 -135.833 23 -181.5 69s-68.5 107 -68.5 183c0 76.667 22.833 138.834 68.5 186.501s104.834 71.5 177.501 71.5c70.667 0 127.5 -22.5 170.5 -67.5s64.5 -105.167 64.5 -180.5zM282.998 403.999c-35.333 0 -62.167 -8.83301 -80.5 -26.5
s-29.833 -46.167 -34.5 -85.5h223c-0.666992 40.667 -9.66699 69.5 -27 86.5s-44.333 25.5 -81 25.5z" />
    <glyph glyph-name="Gbreve" unicode="&#x11e;" horiz-adv-x="807" 
d="M418 765c-48 0 -86.834 14.333 -116.501 43s-45.167 66.334 -46.5 113.001h104c0 -26 4.33301 -44 13 -54s24 -15 46 -15c23.333 0 39.5 5 48.5 15s13.5 28 13.5 54h104c-1.33301 -46.667 -17.166 -84.334 -47.499 -113.001s-69.833 -43 -118.5 -43zM415.999 372
l328 0.000976562v-372h-115v152c-34.667 -108 -116 -162 -244 -162c-96 0 -177.5 34 -244.5 102s-100.5 154.333 -100.5 259c0 105.333 35.167 191.5 105.5 258.5s159.833 100.5 268.5 100.5c80 0 149.5 -20.5 208.5 -61.5s96.833 -97.833 113.5 -170.5l-121 -53
c-14.667 57.333 -38.834 99.166 -72.501 125.499s-77.5 39.5 -131.5 39.5c-76.667 0 -135 -20.333 -175 -61s-60 -100 -60 -178c0 -164.667 79.333 -247 238 -247c56 0 102.333 13.667 139 41s58.334 66 65.001 116h-202v111z" />
    <glyph glyph-name="gbreve" unicode="&#x11f;" horiz-adv-x="608" 
d="M301 560c-48 0 -86.834 14.166 -116.501 42.499s-45.167 65.833 -46.5 112.5h104c0 -25.333 4.33301 -43.166 13 -53.499s24 -15.5 46 -15.5c23.333 0 39.5 5 48.5 15s13.5 28 13.5 54h104c-1.33301 -46.667 -17.166 -84.167 -47.499 -112.5s-69.833 -42.5 -118.5 -42.5z
M409.999 489.999l127.001 -0.00292969v-430c0 -75.333 -22.5 -134.166 -67.5 -176.499s-107.5 -63.5 -187.5 -63.5c-63.333 0 -116.5 11.333 -159.5 34s-70.5 55.334 -82.5 98.001l122 51c8.66699 -31.333 22.5 -52.5 41.5 -63.5s47.167 -16.5 84.5 -16.5
c41.333 0 72 9.16699 92 27.5s30 47.166 30 86.499v93c-33.333 -68 -89 -102 -167 -102c-62.667 0 -112.834 21.833 -150.501 65.5s-56.5 100.834 -56.5 171.501s18.333 127.334 55 170.001s86 64 148 64c80 0 137 -35 171 -105v96zM288 139.996
c84.667 0 127 41.333 127 124s-42 124 -126 124c-82.667 0 -124 -41.333 -124 -124s41 -124 123 -124z" />
    <glyph glyph-name="Gdotaccent" unicode="&#x120;" horiz-adv-x="807" 
d="M419 768c-26.667 0 -47.167 7.00098 -61.5 21.001s-21.5 34 -21.5 60c0 52 27.667 78 83 78c26.667 0 47.167 -6.83301 61.5 -20.5s21.5 -32.834 21.5 -57.501c0 -26 -7.16699 -46 -21.5 -60s-34.833 -21 -61.5 -21zM416 372.001l328 0.000976562v-372h-115v152
c-34.667 -108 -116 -162 -244 -162c-96 0 -177.5 34 -244.5 102s-100.5 154.333 -100.5 259c0 105.333 35.167 191.5 105.5 258.5s159.833 100.5 268.5 100.5c80 0 149.5 -20.5 208.5 -61.5s96.833 -97.833 113.5 -170.5l-121 -53
c-14.667 57.333 -38.834 99.166 -72.501 125.499s-77.5 39.5 -131.5 39.5c-76.667 0 -135 -20.333 -175 -61s-60 -100 -60 -178c0 -164.667 79.333 -247 238 -247c56 0 102.333 13.667 139 41s58.334 66 65.001 116h-202v111z" />
    <glyph glyph-name="gdotaccent" unicode="&#x121;" horiz-adv-x="608" 
d="M302 572c-26.667 0 -47.167 7.00098 -61.5 21.001s-21.5 34 -21.5 60c0 52 27.667 78 83 78c26.667 0 47.167 -6.83301 61.5 -20.5s21.5 -32.834 21.5 -57.501c0 -26 -7.16699 -46 -21.5 -60s-34.833 -21 -61.5 -21zM410 490.001l127.001 -0.00292969v-430
c0 -75.333 -22.5 -134.166 -67.5 -176.499s-107.5 -63.5 -187.5 -63.5c-63.333 0 -116.5 11.333 -159.5 34s-70.5 55.334 -82.5 98.001l122 51c8.66699 -31.333 22.5 -52.5 41.5 -63.5s47.167 -16.5 84.5 -16.5c41.333 0 72 9.16699 92 27.5s30 47.166 30 86.499v93
c-33.333 -68 -89 -102 -167 -102c-62.667 0 -112.834 21.833 -150.501 65.5s-56.5 100.834 -56.5 171.501s18.333 127.334 55 170.001s86 64 148 64c80 0 137 -35 171 -105v96zM288.001 139.998c84.667 0 127 41.333 127 124s-42 124 -126 124
c-82.667 0 -124 -41.333 -124 -124s41 -124 123 -124z" />
    <glyph glyph-name="uni0122" unicode="&#x122;" horiz-adv-x="807" 
d="M416 372l328 0.000976562v-372h-115v152c-34.667 -108 -116 -162 -244 -162c-96 0 -177.5 34 -244.5 102s-100.5 154.333 -100.5 259c0 105.333 35.167 191.5 105.5 258.5s159.833 100.5 268.5 100.5c80 0 149.5 -20.5 208.5 -61.5s96.833 -97.833 113.5 -170.5l-121 -53
c-14.667 57.333 -38.834 99.166 -72.501 125.499s-77.5 39.5 -131.5 39.5c-76.667 0 -135 -20.333 -175 -61s-60 -100 -60 -178c0 -164.667 79.333 -247 238 -247c56 0 102.333 13.667 139 41s58.334 66 65.001 116h-202v111zM386 -36.999
c20 0 36.168 -5.83203 48.501 -17.499s18.833 -26.834 19.5 -45.501c0 -14 -3.33301 -26.333 -10 -37l-66 -102h-96l92 75c-16 2.66699 -29 9.66699 -39 21s-15 25.666 -15 42.999c0 18.667 6.16699 33.834 18.5 45.501s28.166 17.5 47.499 17.5z" />
    <glyph glyph-name="uni0123" unicode="&#x123;" horiz-adv-x="608" 
d="M301 545c-22 0 -38.999 5.66699 -50.999 17s-18 27.666 -18 48.999c0 18.667 6 38.667 18 60l66 118h92l-101 -109c19.333 -0.666992 34.666 -7.16699 45.999 -19.5s17 -28.833 17 -49.5c0.666992 -21.333 -5 -37.666 -17 -48.999s-29.333 -17 -52 -17zM410.001 490
l127.001 -0.00292969v-430c0 -75.333 -22.5 -134.166 -67.5 -176.499s-107.5 -63.5 -187.5 -63.5c-63.333 0 -116.5 11.333 -159.5 34s-70.5 55.334 -82.5 98.001l122 51c8.66699 -31.333 22.5 -52.5 41.5 -63.5s47.167 -16.5 84.5 -16.5c41.333 0 72 9.16699 92 27.5
s30 47.166 30 86.499v93c-33.333 -68 -89 -102 -167 -102c-62.667 0 -112.834 21.833 -150.501 65.5s-56.5 100.834 -56.5 171.501s18.333 127.334 55 170.001s86 64 148 64c80 0 137 -35 171 -105v96zM288.002 139.997c84.667 0 127 41.333 127 124s-42 124 -126 124
c-82.667 0 -124 -41.333 -124 -124s41 -124 123 -124z" />
    <glyph glyph-name="Hbar" unicode="&#x126;" horiz-adv-x="757" 
d="M738 601v-87h-66v-514h-132v301h-323v-301h-132v514h-67v87h67v99h132v-99h323v99h132v-99h66zM540 422v92h-323v-92h323z" />
    <glyph glyph-name="hbar" unicode="&#x127;" horiz-adv-x="602" 
d="M361 500c116.667 0 175 -69 175 -207v-293h-127v286c0 66 -31.667 99 -95 99c-36 0 -64.167 -12.833 -84.5 -38.5s-30.5 -63.167 -30.5 -112.5v-234h-127v543h-99v86h99v71h127v-71h136v-86h-136v-167c25.333 82.667 79.333 124 162 124z" />
    <glyph glyph-name="Imacron" unicode="&#x12a;" horiz-adv-x="305" 
d="M2 874h300v-91h-300v91zM85 0v700h135v-700h-135z" />
    <glyph glyph-name="imacron" unicode="&#x12b;" horiz-adv-x="270" 
d="M-15 684h300v-91h-300v91zM72 0v490h127v-490h-127z" />
    <glyph glyph-name="Iogonek" unicode="&#x12e;" horiz-adv-x="305" 
d="M192 0c-25.333 -18.667 -42.999 -33.334 -52.999 -44.001s-15 -22 -15 -34c0 -22.667 14 -34 42 -34c20 0 37.667 3 53 9v-77c-24.667 -6.66699 -50.334 -10 -77.001 -10c-37.333 0 -65.833 8.16699 -85.5 24.5s-29.5 36.5 -29.5 60.5c0 22 9.5 42.333 28.5 61
s47.833 33.334 86.5 44.001h-57v700h135v-700h-28z" />
    <glyph glyph-name="iogonek" unicode="&#x12f;" horiz-adv-x="270" 
d="M135 572c-26.667 0 -47.167 7.00098 -61.5 21.001s-21.5 34 -21.5 60c0 52 27.667 78 83 78c26.667 0 47.167 -6.83301 61.5 -20.5s21.5 -32.834 21.5 -57.501c0 -26 -7.16699 -46 -21.5 -60s-34.833 -21 -61.5 -21zM72 0.000976562v490h127v-490h-29
c-25.333 -18.667 -43 -33.334 -53 -44.001s-15 -22 -15 -34c0 -22.667 14 -34 42 -34c20.667 0 38.334 3 53.001 9v-77c-24.667 -6.66699 -50.334 -10 -77.001 -10c-37.333 0 -65.833 8.16699 -85.5 24.5s-29.5 36.5 -29.5 60.5c0 22 9.5 42.333 28.5 61
s47.833 33.334 86.5 44.001h-48z" />
    <glyph glyph-name="Idotaccent" unicode="&#x130;" horiz-adv-x="305" 
d="M152 768c-26.667 0 -47.167 7.00098 -61.5 21.001s-21.5 34 -21.5 60c0 52 27.667 78 83 78c26.667 0 47.167 -6.83301 61.5 -20.5s21.5 -32.834 21.5 -57.501c0 -26 -7.16699 -46 -21.5 -60s-34.833 -21 -61.5 -21zM85 0.000976562v700h135v-700h-135z" />
    <glyph glyph-name="dotlessi" unicode="&#x131;" horiz-adv-x="270" 
d="M72 0v490h127v-490h-127z" />
    <glyph glyph-name="IJ" unicode="&#x132;" horiz-adv-x="657" 
d="M79 335v365h135v-349zM214 266c-2.66699 -57.333 5.00195 -97.667 23.002 -121s48.333 -35 91 -35c44 0 75 9.5 93 28.5s27 55.167 27 108.5v453h132v-445c0 -86.667 -23.167 -152.5 -69.5 -197.5s-107.166 -67.5 -182.499 -67.5c-34 0 -64.333 3.66699 -91 11
s-51.834 20.166 -75.501 38.499s-42.334 44.833 -56.001 79.5s-21.834 77.334 -24.501 128.001z" />
    <glyph glyph-name="uni0136" unicode="&#x136;" horiz-adv-x="692" 
d="M440 432l242 -432h-164l-170 328l-130 -149v-179h-133v700h133v-395l87 150l193 245h177zM343 -37c20 0 36.168 -5.83203 48.501 -17.499s18.833 -26.834 19.5 -45.501c0 -14 -3.33301 -26.333 -10 -37l-66 -102h-96l92 75c-16 2.66699 -29 9.66699 -39 21
s-15 25.666 -15 42.999c0 18.667 6.16699 33.834 18.5 45.501s28.166 17.5 47.499 17.5z" />
    <glyph glyph-name="uni0137" unicode="&#x137;" horiz-adv-x="575" 
d="M362 289l193 -289h-152l-120 205l-84 -90v-115h-127v700h127v-472l69 110l122 152h159zM294 -37c20 0 36.168 -5.83203 48.501 -17.499s18.833 -26.834 19.5 -45.501c0 -14 -3.33301 -26.333 -10 -37l-66 -102h-96l92 75c-16 2.66699 -29 9.66699 -39 21
s-15 25.666 -15 42.999c0 18.667 6.16699 33.834 18.5 45.501s28.166 17.5 47.499 17.5z" />
    <glyph glyph-name="Lacute" unicode="&#x139;" horiz-adv-x="541" 
d="M348 933l-172 -173h-70l61 173h181zM218 120h305v-120h-438v700h133v-580z" />
    <glyph glyph-name="lacute" unicode="&#x13a;" horiz-adv-x="270" 
d="M326 933l-172 -173h-70l61 173h181zM72 0v700h127v-700h-127z" />
    <glyph glyph-name="uni013B" unicode="&#x13b;" horiz-adv-x="541" 
d="M218 120h305v-120h-438v700h133v-580zM301 -37c20 0 36.168 -5.83203 48.501 -17.499s18.833 -26.834 19.5 -45.501c0 -14 -3.33301 -26.333 -10 -37l-66 -102h-96l92 75c-16 2.66699 -29 9.66699 -39 21s-15 25.666 -15 42.999c0 18.667 6.16699 33.834 18.5 45.501
s28.166 17.5 47.499 17.5z" />
    <glyph glyph-name="uni013C" unicode="&#x13c;" horiz-adv-x="270" 
d="M72 700h127v-700h-127v700zM125 -37c20 0 36.168 -5.83203 48.501 -17.499s18.833 -26.834 19.5 -45.501c0 -14 -3.33301 -26.333 -10 -37l-66 -102h-96l92 75c-16 2.66699 -29 9.66699 -39 21s-15 25.666 -15 42.999c0 18.667 6.16699 33.834 18.5 45.501
s28.166 17.5 47.499 17.5z" />
    <glyph glyph-name="Lcaron" unicode="&#x13d;" horiz-adv-x="541" 
d="M218 120h305v-120h-438v700h133v-580zM487 700l-65 -247h-69v247h134z" />
    <glyph glyph-name="lcaron" unicode="&#x13e;" horiz-adv-x="270" 
d="M72 0v700h127v-700h-127zM279 453v247h134l-65 -247h-69z" />
    <glyph glyph-name="Lslash" unicode="&#x141;" horiz-adv-x="541" 
d="M218 120h305v-120h-438v234l-92 -76v115l92 57v370h133v-275l134 98v-115l-134 -78v-210z" />
    <glyph glyph-name="lslash" unicode="&#x142;" horiz-adv-x="268" 
d="M272 499v-127l-73 -53v-319h-127v204l-70 -69v126l70 55v384h127v-271z" />
    <glyph glyph-name="Nacute" unicode="&#x143;" horiz-adv-x="797" 
d="M602 933l-172 -173h-70l61 173h181zM580 700h132v-700h-178l-267 452l-50 101v-553h-132v700h183l257 -437l55 -108v545z" />
    <glyph glyph-name="nacute" unicode="&#x144;" horiz-adv-x="602" 
d="M500 733l-172 -173h-70l61 173h181zM361 500c116.667 0 175 -69 175 -207v-293h-127v286c0 66 -31.667 99 -95 99c-36 0 -64.167 -12.833 -84.5 -38.5s-30.5 -63.167 -30.5 -112.5v-234h-127v490h127v-114c25.333 82.667 79.333 124 162 124z" />
    <glyph glyph-name="uni0145" unicode="&#x145;" horiz-adv-x="797" 
d="M580 700h132v-700h-178l-267 452l-50 101v-553h-132v700h183l257 -437l55 -108v545zM405 -37c20 0 36.168 -5.83203 48.501 -17.499s18.833 -26.834 19.5 -45.501c0 -14 -3.33301 -26.333 -10 -37l-66 -102h-96l92 75c-16 2.66699 -29 9.66699 -39 21
s-15 25.666 -15 42.999c0 18.667 6.16699 33.834 18.5 45.501s28.166 17.5 47.499 17.5z" />
    <glyph glyph-name="uni0146" unicode="&#x146;" horiz-adv-x="602" 
d="M361 500c116.667 0 175 -69 175 -207v-293h-127v286c0 66 -31.667 99 -95 99c-36 0 -64.167 -12.833 -84.5 -38.5s-30.5 -63.167 -30.5 -112.5v-234h-127v490h127v-114c25.333 82.667 79.333 124 162 124zM303 -37c20 0 36.168 -5.83203 48.501 -17.499
s18.833 -26.834 19.5 -45.501c0 -14 -3.33301 -26.333 -10 -37l-66 -102h-96l92 75c-16 2.66699 -29 9.66699 -39 21s-15 25.666 -15 42.999c0 18.667 6.16699 33.834 18.5 45.501s28.166 17.5 47.499 17.5z" />
    <glyph glyph-name="Ncaron" unicode="&#x147;" horiz-adv-x="797" 
d="M468 760h-111l-123 173h79l100 -79l99 79h79zM580 700h132v-700h-178l-267 452l-50 101v-553h-132v700h183l257 -437l55 -108v545z" />
    <glyph glyph-name="ncaron" unicode="&#x148;" horiz-adv-x="602" 
d="M366 560h-111l-123 173h79l100 -79l99 79h79zM361 500c116.667 0 175 -69 175 -207v-293h-127v286c0 66 -31.667 99 -95 99c-36 0 -64.167 -12.833 -84.5 -38.5s-30.5 -63.167 -30.5 -112.5v-234h-127v490h127v-114c25.333 82.667 79.333 124 162 124z" />
    <glyph glyph-name="Eng" unicode="&#x14a;" horiz-adv-x="797" 
d="M580 700h132v-718c0 -45.333 -14 -82 -42 -110s-64.667 -42 -110 -42h-117v115h136l-301 495l-61 111v-551h-132v700h183l252 -428l60 -111v539z" />
    <glyph glyph-name="eng" unicode="&#x14b;" horiz-adv-x="602" 
d="M361 500c116.667 0 174.999 -69 174.999 -207v-311c0 -45.333 -14 -82 -42 -110s-64.667 -42 -110 -42h-61v115h86v334c0 37.333 -7.66699 64.333 -23 81s-39.666 25 -72.999 25c-36 0 -64 -12.833 -84 -38.5s-30 -63.167 -30 -112.5v-234h-127v490h127v-114
c25.333 82.667 79.333 124 162 124z" />
    <glyph glyph-name="Omacron" unicode="&#x14c;" horiz-adv-x="801" 
d="M250 874h300v-91h-300v91zM400 710c101.333 0 186.835 -33.667 256.502 -101s104.5 -153.666 104.5 -258.999c0 -104.667 -34.833 -190.834 -104.5 -258.501s-155.167 -101.5 -256.5 -101.5c-100.667 0 -185.834 33.833 -255.501 101.5s-104.5 153.834 -104.5 258.501
c0 105.333 34.667 191.666 104 258.999s154.666 101 255.999 101zM400.002 110c149.333 0 224 80.333 224 241c0 159.333 -74.667 239 -224 239c-148.667 0 -223 -79.667 -223 -239c0 -160.667 74.333 -241 223 -241z" />
    <glyph glyph-name="omacron" unicode="&#x14d;" horiz-adv-x="597" 
d="M149 684h300v-91h-300v91zM299 500c73.333 0 135.333 -23.5 186 -70.5s76 -108.833 76 -185.5c0 -76 -25.333 -137.333 -76 -184s-112.667 -70 -186 -70c-74 0 -136.333 23.333 -187 70s-76 108 -76 184c0 76.667 25.333 138.5 76 185.5s113 70.5 187 70.5zM299 105
c89.333 0 134 46.333 134 139c0 48 -11 83.5 -33 106.5s-55.667 34.5 -101 34.5c-46 0 -80 -11.5 -102 -34.5s-33 -58.5 -33 -106.5c0 -92.667 45 -139 135 -139z" />
    <glyph glyph-name="Ohungarumlaut" unicode="&#x150;" horiz-adv-x="801" 
d="M494 913l-152 -153h-70l61 173h349l-171 -173h-71zM400 710c101.333 0 186.835 -33.667 256.502 -101s104.5 -153.666 104.5 -258.999c0 -104.667 -34.833 -190.834 -104.5 -258.501s-155.167 -101.5 -256.5 -101.5c-100.667 0 -185.834 33.833 -255.501 101.5
s-104.5 153.834 -104.5 258.501c0 105.333 34.667 191.666 104 258.999s154.666 101 255.999 101zM400.002 110c149.333 0 224 80.333 224 241c0 159.333 -74.667 239 -224 239c-148.667 0 -223 -79.667 -223 -239c0 -160.667 74.333 -241 223 -241z" />
    <glyph glyph-name="ohungarumlaut" unicode="&#x151;" horiz-adv-x="597" 
d="M393 713l-152 -153h-70l61 173h349l-171 -173h-71zM299 500c73.333 0 135.333 -23.5 186 -70.5s76 -108.833 76 -185.5c0 -76 -25.333 -137.333 -76 -184s-112.667 -70 -186 -70c-74 0 -136.333 23.333 -187 70s-76 108 -76 184c0 76.667 25.333 138.5 76 185.5
s113 70.5 187 70.5zM299 105c89.333 0 134 46.333 134 139c0 48 -11 83.5 -33 106.5s-55.667 34.5 -101 34.5c-46 0 -80 -11.5 -102 -34.5s-33 -58.5 -33 -106.5c0 -92.667 45 -139 135 -139z" />
    <glyph glyph-name="OE" unicode="&#x152;" horiz-adv-x="1074" 
d="M1013 579h-328.998c35.333 -43.333 58.333 -93.333 69 -150h241v-117h-235c-6.66699 -73.333 -32 -137 -76 -191h330v-121h-525c-26.667 -6.66699 -56 -10 -88 -10c-100.667 0 -185.834 33.833 -255.501 101.5s-104.5 153.834 -104.5 258.501
c0 105.333 34.667 191.666 104 258.999s154.666 101 255.999 101c32 0 61.667 -3.33301 89 -10h524v-121zM177.002 351c0 -160.667 74.333 -241 223 -241c149.333 0 224 80.333 224 241c0 159.333 -74.667 239 -224 239c-148.667 0 -223 -79.667 -223 -239z" />
    <glyph glyph-name="oe" unicode="&#x153;" horiz-adv-x="955" 
d="M918 252c0 -18 -0.333984 -33.667 -1.00098 -47h-348c4 -40.667 15.5 -70.167 34.5 -88.5s47.833 -27.5 86.5 -27.5c28.667 0 50.667 5 66 15s29 28 41 54l110 -40c-33.333 -85.333 -106.666 -128 -219.999 -128c-82 0 -146 26.667 -192 80
c-50 -53.333 -115.333 -80 -196 -80c-74 0 -136.333 23.333 -187 70s-76 108 -76 184c0 76.667 25.333 138.5 76 185.5s113 70.5 187 70.5c82 0 147.667 -27.333 197 -82c46 54.667 108.333 82 187 82c70.667 0 127.5 -22.5 170.5 -67.5s64.5 -105.167 64.5 -180.5z
M683.999 404c-35.333 0 -62.167 -8.83301 -80.5 -26.5s-29.833 -46.167 -34.5 -85.5h223c-0.666992 40.667 -9.66699 69.5 -27 86.5s-44.333 25.5 -81 25.5zM298.998 105c89.333 0 134 46.333 134 139c0 48 -11 83.5 -33 106.5s-55.667 34.5 -101 34.5
c-46 0 -80 -11.5 -102 -34.5s-33 -58.5 -33 -106.5c0 -92.667 45 -139 135 -139z" />
    <glyph glyph-name="Racute" unicode="&#x154;" horiz-adv-x="659" 
d="M511 933l-172 -173h-70l61 173h181zM471 0l-131 283.999h-124v-284h-131v700h288c74 0 132.667 -19 176 -57s65 -88.333 65 -151c0 -52.667 -15.167 -96.667 -45.5 -132s-72.5 -58.666 -126.5 -69.999l59 -66l126 -224h-156zM216 583.999v-187.999h154
c40 0 68.5 7.16699 85.5 21.5s25.5 38.833 25.5 73.5c0 33.333 -8.5 57.166 -25.5 71.499s-45.5 21.5 -85.5 21.5h-154z" />
    <glyph glyph-name="racute" unicode="&#x155;" horiz-adv-x="421" 
d="M405 733l-172 -173h-70l60 173h182zM199 351c17.333 98 65 147 143 147c27.333 0 47 -2.33301 59 -7v-120c-17.333 6.66699 -39.333 10 -66 10c-42 0 -75.167 -14.667 -99.5 -44s-36.5 -74 -36.5 -134v-203h-127v490h127v-139z" />
    <glyph glyph-name="uni0156" unicode="&#x156;" horiz-adv-x="659" 
d="M501 224l126 -224.001h-156l-131 284h-124v-284h-131v700h288c74 0 132.667 -19 176 -57s65 -88.333 65 -151c0 -52.667 -15.167 -96.667 -45.5 -132s-72.5 -58.666 -126.5 -69.999zM216 583.999v-187.999h154c40 0 68.5 7.16699 85.5 21.5s25.5 38.833 25.5 73.5
c0 33.333 -8.5 57.166 -25.5 71.499s-45.5 21.5 -85.5 21.5h-154zM311 -37c20 0 36.168 -5.83203 48.501 -17.499s18.833 -26.834 19.5 -45.501c0 -14 -3.33301 -26.333 -10 -37l-66 -102h-96l92 75c-16 2.66699 -29 9.66699 -39 21s-15 25.666 -15 42.999
c0 18.667 6.16699 33.834 18.5 45.501s28.166 17.5 47.499 17.5z" />
    <glyph glyph-name="uni0157" unicode="&#x157;" horiz-adv-x="421" 
d="M342 498c27.333 0 47 -2.33301 59 -7v-120c-17.333 6.66699 -39.333 10 -66 10c-42 0 -75.167 -14.667 -99.5 -44s-36.5 -74 -36.5 -134v-203h-127v490h127v-139c17.333 98 65 147 143 147zM127 -37c20 0 36.168 -5.83203 48.501 -17.499s18.833 -26.834 19.5 -45.501
c0 -14 -3.33301 -26.333 -10 -37l-66 -102h-96l92 75c-16 2.66699 -29 9.66699 -39 21s-15 25.666 -15 42.999c0 18.667 6.16699 33.834 18.5 45.501s28.166 17.5 47.499 17.5z" />
    <glyph glyph-name="Rcaron" unicode="&#x158;" horiz-adv-x="659" 
d="M377 760h-111l-123 173h79l100 -79l99 79h79zM471 0l-131 283.999h-124v-284h-131v700h288c74 0 132.667 -19 176 -57s65 -88.333 65 -151c0 -52.667 -15.167 -96.667 -45.5 -132s-72.5 -58.666 -126.5 -69.999l59 -66l126 -224h-156zM216 583.999v-187.999h154
c40 0 68.5 7.16699 85.5 21.5s25.5 38.833 25.5 73.5c0 33.333 -8.5 57.166 -25.5 71.499s-45.5 21.5 -85.5 21.5h-154z" />
    <glyph glyph-name="rcaron" unicode="&#x159;" horiz-adv-x="421" 
d="M271 560h-111l-123 173h79l100 -79l99 79h79zM342 498c27.333 0 47 -2.33301 59 -7v-120c-17.333 6.66699 -39.333 10 -66 10c-42 0 -75.167 -14.667 -99.5 -44s-36.5 -74 -36.5 -134v-203h-127v490h127v-139c17.333 98 65 147 143 147z" />
    <glyph glyph-name="Sacute" unicode="&#x15a;" horiz-adv-x="623" 
d="M503 933l-172 -173h-70l61 173h181zM322 -10c-80.667 0 -146.169 18.165 -196.502 54.498s-80.5 92.166 -90.5 167.499l135 36c5.33301 -56 20.333 -94.333 45 -115s61.334 -31 110.001 -31c44.667 0 77 7.33301 97 22s30 37.667 30 69
c0 28.667 -7.16699 48.334 -21.5 59.001s-41.833 20 -82.5 28l-119 23c-118 22.667 -177 89.667 -177 201c0 62 23.333 111.833 70 149.5s108 56.5 184 56.5c79.333 0 142.833 -18.333 190.5 -55s74.834 -91 81.501 -163l-126 -35c-2.66699 54.667 -16.167 91.5 -40.5 110.5
s-59.833 28.5 -106.5 28.5c-77.333 0 -116 -28.667 -116 -86c0 -29.333 7.83301 -49.666 23.5 -60.999s43.167 -20.666 82.5 -27.999l110 -21c122 -22.667 183 -85.667 183 -189c0 -66.667 -24 -120.167 -72 -160.5s-112.667 -60.5 -194 -60.5z" />
    <glyph glyph-name="sacute" unicode="&#x15b;" horiz-adv-x="486" 
d="M428 733l-172 -173h-70l61 173h181zM241 -10c-60.667 0 -110.001 13.666 -148.001 40.999s-60.333 62 -67 104l119 33c4 -30.667 14.167 -51.834 30.5 -63.501s40.833 -17.5 73.5 -17.5c53.333 0 80 16.667 80 50c0 15.333 -5 27 -15 35s-29 14.333 -57 19l-82 13
c-44 7.33301 -78.167 23.333 -102.5 48s-36.5 57.667 -36.5 99c0 46.667 17.333 83.167 52 109.5s82.667 39.5 144 39.5c122 0 191.667 -47.333 209 -142l-112 -27c-3.33301 30 -11.666 50.333 -24.999 61s-36 16 -68 16c-48 0 -72 -17 -72 -51c0 -14.667 4.5 -26 13.5 -34
s24.833 -13.667 47.5 -17l100 -15c41.333 -5.33301 73.5 -20.166 96.5 -44.499s34.5 -56.166 34.5 -95.499c0 -50.667 -19 -90.167 -57 -118.5s-90.667 -42.5 -158 -42.5z" />
    <glyph glyph-name="Scedilla" unicode="&#x15e;" horiz-adv-x="623" 
d="M588 211c0 -61.333 -20.334 -111.501 -61.001 -150.501s-96 -61.833 -166 -68.5l-28 -47c32.667 -2 57.667 -10.833 75 -26.5s26 -35.834 26 -60.501c0 -28.667 -11.333 -52.167 -34 -70.5s-51 -27.5 -85 -27.5c-28.667 0 -54.167 6.16699 -76.5 18.5
s-37.833 29.166 -46.5 50.499l61 45c8 -32.667 28 -49 60 -49c11.333 0 20.666 2.83301 27.999 8.5s11 13.5 11 23.5c0 12.667 -9 24.334 -27 35.001s-41.333 18.667 -70 24l45 74c-74 3.33301 -134.333 23.166 -181 59.499s-74.667 90.5 -84 162.5l135 36
c5.33301 -56 20.333 -94.333 45 -115s61.334 -31 110.001 -31c44.667 0 77 7.33301 97 22s30 37.667 30 69c0 28.667 -7.16699 48.334 -21.5 59.001s-41.833 20 -82.5 28l-119 23c-118 22.667 -177 89.667 -177 201c0 62 23.333 111.833 70 149.5s108 56.5 184 56.5
c79.333 0 142.833 -18.333 190.5 -55s74.834 -91 81.501 -163l-126 -35c-2.66699 54.667 -16.167 91.5 -40.5 110.5s-59.833 28.5 -106.5 28.5c-77.333 0 -116 -28.667 -116 -86c0 -29.333 7.83301 -49.666 23.5 -60.999s43.167 -20.666 82.5 -27.999l110 -21
c122 -22.667 183 -85.667 183 -189z" />
    <glyph glyph-name="scedilla" unicode="&#x15f;" horiz-adv-x="486" 
d="M456 151c0 -46.667 -16.167 -83.832 -48.5 -111.499s-77.5 -43.834 -135.5 -48.501l-28 -46c32.667 -2 57.667 -10.833 75 -26.5s26 -35.834 26 -60.501c0 -28.667 -11.333 -52.167 -34 -70.5s-51 -27.5 -85 -27.5c-28.667 0 -54.167 6.16699 -76.5 18.5
s-37.833 29.166 -46.5 50.499l61 45c8 -32.667 28 -49 60 -49c12 0 21.5 2.83301 28.5 8.5s10.5 13.5 10.5 23.5c0 12.667 -9 24.334 -27 35.001s-41.333 18.667 -70 24l46 75c-52.667 4.66699 -95.334 20.167 -128.001 46.5s-52 58.833 -58 97.5l119 33
c4 -30.667 14.167 -51.834 30.5 -63.501s40.833 -17.5 73.5 -17.5c53.333 0 80 16.667 80 50c0 15.333 -5 27 -15 35s-29 14.333 -57 19l-82 13c-44 7.33301 -78.167 23.333 -102.5 48s-36.5 57.667 -36.5 99c0 46.667 17.333 83.167 52 109.5s82.667 39.5 144 39.5
c122 0 191.667 -47.333 209 -142l-112 -27c-3.33301 30 -11.666 50.333 -24.999 61s-36 16 -68 16c-48 0 -72 -17 -72 -51c0 -14.667 4.5 -26 13.5 -34s24.833 -13.667 47.5 -17l100 -15c41.333 -5.33301 73.5 -20.166 96.5 -44.499s34.5 -56.166 34.5 -95.499z" />
    <glyph glyph-name="Scaron" unicode="&#x160;" horiz-adv-x="623" 
d="M369 760h-111l-123 173h79l100 -79l99 79h79zM405 400c122 -22.667 182.998 -85.6689 182.998 -189.002c0 -66.667 -24 -120.167 -72 -160.5s-112.667 -60.5 -194 -60.5c-80.667 0 -146.167 18.167 -196.5 54.5s-80.5 92.166 -90.5 167.499l135 36
c5.33301 -56 20.333 -94.333 45 -115s61.334 -31 110.001 -31c44.667 0 77 7.33301 97 22s30 37.667 30 69c0 28.667 -7.16699 48.334 -21.5 59.001s-41.833 20 -82.5 28l-119 23c-118 22.667 -177 89.667 -177 201c0 62 23.333 111.833 70 149.5s108 56.5 184 56.5
c79.333 0 142.833 -18.333 190.5 -55s74.834 -91 81.501 -163l-126 -35c-2.66699 54.667 -16.167 91.5 -40.5 110.5s-59.833 28.5 -106.5 28.5c-77.333 0 -116 -28.667 -116 -86c0 -29.333 7.83301 -49.666 23.5 -60.999s43.167 -20.666 82.5 -27.999z" />
    <glyph glyph-name="scaron" unicode="&#x161;" horiz-adv-x="486" 
d="M294 560h-111l-123 173h79l100 -79l99 79h79zM325 291c41.333 -5.33301 73.499 -20.167 96.499 -44.5s34.5 -56.166 34.5 -95.499c0 -50.667 -19 -90.167 -57 -118.5s-90.667 -42.5 -158 -42.5c-60.667 0 -110 13.667 -148 41s-60.333 62 -67 104l119 33
c4 -30.667 14.167 -51.834 30.5 -63.501s40.833 -17.5 73.5 -17.5c53.333 0 80 16.667 80 50c0 15.333 -5 27 -15 35s-29 14.333 -57 19l-82 13c-44 7.33301 -78.167 23.333 -102.5 48s-36.5 57.667 -36.5 99c0 46.667 17.333 83.167 52 109.5s82.667 39.5 144 39.5
c122 0 191.667 -47.333 209 -142l-112 -27c-3.33301 30 -11.666 50.333 -24.999 61s-36 16 -68 16c-48 0 -72 -17 -72 -51c0 -14.667 4.5 -26 13.5 -34s24.833 -13.667 47.5 -17z" />
    <glyph glyph-name="uni0162" unicode="&#x162;" horiz-adv-x="587" 
d="M359 0h-30.999l-34 -55c32.667 -2 57.834 -11 75.501 -27s26.5 -36 26.5 -60c0 -28.667 -11.333 -52.167 -34 -70.5s-51.334 -27.5 -86.001 -27.5c-28.667 0 -54.167 6.16699 -76.5 18.5s-37.833 29.166 -46.5 50.499l61 45c8.66699 -32.667 29 -49 61 -49
c11.333 0 20.5 2.83301 27.5 8.5s10.5 13.5 10.5 23.5c0 12.667 -8.83301 24.334 -26.5 35.001s-40.834 18.667 -69.501 24l51 84h-40v582h-210v118h550v-118h-209v-582z" />
    <glyph glyph-name="uni0163" unicode="&#x163;" horiz-adv-x="410" 
d="M381 378l-141.999 0.000976562v-266h130v-112h-105l-33 -55c32.667 -2 57.667 -10.833 75 -26.5s26 -35.834 26 -60.501c0 -28.667 -11.333 -52.167 -34 -70.5s-51 -27.5 -85 -27.5c-28.667 0 -54.167 6.16699 -76.5 18.5s-37.833 29.166 -46.5 50.499l61 45
c8 -32.667 28 -49 60 -49c11.333 0 20.666 2.83301 27.999 8.5s11 13.5 11 23.5c0 12.667 -9 24.334 -27 35.001s-41.333 18.667 -70 24l56 92h1c-30 9.33301 -53.833 26.833 -71.5 52.5s-26.5 56.167 -26.5 91.5v226h-94v112h94v146h127v-146h142v-112z" />
    <glyph glyph-name="Tcaron" unicode="&#x164;" horiz-adv-x="587" 
d="M349 760h-111l-123 173h79l100 -79l99 79h79zM568 700v-118h-209v-582h-131v582h-210v118h550z" />
    <glyph glyph-name="tcaron" unicode="&#x165;" horiz-adv-x="410" 
d="M438 793l-65 -247h-69v247h134zM239 636v-146h142v-112h-142v-266h130v-112h-105c-45.333 0 -82 14 -110 42s-42 64.667 -42 110v226h-94v112h94v146h127z" />
    <glyph glyph-name="Tbar" unicode="&#x166;" horiz-adv-x="587" 
d="M568 582h-209v-185h114v-104h-114v-293h-131v293h-117v104h117v185h-210v118h550v-118z" />
    <glyph glyph-name="tbar" unicode="&#x167;" horiz-adv-x="410" 
d="M381 378h-142v-72h105v-81h-105v-113h130v-112h-105c-45.333 0 -82 14 -110 42s-42 64.667 -42 110v73h-76v81h76v72h-94v112h94v146h127v-146h142v-112z" />
    <glyph glyph-name="Umacron" unicode="&#x16a;" horiz-adv-x="756" 
d="M226 874h300v-91h-300v91zM546 700h131.999v-415c0 -95.333 -27.167 -168.333 -81.5 -219s-127.166 -76 -218.499 -76s-164.166 25.333 -218.499 76s-81.5 123.667 -81.5 219v415h132v-430c0 -58.667 13.167 -100 39.5 -124s69.166 -36 128.499 -36c60 0 103 12 129 36
s39 65.333 39 124v430z" />
    <glyph glyph-name="umacron" unicode="&#x16b;" horiz-adv-x="603" 
d="M448 684v-91h-300v91h300zM404 490h126.999v-490h-127v115c-25.333 -83.333 -79.666 -125 -162.999 -125c-116 0 -174 69 -174 207v293h127v-286c0 -66 31.333 -99 94 -99c36 0 64.333 12.833 85 38.5s31 63.167 31 112.5v234z" />
    <glyph glyph-name="Uring" unicode="&#x16e;" horiz-adv-x="756" 
d="M376 725c-37.333 0 -68 11.167 -92 33.5s-36 50.833 -36 85.5c0 35.333 12 64 36 86s54.667 33 92 33s68 -11 92 -33s36 -50.667 36 -86c0 -34.667 -12 -63.167 -36 -85.5s-54.667 -33.5 -92 -33.5zM377 799c16.667 0 28.334 3.5 35.001 10.5s10 18.5 10 34.5
c0 16.667 -3.33301 28.334 -10 35.001s-18.334 10 -35.001 10c-17.333 0 -29.5 -3.33301 -36.5 -10s-10.5 -18.334 -10.5 -35.001c0 -16 3.66699 -27.5 11 -34.5s19.333 -10.5 36 -10.5zM546 700h131.999v-415c0 -95.333 -27.167 -168.333 -81.5 -219
s-127.166 -76 -218.499 -76s-164.166 25.333 -218.499 76s-81.5 123.667 -81.5 219v415h132v-430c0 -58.667 13.167 -100 39.5 -124s69.166 -36 128.499 -36c60 0 103 12 129 36s39 65.333 39 124v430z" />
    <glyph glyph-name="uring" unicode="&#x16f;" horiz-adv-x="603" 
d="M298 545c-37.333 0 -68 11.167 -92 33.5s-36 50.833 -36 85.5c0 35.333 12 64 36 86s54.667 33 92 33s68 -11 92 -33s36 -50.667 36 -86c0 -34.667 -12 -63.167 -36 -85.5s-54.667 -33.5 -92 -33.5zM299 709c-17.333 0 -29.5 -3.33301 -36.5 -10
s-10.5 -18.334 -10.5 -35.001c0 -16 3.66699 -27.5 11 -34.5s19.333 -10.5 36 -10.5s28.334 3.5 35.001 10.5s10 18.5 10 34.5c0 16.667 -3.33301 28.334 -10 35.001s-18.334 10 -35.001 10zM404 490h126.999v-490h-127v115c-25.333 -83.333 -79.666 -125 -162.999 -125
c-116 0 -174 69 -174 207v293h127v-286c0 -66 31.333 -99 94 -99c36 0 64.333 12.833 85 38.5s31 63.167 31 112.5v234z" />
    <glyph glyph-name="Uhungarumlaut" unicode="&#x170;" horiz-adv-x="756" 
d="M470 913l-152 -153h-70l61 173h349l-171 -173h-71zM546 700h131.999v-415c0 -95.333 -27.167 -168.333 -81.5 -219s-127.166 -76 -218.499 -76s-164.166 25.333 -218.499 76s-81.5 123.667 -81.5 219v415h132v-430c0 -58.667 13.167 -100 39.5 -124
s69.166 -36 128.499 -36c60 0 103 12 129 36s39 65.333 39 124v430z" />
    <glyph glyph-name="uhungarumlaut" unicode="&#x171;" horiz-adv-x="603" 
d="M392 713l-152 -153h-70l61 173h349l-171 -173h-71zM404 256l-0.000976562 234h127v-490h-127v115c-25.333 -83.333 -79.666 -125 -162.999 -125c-116 0 -174 69 -174 207v293h127v-286c0 -66 31.333 -99 94 -99c36 0 64.333 12.833 85 38.5s31 63.167 31 112.5z" />
    <glyph glyph-name="Uogonek" unicode="&#x172;" horiz-adv-x="756" 
d="M546 700l131.998 -0.000976562v-415c0 -82.667 -20.667 -148.667 -62 -198s-97.666 -80 -168.999 -92c-15.333 -11.333 -26.666 -20.166 -33.999 -26.499s-13.833 -13.666 -19.5 -21.999s-8.5 -16.5 -8.5 -24.5c0 -22.667 14 -34 42 -34c20.667 0 38.334 3 53.001 9v-77
c-25.333 -6.66699 -51 -10 -77 -10c-37.333 0 -65.833 8.16699 -85.5 24.5s-29.5 36.5 -29.5 60.5c0 41.333 28.333 73 85 95c-90 1.33301 -161.667 27.166 -215 77.499s-80 122.833 -80 217.5v415h132v-430c0 -58.667 13.167 -100 39.5 -124s69.166 -36 128.499 -36
c60 0 103 12 129 36s39 65.333 39 124v430z" />
    <glyph glyph-name="uogonek" unicode="&#x173;" horiz-adv-x="603" 
d="M501 0c-25.333 -18.667 -43.001 -33.334 -53.001 -44.001s-15 -22 -15 -34c0 -22.667 14 -34 42 -34c20.667 0 38.334 3 53.001 9v-77c-24.667 -6.66699 -50.334 -10 -77.001 -10c-37.333 0 -65.833 8.16699 -85.5 24.5s-29.5 36.5 -29.5 60.5c0 22 9.5 42.333 28.5 61
s47.833 33.334 86.5 44.001h-47v115c-25.333 -83.333 -79.666 -125 -162.999 -125c-116 0 -174 69 -174 207v293h127v-286c0 -66 31.333 -99 94 -99c36 0 64.333 12.833 85 38.5s31 63.167 31 112.5v234h127v-490h-30z" />
    <glyph glyph-name="Wcircumflex" unicode="&#x174;" horiz-adv-x="1033" 
d="M517 839l-100 -79h-79l123 173h111l123 -173h-79zM878 700h148l-175 -700h-172l-137 442l-25 115l-26 -116l-137 -441h-172l-175 700h149l94 -459l19 -109l26 109l132 459h178l133 -459l27 -110l19 110z" />
    <glyph glyph-name="wcircumflex" unicode="&#x175;" horiz-adv-x="815" 
d="M409 639l-100 -79h-79l123 173h111l123 -173h-79zM666 490h136l-142 -490h-137l-89 253l-26 92l-27 -93l-89 -252h-134l-145 490h138l66 -282l16 -84l22 85l90 281h125l89 -281l24 -90l17 90z" />
    <glyph glyph-name="Ycircumflex" unicode="&#x176;" horiz-adv-x="661" 
d="M332 839l-100 -79h-79l123 173h111l123 -173h-79zM496 700h153l-251 -421v-279h-132v277l-254 423h153l166 -298z" />
    <glyph glyph-name="ycircumflex" unicode="&#x177;" horiz-adv-x="548" 
d="M282 639l-100 -79h-79l123 173h111l123 -173h-79zM399 490h138l-208 -544c-15.333 -40.667 -36.5 -70.167 -63.5 -88.5s-66.167 -27.5 -117.5 -27.5h-102v112h170l-205 548h138l94 -290l29 -109l32 109z" />
    <glyph glyph-name="Ydieresis" unicode="&#x178;" horiz-adv-x="661" 
d="M211 767c-26.667 0 -47.167 7.00098 -61.5 21.001s-21.5 34 -21.5 60c0 52 27.667 78 83 78c26.667 0 47.167 -6.83301 61.5 -20.5s21.5 -32.834 21.5 -57.501c0 -26 -7.16699 -46 -21.5 -60s-34.833 -21 -61.5 -21zM449 767.001c-26 0 -46.165 6.99902 -60.498 20.999
s-21.5 34 -21.5 60c-0.666992 24.667 6.16602 43.834 20.499 57.501s34.833 20.5 61.5 20.5c54.667 0 82.667 -26 84 -78c0 -26 -7.33301 -46 -22 -60s-35.334 -21 -62.001 -21zM496.002 700h153l-251 -421v-279h-132v277l-254 423h153l166 -298z" />
    <glyph glyph-name="Zacute" unicode="&#x179;" horiz-adv-x="617" 
d="M497 933l-172 -173h-70l61 173h181zM178 118h399v-118h-537v123l361 459h-352v118h519v-127l-248 -308z" />
    <glyph glyph-name="zacute" unicode="&#x17a;" horiz-adv-x="488" 
d="M435 733l-172 -173h-70l61 173h181zM176 110h279v-110h-412v106l242 274h-236v110h396v-107l-165 -181z" />
    <glyph glyph-name="Zdotaccent" unicode="&#x17b;" horiz-adv-x="617" 
d="M307 768c-26.667 0 -47.167 7.00098 -61.5 21.001s-21.5 34 -21.5 60c0 52 27.667 78 83 78c26.667 0 47.167 -6.83301 61.5 -20.5s21.5 -32.834 21.5 -57.501c0 -26 -7.16699 -46 -21.5 -60s-34.833 -21 -61.5 -21zM178 118.001h399v-118h-537v123l361 459h-352v118h519
v-127l-248 -308z" />
    <glyph glyph-name="zdotaccent" unicode="&#x17c;" horiz-adv-x="488" 
d="M245 572c-26.667 0 -47.167 7.00098 -61.5 21.001s-21.5 34 -21.5 60c0 52 27.667 78 83 78c26.667 0 47.167 -6.83301 61.5 -20.5s21.5 -32.834 21.5 -57.501c0 -26 -7.16699 -46 -21.5 -60s-34.833 -21 -61.5 -21zM176 110.001h279v-110h-412v106l242 274h-236v110h396
v-107l-165 -181z" />
    <glyph glyph-name="Zcaron" unicode="&#x17d;" horiz-adv-x="617" 
d="M363 760h-111l-123 173h79l100 -79l99 79h79zM178 118h399v-118h-537v123l361 459h-352v118h519v-127l-248 -308z" />
    <glyph glyph-name="zcaron" unicode="&#x17e;" horiz-adv-x="488" 
d="M301 560h-111l-123 173h79l100 -79l99 79h79zM176 110h279v-110h-412v106l242 274h-236v110h396v-107l-165 -181z" />
    <glyph glyph-name="uni0218" unicode="&#x218;" horiz-adv-x="623" 
d="M405 400c122 -22.667 182.998 -85.6689 182.998 -189.002c0 -66.667 -24 -120.167 -72 -160.5s-112.667 -60.5 -194 -60.5c-80.667 0 -146.167 18.167 -196.5 54.5s-80.5 92.166 -90.5 167.499l135 36c5.33301 -56 20.333 -94.333 45 -115s61.334 -31 110.001 -31
c44.667 0 77 7.33301 97 22s30 37.667 30 69c0 28.667 -7.16699 48.334 -21.5 59.001s-41.833 20 -82.5 28l-119 23c-118 22.667 -177 89.667 -177 201c0 62 23.333 111.833 70 149.5s108 56.5 184 56.5c79.333 0 142.833 -18.333 190.5 -55s74.834 -91 81.501 -163
l-126 -35c-2.66699 54.667 -16.167 91.5 -40.5 110.5s-59.833 28.5 -106.5 28.5c-77.333 0 -116 -28.667 -116 -86c0 -29.333 7.83301 -49.666 23.5 -60.999s43.167 -20.666 82.5 -27.999zM305.998 -37.002c20 0 36.168 -5.83203 48.501 -17.499
s18.833 -26.834 19.5 -45.501c0 -14 -3.33301 -26.333 -10 -37l-66 -102h-96l92 75c-16 2.66699 -29 9.66699 -39 21s-15 25.666 -15 42.999c0 18.667 6.16699 33.834 18.5 45.501s28.166 17.5 47.499 17.5z" />
    <glyph glyph-name="uni0219" unicode="&#x219;" horiz-adv-x="486" 
d="M325 291c41.333 -5.33301 73.499 -20.167 96.499 -44.5s34.5 -56.166 34.5 -95.499c0 -50.667 -19 -90.167 -57 -118.5s-90.667 -42.5 -158 -42.5c-60.667 0 -110 13.667 -148 41s-60.333 62 -67 104l119 33c4 -30.667 14.167 -51.834 30.5 -63.501
s40.833 -17.5 73.5 -17.5c53.333 0 80 16.667 80 50c0 15.333 -5 27 -15 35s-29 14.333 -57 19l-82 13c-44 7.33301 -78.167 23.333 -102.5 48s-36.5 57.667 -36.5 99c0 46.667 17.333 83.167 52 109.5s82.667 39.5 144 39.5c122 0 191.667 -47.333 209 -142l-112 -27
c-3.33301 30 -11.666 50.333 -24.999 61s-36 16 -68 16c-48 0 -72 -17 -72 -51c0 -14.667 4.5 -26 13.5 -34s24.833 -13.667 47.5 -17zM218.999 -37.001c19.333 0 35.334 -5.83203 48.001 -17.499s19 -26.834 19 -45.501c0 -14 -3.33301 -26.333 -10 -37l-66 -102h-96l92 75
c-16 2.66699 -28.833 9.66699 -38.5 21s-14.834 25.666 -15.501 42.999c0 18.667 6.33301 33.834 19 45.501s28.667 17.5 48 17.5z" />
    <glyph glyph-name="uni021A" unicode="&#x21a;" horiz-adv-x="587" 
d="M568 700v-118h-209v-582h-131v582h-210v118h550zM286 -37c20 0 36.168 -5.83203 48.501 -17.499s18.833 -26.834 19.5 -45.501c0 -14 -3.33301 -26.333 -10 -37l-66 -102h-96l92 75c-16 2.66699 -29 9.66699 -39 21s-15 25.666 -15 42.999
c0 18.667 6.16699 33.834 18.5 45.501s28.166 17.5 47.499 17.5z" />
    <glyph glyph-name="uni021B" unicode="&#x21b;" horiz-adv-x="410" 
d="M381 378h-142v-266h130v-112h-105c-45.333 0 -82 14 -110 42s-42 64.667 -42 110v226h-94v112h94v146h127v-146h142v-112zM205 -37c20 0 36.168 -5.83203 48.501 -17.499s18.833 -26.834 19.5 -45.501c0 -14 -3.33301 -26.333 -10 -37l-66 -102h-96l92 75
c-16 2.66699 -29 9.66699 -39 21s-15 25.666 -15 42.999c0 18.667 6.16699 33.834 18.5 45.501s28.166 17.5 47.499 17.5z" />
    <glyph glyph-name="uni0237" unicode="&#x237;" horiz-adv-x="270" 
d="M-14 -170v115h85v545h127v-508c0 -45.333 -13.833 -82 -41.5 -110s-64.167 -42 -109.5 -42h-61z" />
    <glyph glyph-name="gravecomb" unicode="&#x300;" horiz-adv-x="0" 
d="M-490 733h181l61 -173h-70z" />
    <glyph glyph-name="acutecomb" unicode="&#x301;" horiz-adv-x="0" 
d="M-110 733l-172 -173h-70l61 173h181z" />
    <glyph glyph-name="uni0302" unicode="&#x302;" horiz-adv-x="0" 
d="M-121 560h-79l-99 79l-100 -79h-79l123 173h111z" />
    <glyph glyph-name="tildecomb" unicode="&#x303;" horiz-adv-x="0" 
d="M-220 554c-22 0 -43.166 5.83203 -63.499 17.499s-38.333 23.334 -54 35.001s-29.167 17.5 -40.5 17.5c-17.333 0 -26 -18.667 -26 -56h-59c0 56 6.5 95.5 19.5 118.5s34.833 34.5 65.5 34.5c17.333 0 34.166 -3.66699 50.499 -11s29.5 -15.5 39.5 -24.5
s21 -17.167 33 -24.5s22.667 -11 32 -11c18.667 0 28 18.667 28 56h58c0 -54.667 -6.16699 -93.667 -18.5 -117s-33.833 -35 -64.5 -35z" />
    <glyph glyph-name="uni0304" unicode="&#x304;" horiz-adv-x="0" 
d="M-450 684h300v-91h-300v91z" />
    <glyph glyph-name="uni0306" unicode="&#x306;" horiz-adv-x="0" 
d="M-301 560c-48 0 -86.834 14.166 -116.501 42.499s-45.167 65.833 -46.5 112.5h104c0 -25.333 4.33301 -43.166 13 -53.499s24 -15.5 46 -15.5c23.333 0 39.5 5 48.5 15s13.5 28 13.5 54h104c-1.33301 -46.667 -17.166 -84.167 -47.499 -112.5s-69.833 -42.5 -118.5 -42.5
z" />
    <glyph glyph-name="uni0307" unicode="&#x307;" horiz-adv-x="0" 
d="M-300 572c-26.667 0 -47.167 7.00098 -61.5 21.001s-21.5 34 -21.5 60c0 52 27.667 78 83 78c26.667 0 47.167 -6.83301 61.5 -20.5s21.5 -32.834 21.5 -57.501c0 -26 -7.16699 -46 -21.5 -60s-34.833 -21 -61.5 -21z" />
    <glyph glyph-name="uni0308" unicode="&#x308;" horiz-adv-x="0" 
d="M-413 572c-54 0 -81.6689 27 -83.002 81c0 24.667 7.16699 43.834 21.5 57.501s34.833 20.5 61.5 20.5s47.167 -6.83301 61.5 -20.5s21.5 -32.834 21.5 -57.501c0.666992 -26 -6.16602 -46 -20.499 -60s-35.166 -21 -62.499 -21zM-188.002 572
c-54 0 -81.6689 27 -83.002 81c0 24.667 7.16699 43.834 21.5 57.501s34.833 20.5 61.5 20.5s47.167 -6.83301 61.5 -20.5s21.5 -32.834 21.5 -57.501c0.666992 -26 -6.16602 -46 -20.499 -60s-35.166 -21 -62.499 -21z" />
    <glyph glyph-name="uni030A" unicode="&#x30a;" horiz-adv-x="0" 
d="M-300 545c-37.333 0 -68 11.167 -92 33.5s-36 50.833 -36 85.5c0 35.333 12 64 36 86s54.667 33 92 33s68 -11 92 -33s36 -50.667 36 -86c0 -34.667 -12 -63.167 -36 -85.5s-54.667 -33.5 -92 -33.5zM-299 619c16.667 0 28.334 3.5 35.001 10.5s10 18.5 10 34.5
c0 16.667 -3.33301 28.334 -10 35.001s-18.334 10 -35.001 10c-17.333 0 -29.5 -3.33301 -36.5 -10s-10.5 -18.334 -10.5 -35.001c0 -16 3.66699 -27.5 11 -34.5s19.333 -10.5 36 -10.5z" />
    <glyph glyph-name="uni030B" unicode="&#x30b;" horiz-adv-x="0" 
d="M-18 733l-171 -173h-71l54 153l-152 -153h-70l61 173h349z" />
    <glyph glyph-name="uni030C" unicode="&#x30c;" horiz-adv-x="0" 
d="M-200 733h79l-123 -173h-111l-123 173h79l100 -79z" />
    <glyph glyph-name="uni0312" unicode="&#x312;" horiz-adv-x="0" 
d="M-295 680c19.333 -0.666992 34.667 -7.16699 46 -19.5s17 -28.833 17 -49.5c0.666992 -21.333 -5 -37.666 -17 -48.999s-29.333 -17 -52 -17c-22 0 -39 5.66699 -51 17s-18 27.666 -18 48.999c0 18.667 6 38.667 18 60l66 118h92z" />
    <glyph glyph-name="uni0326" unicode="&#x326;" horiz-adv-x="0" 
d="M-307 -37c20 0 36.168 -5.83203 48.501 -17.499s18.833 -26.834 19.5 -45.501c0 -14 -3.33301 -26.333 -10 -37l-66 -102h-96l92 75c-16 2.66699 -29 9.66699 -39 21s-15 25.666 -15 42.999c0 18.667 6.16699 33.834 18.5 45.501s28.166 17.5 47.499 17.5z" />
    <glyph glyph-name="uni0327" unicode="&#x327;" horiz-adv-x="0" 
d="M-288 -55c32.667 -2 57.667 -10.832 75 -26.499s26 -35.834 26 -60.501c0 -28.667 -11.333 -52.167 -34 -70.5s-51 -27.5 -85 -27.5c-28.667 0 -54.167 6.16699 -76.5 18.5s-37.833 29.166 -46.5 50.499l61 45c8 -32.667 28 -49 60 -49c12 0 21.5 2.83301 28.5 8.5
s10.5 13.5 10.5 23.5c0 12.667 -9 24.334 -27 35.001s-41.333 18.667 -70 24l56 92h60z" />
    <glyph glyph-name="uni0328" unicode="&#x328;" horiz-adv-x="0" 
d="M-396 -105c0 26 13.499 49.502 40.499 70.502s67.5 35.833 121.5 44.5l12 -3l-33.5 -25.5c-5 -3.66699 -12.167 -9.83398 -21.5 -18.501s-15.333 -15.834 -18 -21.501s-4 -12.167 -4 -19.5c0 -22.667 14 -34 42 -34c20.667 0 38.334 3 53.001 9v-77
c-25.333 -6.66699 -51 -10 -77 -10c-37.333 0 -65.833 8.16699 -85.5 24.5s-29.5 36.5 -29.5 60.5z" />
    <glyph glyph-name="uni0335" unicode="&#x335;" horiz-adv-x="0" 
d="M-481 392h362v-86h-362v86z" />
    <glyph glyph-name="uni0336" unicode="&#x336;" horiz-adv-x="0" 
d="M-660 396h720v-87h-720v87z" />
    <glyph glyph-name="uni0337" unicode="&#x337;" horiz-adv-x="0" 
d="M-542 47l225 245l190 258l71 -61l-215 -236l-199 -270z" />
    <glyph glyph-name="uni0338" unicode="&#x338;" horiz-adv-x="0" 
d="M-650 26l321 348l301 370l77 -71l-313 -344l-308 -373z" />
    <glyph glyph-name="Wgrave" unicode="&#x1e80;" horiz-adv-x="1033" 
d="M568 760h-70l-172 173h181zM878 700h148l-175 -700h-172l-137 442l-25 115l-26 -116l-137 -441h-172l-175 700h149l94 -459l19 -109l26 109l132 459h178l133 -459l27 -110l19 110z" />
    <glyph glyph-name="wgrave" unicode="&#x1e81;" horiz-adv-x="815" 
d="M460 560h-70l-172 173h181zM666 490h136l-142 -490h-137l-89 253l-26 92l-27 -93l-89 -252h-134l-145 490h138l66 -282l16 -84l22 85l90 281h125l89 -281l24 -90l17 90z" />
    <glyph glyph-name="Wacute" unicode="&#x1e82;" horiz-adv-x="1033" 
d="M706 933l-172 -173h-70l61 173h181zM878 700h148l-175 -700h-172l-137 442l-25 115l-26 -116l-137 -441h-172l-175 700h149l94 -459l19 -109l26 109l132 459h178l133 -459l27 -110l19 110z" />
    <glyph glyph-name="wacute" unicode="&#x1e83;" horiz-adv-x="815" 
d="M598 733l-172 -173h-70l61 173h181zM666 490h136l-142 -490h-137l-89 253l-26 92l-27 -93l-89 -252h-134l-145 490h138l66 -282l16 -84l22 85l90 281h125l89 -281l24 -90l17 90z" />
    <glyph glyph-name="Wdieresis" unicode="&#x1e84;" horiz-adv-x="1033" 
d="M396 767c-26.667 0 -47.167 7.00098 -61.5 21.001s-21.5 34 -21.5 60c0 52 27.667 78 83 78c26.667 0 47.167 -6.83301 61.5 -20.5s21.5 -32.834 21.5 -57.501c0 -26 -7.16699 -46 -21.5 -60s-34.833 -21 -61.5 -21zM634 767.001c-26 0 -46.165 6.99902 -60.498 20.999
s-21.5 34 -21.5 60c-0.666992 24.667 6.16602 43.834 20.499 57.501s34.833 20.5 61.5 20.5c54.667 0 82.667 -26 84 -78c0 -26 -7.33301 -46 -22 -60s-35.334 -21 -62.001 -21zM878.002 700h148l-175 -700h-172l-137 442l-25 115l-26 -116l-137 -441h-172l-175 700h149
l94 -459l19 -109l26 109l132 459h178l133 -459l27 -110l19 110z" />
    <glyph glyph-name="wdieresis" unicode="&#x1e85;" horiz-adv-x="815" 
d="M295 572c-54 0 -81.6689 27 -83.002 81c0 24.667 7.16699 43.834 21.5 57.501s34.833 20.5 61.5 20.5s47.167 -6.83301 61.5 -20.5s21.5 -32.834 21.5 -57.501c0.666992 -26 -6.16602 -46 -20.499 -60s-35.166 -21 -62.499 -21zM519.998 572
c-54 0 -81.6689 27 -83.002 81c0 24.667 7.16699 43.834 21.5 57.501s34.833 20.5 61.5 20.5s47.167 -6.83301 61.5 -20.5s21.5 -32.834 21.5 -57.501c0.666992 -26 -6.16602 -46 -20.499 -60s-35.166 -21 -62.499 -21zM665.996 490h136l-142 -490h-137l-89 253l-26 92
l-27 -93l-89 -252h-134l-145 490h138l66 -282l16 -84l22 85l90 281h125l89 -281l24 -90l17 90z" />
    <glyph glyph-name="uni1E9E" unicode="&#x1e9e;" horiz-adv-x="733" 
d="M463 453c0 -16 5.66699 -29.668 17 -41.001s25.666 -20 42.999 -26s36 -14 56 -24s38.667 -21 56 -33s31.666 -30 42.999 -54s17 -52.667 17 -86c0 -66 -20.167 -115.667 -60.5 -149s-96.166 -50 -167.499 -50c-66.667 0 -120.667 14 -162 42l54 125
c33.333 -32 70 -48 110 -48c59.333 0 89 24 89 72c0 20 -7.66699 36.5 -23 49.5s-33.666 23.5 -54.999 31.5s-42.833 17 -64.5 27s-40.167 25.167 -55.5 45.5s-23 45.5 -23 75.5c0 35.333 12.667 68.833 38 100.5s67.333 54.5 126 68.5h-294v-579h-132v530
c0 51.333 16.167 92.5 48.5 123.5s74.833 46.5 127.5 46.5h385v-111c-48.667 -10.667 -89.667 -29.167 -123 -55.5s-50 -53.166 -50 -80.499z" />
    <glyph glyph-name="Ygrave" unicode="&#x1ef2;" horiz-adv-x="661" 
d="M383 760h-70l-172 173h181zM496 700h153l-251 -421v-279h-132v277l-254 423h153l166 -298z" />
    <glyph glyph-name="ygrave" unicode="&#x1ef3;" horiz-adv-x="548" 
d="M333 560h-70l-172 173h181zM399 490h138l-208 -544c-15.333 -40.667 -36.5 -70.167 -63.5 -88.5s-66.167 -27.5 -117.5 -27.5h-102v112h170l-205 548h138l94 -290l29 -109l32 109z" />
    <glyph glyph-name="uni2009" unicode="&#x2009;" horiz-adv-x="113" 
 />
    <glyph glyph-name="endash" unicode="&#x2013;" horiz-adv-x="638" 
d="M66 342h505v-108h-505v108z" />
    <glyph glyph-name="emdash" unicode="&#x2014;" horiz-adv-x="1030" 
d="M66 342h897v-108h-897v108z" />
    <glyph glyph-name="quoteleft" unicode="&#x2018;" horiz-adv-x="267" 
d="M140 567c24 -0.666992 43 -8.5 57 -23.5s21 -35.167 21 -60.5c0.666992 -25.333 -6.33301 -45 -21 -59s-35.667 -21 -63 -21s-48.333 7 -63 21s-22 33.667 -22 59c0 22 7.33301 46.667 22 74l81 143h112z" />
    <glyph glyph-name="quoteright" unicode="&#x2019;" horiz-adv-x="267" 
d="M133 710c27.333 0 48.332 -7 62.999 -21s22 -33.667 22 -59c0 -23.333 -7.33301 -48 -22 -74l-81 -143h-112l124 132c-24 1.33301 -43 9.5 -57 24.5s-21 35.167 -21 60.5s7.33301 45 22 59s35.334 21 62.001 21z" />
    <glyph glyph-name="quotesinglbase" unicode="&#x201a;" horiz-adv-x="267" 
d="M133 158c27.333 0 48.332 -7 62.999 -21s22 -33.667 22 -59c0 -23.333 -7.33301 -48 -22 -74l-81 -143h-112l125 133c-24 0.666992 -43.167 8.5 -57.5 23.5s-21.5 35.167 -21.5 60.5s7.33301 45 22 59s35.334 21 62.001 21z" />
    <glyph glyph-name="quotedblleft" unicode="&#x201c;" horiz-adv-x="476" 
d="M140 567c24 -0.666992 43 -8.5 57 -23.5s21 -35.167 21 -60.5c0.666992 -25.333 -6.33301 -45 -21 -59s-35.667 -21 -63 -21s-48.333 7 -63 21s-22 33.667 -22 59c0 22 7.33301 46.667 22 74l81 143h112zM348 567c24 -0.666992 42.999 -8.5 56.999 -23.5
s21.333 -35.167 22 -60.5c0 -25.333 -7.33301 -45 -22 -59s-35.667 -21 -63 -21c-55.333 0 -83.666 26.667 -84.999 80c0 22 7.66699 46.667 23 74l80 143h112z" />
    <glyph glyph-name="quotedblright" unicode="&#x201d;" horiz-adv-x="476" 
d="M133 710c27.333 0 48.332 -7 62.999 -21s22 -33.667 22 -59c0 -23.333 -7.33301 -48 -22 -74l-81 -143h-112l124 132c-24 1.33301 -43 9.5 -57 24.5s-21 35.167 -21 60.5s7.33301 45 22 59s35.334 21 62.001 21zM341.999 710c55.333 0 83.667 -26.667 85 -80
c0 -22 -7.66699 -46.667 -23 -74l-80 -143h-112l123 132c-23.333 1.33301 -42 9.5 -56 24.5s-21.333 35.167 -22 60.5c0 25.333 7.33301 45 22 59s35.667 21 63 21z" />
    <glyph glyph-name="quotedblbase" unicode="&#x201e;" horiz-adv-x="476" 
d="M133 158c27.333 0 48.332 -7 62.999 -21s22 -33.667 22 -59c0 -23.333 -7.33301 -48 -22 -74l-81 -143h-112l125 133c-24 0.666992 -43.167 8.5 -57.5 23.5s-21.5 35.167 -21.5 60.5s7.33301 45 22 59s35.334 21 62.001 21zM341.999 158c55.333 0 83.667 -26.667 85 -80
c0 -22 -7.66699 -46.667 -23 -74l-80 -143h-112l124 133c-24 0.666992 -43 8.5 -57 23.5s-21.333 35.167 -22 60.5c0 25.333 7.33301 45 22 59s35.667 21 63 21z" />
    <glyph glyph-name="dagger" unicode="&#x2020;" horiz-adv-x="369" 
d="M344 591v-83h-113v-240h-92v240h-114v83h114v109h92v-109h113z" />
    <glyph glyph-name="daggerdbl" unicode="&#x2021;" horiz-adv-x="369" 
d="M344 514h-113v-76h113v-76h-113v-99h-92v99h-114v76h114v76h-114v77h114v109h92v-109h113v-77z" />
    <glyph glyph-name="bullet" unicode="&#x2022;" horiz-adv-x="417" 
d="M208 471c51.333 0 90.833 -13.667 118.5 -41s41.5 -66.333 41.5 -117c0 -50 -13.833 -88.5 -41.5 -115.5s-67.167 -40.5 -118.5 -40.5c-50.667 0 -89.667 13.5 -117 40.5s-41 65.5 -41 115.5c0 50.667 13.667 89.667 41 117s66.333 41 117 41z" />
    <glyph glyph-name="ellipsis" unicode="&#x2026;" horiz-adv-x="746" 
d="M133 -5c-26.667 0 -47.168 7 -61.501 21s-21.5 34.333 -21.5 61c-0.666992 26 6.33301 46 21 60s35.334 21 62.001 21c27.333 0 48.333 -7 63 -21s22 -34 22 -60c0.666992 -26.667 -6.5 -47 -21.5 -61s-36.167 -21 -63.5 -21zM371.999 -5c-26.667 0 -47.168 7 -61.501 21
s-21.5 34.333 -21.5 61c-0.666992 26 6.33301 46 21 60s35.334 21 62.001 21c27.333 0 48.333 -7 63 -21s22 -34 22 -60c0.666992 -26.667 -6.5 -47 -21.5 -61s-36.167 -21 -63.5 -21zM611.998 -5c-26.667 0 -47.333 7 -62 21s-22 34.333 -22 61c0 26 7.33301 46 22 60
s35.334 21 62.001 21c55.333 0 83.666 -27 84.999 -81c0 -54.667 -28.333 -82 -85 -82z" />
    <glyph glyph-name="perthousand" unicode="&#x2030;" horiz-adv-x="1408" 
d="M249 332c-56 0 -103.167 17.667 -141.5 53s-57.5 81 -57.5 137c0 54.667 19.333 99.667 58 135s85.667 53 141 53s102 -17.667 140 -53s57 -80.333 57 -135c0 -56 -19 -101.667 -57 -137s-84.667 -53 -140 -53zM684 700h99l-263 -351l-244 -349h-101l271 356zM249 430
c60.667 0 91 30.667 91 92c0 60.667 -30.333 91 -91 91c-61.333 0 -92 -30.333 -92 -91c0 -61.333 30.667 -92 92 -92zM718 -10c-56 0 -103.167 17.667 -141.5 53s-57.5 81 -57.5 137c0 54.667 19.333 99.667 58 135s85.667 53 141 53s102 -17.667 140 -53
s57 -80.333 57 -135c0 -56 -19 -101.667 -57 -137s-84.667 -53 -140 -53zM1160 -10c-56 0 -103.167 17.667 -141.5 53s-57.5 81 -57.5 137c0 54.667 19.333 99.667 58 135s85.667 53 141 53s102.166 -17.5 140.499 -52.5s57.5 -80.167 57.5 -135.5
c0 -56 -19.167 -101.667 -57.5 -137s-85.166 -53 -140.499 -53zM718 88c60.667 0 91 30.667 91 92c0 60 -30.333 90 -91 90c-61.333 0 -92 -30 -92 -90c0 -61.333 30.667 -92 92 -92zM1160 88c60.667 0 91 30.667 91 92c0 60 -30.333 90 -91 90s-91 -30 -91 -90
c0 -61.333 30.333 -92 91 -92z" />
    <glyph glyph-name="guilsinglleft" unicode="&#x2039;" horiz-adv-x="360" 
d="M306 448l-173 -189l173 -188h-138l-120 188l120 189h138z" />
    <glyph glyph-name="guilsinglright" unicode="&#x203a;" horiz-adv-x="360" 
d="M54 448h138l119 -189l-119 -188h-138l173 188z" />
    <glyph glyph-name="fraction" unicode="&#x2044;" horiz-adv-x="199" 
d="M304 700h99l-263 -351l-243 -349h-102l271 356z" />
    <glyph glyph-name="uni2070" unicode="&#x2070;" horiz-adv-x="390" 
d="M194 810c50.667 0 91.5 -18 122.5 -54s46.5 -86.333 46.5 -151s-15.333 -115 -46 -151s-71.667 -54 -123 -54c-50.667 0 -91.167 18 -121.5 54s-45.5 86.333 -45.5 151c0 64 15.167 114.167 45.5 150.5s70.833 54.5 121.5 54.5zM194 480c29.333 0 49 8.66699 59 26
s15 50.333 15 99s-5 81.667 -15 99s-29.667 26 -59 26c-28 0 -47 -8.66699 -57 -26s-15 -50.333 -15 -99s5 -81.667 15 -99s29 -26 57 -26z" />
    <glyph glyph-name="uni2074" unicode="&#x2074;" horiz-adv-x="368" 
d="M352 566l0.000976562 -72h-54v-89h-83v89h-204v85c51.333 56 79.333 130.667 84 224h94c-12.667 -102 -51.334 -183.333 -116.001 -244l144 6l10 176h71v-175h54z" />
    <glyph glyph-name="uni2075" unicode="&#x2075;" horiz-adv-x="367" 
d="M226 673c36 0 65.167 -11.834 87.5 -35.501s33.5 -55.5 33.5 -95.5c0 -42 -15 -76.333 -45 -103s-68.333 -40 -115 -40c-41.333 0 -76.833 9.83301 -106.5 29.5s-48.167 46.167 -55.5 79.5l94 29c4.66699 -19.333 12.5 -33.666 23.5 -42.999s27.5 -14 49.5 -14
c44 0 66 21.333 66 64c0 41.333 -21 62 -63 62c-29.333 0 -52 -14.333 -68 -43l-83 26l14 214h273v-80h-85l-114 9l-10 -127c18 45.333 52.667 68 104 68z" />
    <glyph glyph-name="uni2076" unicode="&#x2076;" horiz-adv-x="352" 
d="M214 675c35.333 0 64.9951 -11.834 88.9951 -35.501s36 -55.167 36 -94.5c0 -42.667 -15.667 -77.667 -47 -105s-69.666 -41 -114.999 -41s-83 13.833 -113 41.5s-45 62.834 -45 105.501c0 38 11 77.333 33 118s60.333 87.334 115 140.001h129
c-7.33301 -6.66699 -27.166 -22.5 -59.499 -47.5s-58.166 -47.833 -77.499 -68.5s-37.666 -45.334 -54.999 -74.001c34.667 40.667 71.334 61 110.001 61zM178.995 480.999c42.667 0 64 20.667 64 62s-21 62 -63 62c-44 0 -66 -21 -66 -63c0 -40.667 21.667 -61 65 -61z" />
    <glyph glyph-name="uni2077" unicode="&#x2077;" horiz-adv-x="323" 
d="M313 803v-70.001c-42.667 -53.333 -75 -105.166 -97 -155.499s-32.667 -107.833 -32 -172.5h-116c14 62 34 117 60 165s62.333 97.333 109 148h-220v85h296z" />
    <glyph glyph-name="uni2078" unicode="&#x2078;" horiz-adv-x="377" 
d="M245 611c73.333 -12.667 110.001 -46.332 110.001 -100.999c0 -36 -14.5 -63.667 -43.5 -83s-69.5 -29 -121.5 -29c-52.667 0 -93.834 9.83301 -123.501 29.5s-44.5 47.5 -44.5 83.5c0 54 37.667 87.333 113 100c-66.667 11.333 -100 40.666 -100 87.999
c0 34.667 13.667 61.5 41 80.5s65 28.5 113 28.5c47.333 0 84.833 -9.33301 112.5 -28s41.5 -45 41.5 -79c0 -47.333 -32.667 -77.333 -98 -90zM190.001 737.002c-40.667 0 -61 -16 -61 -48c0 -30 20 -45 60 -45c40.667 0 61 15 61 45c0 32 -20 48 -60 48zM189.001 472.002
c44 0 66 17 66 51c0 33.333 -22.333 50 -67 50c-44 0 -66 -16.667 -66 -50c0 -34 22.333 -51 67 -51z" />
    <glyph glyph-name="uni2079" unicode="&#x2079;" horiz-adv-x="352" 
d="M175 810c45.333 0 83.0049 -13.832 113.005 -41.499s45 -62.834 45 -105.501c0 -38 -11 -77.333 -33 -118s-60.333 -87.334 -115 -140.001h-129c7.33301 6.66699 27.166 22.5 59.499 47.5s58.166 47.833 77.499 68.5s37.666 45.334 54.999 74.001
c-34.667 -40.667 -71.334 -61 -110.001 -61c-35.333 0 -65 11.833 -89 35.5s-36 55.167 -36 94.5c0 42.667 15.667 77.667 47 105s69.666 41 114.999 41zM172.005 604.001c44 0 66 21 66 63c0 40.667 -21.667 61 -65 61c-42.667 0 -64 -20.667 -64 -62s21 -62 63 -62z" />
    <glyph glyph-name="uni2080" unicode="&#x2080;" horiz-adv-x="390" 
d="M194 293c50.667 0 91.5 -18 122.5 -54s46.5 -86.333 46.5 -151s-15.333 -115 -46 -151s-71.667 -54 -123 -54c-50.667 0 -91.167 18 -121.5 54s-45.5 86.333 -45.5 151c0 64 15.167 114.167 45.5 150.5s70.833 54.5 121.5 54.5zM194 -37c29.333 0 49 8.66699 59 26
s15 50.333 15 99s-5 81.667 -15 99s-29.667 26 -59 26c-28 0 -47 -8.66699 -57 -26s-15 -50.333 -15 -99s5 -81.667 15 -99s29 -26 57 -26z" />
    <glyph glyph-name="uni2081" unicode="&#x2081;" horiz-adv-x="302" 
d="M136 286h92v-398h-95v340l-95 -88l-36 78z" />
    <glyph glyph-name="uni2082" unicode="&#x2082;" horiz-adv-x="358" 
d="M115 -31l227.001 0.00488281v-81h-313v75l107 76c18.667 13.333 33.5 24.666 44.5 33.999s22.5 22.166 34.5 38.499s18 32.166 18 47.499c0 34.667 -18.333 52 -55 52c-22 0 -38.167 -7.5 -48.5 -22.5s-12.5 -37.167 -6.5 -66.5l-96 10c-7.33301 52 4 91.667 34 119
s69.333 41 118 41c45.333 0 82.333 -12 111 -36s43 -56 43 -96c0 -38.667 -12.833 -69.834 -38.5 -93.501s-62.834 -45.834 -111.501 -66.501z" />
    <glyph glyph-name="uni2083" unicode="&#x2083;" horiz-adv-x="369" 
d="M237 92c70.667 -8 106 -39.998 106 -95.998c0 -34 -14.167 -61.5 -42.5 -82.5s-65.833 -31.5 -112.5 -31.5c-49.333 0 -88.666 12 -117.999 36s-43.666 57 -42.999 99l93 13c-2 -24.667 2.5 -42.5 13.5 -53.5s29.167 -16.5 54.5 -16.5c43.333 0 65 16 65 48
c0 14.667 -5.33301 26.5 -16 35.5s-25.334 13.167 -44.001 12.5l-44 -1v69l45 -1c15.333 -0.666992 27.333 3.33301 36 12s13 20 13 34c0 30 -18.667 45 -56 45c-24 0 -41.333 -5.33301 -52 -16s-14.334 -28.334 -11.001 -53.001l-91 12
c-1.33301 42.667 12 75.834 40 99.501s66.333 35.5 115 35.5c44 0 79.5 -9.83301 106.5 -29.5s40.5 -45.834 40.5 -78.501c0 -50.667 -32.667 -81.334 -98 -92.001z" />
    <glyph glyph-name="uni2084" unicode="&#x2084;" horiz-adv-x="368" 
d="M352 49l0.000976562 -72h-54v-89h-83v89h-204v85c51.333 56 79.333 130.667 84 224h94c-12.667 -102 -51.334 -183.333 -116.001 -244l144 6l10 176h71v-175h54z" />
    <glyph glyph-name="uni2085" unicode="&#x2085;" horiz-adv-x="367" 
d="M226 157c36 0 65.167 -11.834 87.5 -35.501s33.5 -55.5 33.5 -95.5c0 -42 -15 -76.333 -45 -103s-68.333 -40 -115 -40c-41.333 0 -76.833 9.83301 -106.5 29.5s-48.167 46.167 -55.5 79.5l94 29c4.66699 -19.333 12.5 -33.666 23.5 -42.999s27.5 -14 49.5 -14
c44 0 66 21.333 66 64c0 41.333 -21 62 -63 62c-29.333 0 -52 -14.333 -68 -43l-83 26l14 214h273v-80h-85l-114 9l-10 -127c18 45.333 52.667 68 104 68z" />
    <glyph glyph-name="uni2086" unicode="&#x2086;" horiz-adv-x="352" 
d="M214 156c35.333 0 64.9951 -11.834 88.9951 -35.501s36 -55.167 36 -94.5c0 -42.667 -15.667 -77.667 -47 -105s-69.666 -41 -114.999 -41s-83 13.833 -113 41.5s-45 62.834 -45 105.501c0 38 11 77.333 33 118s60.333 87.334 115 140.001h129
c-7.33301 -6.66699 -27.166 -22.5 -59.499 -47.5s-58.166 -47.833 -77.499 -68.5s-37.666 -45.334 -54.999 -74.001c34.667 40.667 71.334 61 110.001 61zM178.995 -38.001c42.667 0 64 20.667 64 62s-21 62 -63 62c-44 0 -66 -21 -66 -63c0 -40.667 21.667 -61 65 -61z" />
    <glyph glyph-name="uni2087" unicode="&#x2087;" horiz-adv-x="323" 
d="M313 286v-70.001c-42.667 -53.333 -75 -105.166 -97 -155.499s-32.667 -107.833 -32 -172.5h-116c14 62 34 117 60 165s62.333 97.333 109 148h-220v85h296z" />
    <glyph glyph-name="uni2088" unicode="&#x2088;" horiz-adv-x="377" 
d="M245 96c73.333 -12.667 110.001 -46.332 110.001 -100.999c0 -36 -14.5 -63.667 -43.5 -83s-69.5 -29 -121.5 -29c-52.667 0 -93.834 9.83301 -123.501 29.5s-44.5 47.5 -44.5 83.5c0 54 37.667 87.333 113 100c-66.667 11.333 -100 40.666 -100 87.999
c0 34.667 13.667 61.5 41 80.5s65 28.5 113 28.5c47.333 0 84.833 -9.33301 112.5 -28s41.5 -45 41.5 -79c0 -47.333 -32.667 -77.333 -98 -90zM190.001 222.002c-40.667 0 -61 -16 -61 -48c0 -30 20 -45 60 -45c40.667 0 61 15 61 45c0 32 -20 48 -60 48zM189.001 -42.998
c44 0 66 17 66 51c0 33.333 -22.333 50 -67 50c-44 0 -66 -16.667 -66 -50c0 -34 22.333 -51 67 -51z" />
    <glyph glyph-name="uni2089" unicode="&#x2089;" horiz-adv-x="352" 
d="M174 292c45.333 0 83.1689 -13.668 113.502 -41.001s45.5 -62.666 45.5 -105.999c0 -38 -11 -77.167 -33 -117.5s-60.333 -86.833 -115 -139.5h-129c9.33301 8 25.166 20.667 47.499 38s39.666 31.333 51.999 42s27.333 26 45 46s33.5 41 47.5 63
c-34.667 -40.667 -71.667 -61 -111 -61c-34.667 0 -64 12 -88 36s-36 55.333 -36 94c0 42.667 15.5 77.667 46.5 105s69.167 41 114.5 41zM172.003 85.999c43.333 0 65 21 65 63c0 41.333 -21.333 62 -64 62s-64 -21 -64 -63c0 -41.333 21 -62 63 -62z" />
    <glyph glyph-name="uni20A8" unicode="&#x20a8;" horiz-adv-x="599" 
d="M574 613l-166 0.000976562c20 -26 32.333 -55 37 -87h129v-82h-128c-6 -42.667 -22.167 -78.834 -48.5 -108.501s-61.833 -50.5 -106.5 -62.5l43 -49l126 -224h-156l-120 260h-127v112h154c58 0 92 24 102 72h-256v82h253c-10.667 40 -43.667 60 -99 60h-154v114h517v-87
z" />
    <glyph glyph-name="Euro" unicode="&#x20ac;" horiz-adv-x="693" 
d="M429 98c30.667 0 55.834 6 75.501 18s39.167 33.333 58.5 64l97 -72c-56 -78.667 -130.667 -118 -224 -118c-74 0 -136.167 21.833 -186.5 65.5s-84.5 103.5 -102.5 179.5h-95v80h83c-0.666992 8 -1 20.333 -1 37c0 17.333 0.333008 30 1 38h-83v81h95
c18 74.667 52.333 133.167 103 175.5s112.667 63.5 186 63.5c95.333 0 170 -39.333 224 -118l-97 -72c-18.667 30 -37.834 51 -57.501 63s-45.167 18 -76.5 18c-79.333 0 -128.333 -43.333 -147 -130h194v-81h-204c-0.666992 -8 -1 -20.667 -1 -38
c0 -16.667 0.333008 -29 1 -37h204v-80h-195c9.33301 -46.667 26 -81.167 50 -103.5s56.667 -33.5 98 -33.5z" />
    <glyph glyph-name="uni20BF" unicode="&#x20bf;" 
d="M596 197c0 -59.333 -18.667 -106.669 -56 -142.002s-87 -53.666 -149 -54.999l4 -140h-86l4 140h-89l5 -140h-87l4 140h-96v700h96l-5 137h88l-5 -137h89l-6 137h88l-5 -139c56.667 -5.33301 101.167 -23.666 133.5 -54.999s48.5 -71.333 48.5 -120
c0 -86.667 -50.333 -141.667 -151 -165c62 -8.66699 106.667 -27.5 134 -56.5s41 -63.833 41 -104.5zM433 501.997c0 54.667 -31 82 -93 82h-159v-176h160c61.333 0 92 31.333 92 94zM355 115.997c68.667 0 103 32.333 103 97c0 57.333 -37 86 -111 86h-166v-183h174z" />
    <glyph glyph-name="uni2116" unicode="&#x2116;" horiz-adv-x="1279" 
d="M996 332c-56 0 -103.167 17.667 -141.5 53s-57.5 81 -57.5 137c0 54.667 19.333 99.667 58 135s85.667 53 141 53s102.166 -17.5 140.499 -52.5s57.5 -80.167 57.5 -135.5c0 -56 -19.167 -101.667 -57.5 -137s-85.166 -53 -140.499 -53zM580 155v545h132v-700h-178
l-267 452l-50 101v-553h-132v700h183l257 -437zM996 613c-60.667 0 -91 -30.333 -91 -91c0 -61.333 30.333 -92 91 -92s91 30.667 91 92c0 60.667 -30.333 91 -91 91zM837 178v82h316v-82h-316z" />
    <glyph glyph-name="trademark" unicode="&#x2122;" horiz-adv-x="816" 
d="M13 619v80h292v-80h-103v-275h-86v275h-103zM643 699h136v-355h-84v300l-25 -97l-62 -203h-83l-62 203l-24 95v-298h-84v355h136l55 -173l21 -84l21 84z" />
    <glyph glyph-name="oneeighth" unicode="&#x215b;" horiz-adv-x="828" 
d="M133 302v340l-95 -88l-36 78l134 68h92v-398h-95zM586 700h99l-263 -351l-243 -349h-102l271 356zM695 207c74 -12 111.001 -45.667 111.001 -101c0 -36 -14.5 -63.667 -43.5 -83s-69.5 -29 -121.5 -29c-52.667 0 -93.834 9.83301 -123.501 29.5s-44.5 47.5 -44.5 83.5
c0 54.667 38 88 114 100c-67.333 10 -101 39.333 -101 88c0 34.667 13.667 61.5 41 80.5s65 28.5 113 28.5c47.333 0 84.833 -9.33301 112.5 -28s41.5 -45 41.5 -79c0 -48 -33 -78 -99 -90zM580.001 285c0 -30 20 -45 60 -45c40.667 0 61 15 61 45c0 32 -20 48 -60 48
c-40.667 0 -61 -16 -61 -48zM640.001 68c44 0 66 17 66 51c0 33.333 -22.333 50 -67 50c-44 0 -66 -16.667 -66 -50c0 -34 22.333 -51 67 -51z" />
    <glyph glyph-name="threeeighths" unicode="&#x215c;" horiz-adv-x="868" 
d="M343 411c0 -34 -14.167 -61.498 -42.5 -82.498s-65.833 -31.5 -112.5 -31.5c-49.333 0 -88.666 12 -117.999 36s-43.666 57 -42.999 99l93 13c-2 -24.667 2.5 -42.5 13.5 -53.5s29.167 -16.5 54.5 -16.5c43.333 0 65 16 65 48c0 14.667 -5.33301 26.5 -16 35.5
s-25.334 13.167 -44.001 12.5l-44 -1v69l45 -1c15.333 -0.666992 27.333 3.33301 36 12s13 20 13 34c0 30 -18.667 45 -56 45c-24 0 -41.333 -5.33301 -52 -16s-14.334 -28.334 -11.001 -53.001l-91 12c-1.33301 42.667 12 75.834 40 99.501s66.333 35.5 115 35.5
c44 0 79.5 -9.83301 106.5 -29.5s40.5 -45.834 40.5 -78.501c0 -50.667 -32.667 -81.334 -98 -92.001c70.667 -8 106 -40 106 -96zM626 700.002h99l-263 -351l-243 -349h-102l271 356zM735 207.002c74 -12 111.001 -45.667 111.001 -101c0 -36 -14.5 -63.667 -43.5 -83
s-69.5 -29 -121.5 -29c-52.667 0 -93.834 9.83301 -123.501 29.5s-44.5 47.5 -44.5 83.5c0 54.667 38 88 114 100c-67.333 10 -101 39.333 -101 88c0 34.667 13.667 61.5 41 80.5s65 28.5 113 28.5c47.333 0 84.833 -9.33301 112.5 -28s41.5 -45 41.5 -79
c0 -48 -33 -78 -99 -90zM620.001 285.002c0 -30 20 -45 60 -45c40.667 0 61 15 61 45c0 32 -20 48 -60 48c-40.667 0 -61 -16 -61 -48zM680.001 68.002c44 0 66 17 66 51c0 33.333 -22.333 50 -67 50c-44 0 -66 -16.667 -66 -50c0 -34 22.333 -51 67 -51z" />
    <glyph glyph-name="fiveeighths" unicode="&#x215d;" horiz-adv-x="880" 
d="M347 439c0 -42 -15 -76.334 -45 -103.001s-68.333 -40 -115 -40c-41.333 0 -76.833 9.83301 -106.5 29.5s-48.167 46.167 -55.5 79.5l94 29c4.66699 -19.333 12.5 -33.666 23.5 -42.999s27.5 -14 49.5 -14c44 0 66 21.333 66 64c0 41.333 -21 62 -63 62
c-29.333 0 -52 -14.333 -68 -43l-83 26l14 214h273v-80h-85l-114 9l-10 -127c18 45.333 52.667 68 104 68c36 0 65.167 -11.833 87.5 -35.5s33.5 -55.5 33.5 -95.5zM638 699.999h99l-263 -351l-243 -349h-102l271 356zM747 206.999c74 -12 111.001 -45.667 111.001 -101
c0 -36 -14.5 -63.667 -43.5 -83s-69.5 -29 -121.5 -29c-52.667 0 -93.834 9.83301 -123.501 29.5s-44.5 47.5 -44.5 83.5c0 54.667 38 88 114 100c-67.333 10 -101 39.333 -101 88c0 34.667 13.667 61.5 41 80.5s65 28.5 113 28.5c47.333 0 84.833 -9.33301 112.5 -28
s41.5 -45 41.5 -79c0 -48 -33 -78 -99 -90zM632.001 284.999c0 -30 20 -45 60 -45c40.667 0 61 15 61 45c0 32 -20 48 -60 48c-40.667 0 -61 -16 -61 -48zM692.001 67.999c44 0 66 17 66 51c0 33.333 -22.333 50 -67 50c-44 0 -66 -16.667 -66 -50c0 -34 22.333 -51 67 -51z
" />
    <glyph glyph-name="seveneighths" unicode="&#x215e;" horiz-adv-x="796" 
d="M68 302c14 62 34 116.999 60 164.999s62.333 97.333 109 148h-220v85h296v-70c-42.667 -53.333 -75 -105.166 -97 -155.499s-32.667 -107.833 -32 -172.5h-116zM554 699.999h99l-263 -351l-243 -349h-102l271 356zM663 206.999c74 -12 111.001 -45.667 111.001 -101
c0 -36 -14.5 -63.667 -43.5 -83s-69.5 -29 -121.5 -29c-52.667 0 -93.834 9.83301 -123.501 29.5s-44.5 47.5 -44.5 83.5c0 54.667 38 88 114 100c-67.333 10 -101 39.333 -101 88c0 34.667 13.667 61.5 41 80.5s65 28.5 113 28.5c47.333 0 84.833 -9.33301 112.5 -28
s41.5 -45 41.5 -79c0 -48 -33 -78 -99 -90zM548.001 284.999c0 -30 20 -45 60 -45c40.667 0 61 15 61 45c0 32 -20 48 -60 48c-40.667 0 -61 -16 -61 -48zM608.001 67.999c44 0 66 17 66 51c0 33.333 -22.333 50 -67 50c-44 0 -66 -16.667 -66 -50c0 -34 22.333 -51 67 -51z
" />
    <glyph glyph-name="arrowleft" unicode="&#x2190;" horiz-adv-x="989" 
d="M904 285l-486 2l-166 14l269 -213l-94 -93l-342 342v26l341 342l93 -93l-268 -214l167 14h486v-127z" />
    <glyph glyph-name="arrowup" unicode="&#x2191;" horiz-adv-x="879" 
d="M794 421l-93 -93l-212 268l14 -165l2 -486h-127v486l13 166l-213 -267l-93 92l341 341h26z" />
    <glyph glyph-name="arrowright" unicode="&#x2192;" horiz-adv-x="989" 
d="M562 704l342 -341v-26l-342 -342l-94 93l268 212l-165 -14l-486 -2v127h486l166 -13l-267 213z" />
    <glyph glyph-name="arrowdown" unicode="&#x2193;" horiz-adv-x="879" 
d="M701 373l93 -94l-342 -342h-26l-341 341l93 93l213 -268l-13 167v486h127l-2 -486l-14 -165z" />
    <glyph glyph-name="uni2196" unicode="&#x2196;" horiz-adv-x="804" 
d="M374 465l345 -342l-89 -90l-344 344l-108 127l38 -340h-131v483l18 18h484l1 -132l-341 39z" />
    <glyph glyph-name="uni2197" unicode="&#x2197;" horiz-adv-x="802" 
d="M698 666l19 -18v-484l-132 -1l39 340l-107 -126l-342 -345l-90 89l344 344l127 108l-340 -38v131h482z" />
    <glyph glyph-name="uni2198" unicode="&#x2198;" horiz-adv-x="804" 
d="M588 536l131 1v-483l-18 -18h-484l-1 132l340 -39l-126 106l-345 343l89 89l344 -343l108 -127z" />
    <glyph glyph-name="uni2199" unicode="&#x2199;" horiz-adv-x="804" 
d="M374 235l-126 -106l340 39l-1 -132h-484l-18 18v483l131 -1l-38 -339l108 127l344 343l89 -89z" />
    <glyph glyph-name="minus" unicode="&#x2212;" 
d="M53 235v108h495v-108h-495z" />
    <glyph glyph-name="approxequal" unicode="&#x2248;" 
d="M155 314l-103.997 52c12 24.667 30.5 48.167 55.5 70.5s54.833 33.5 89.5 33.5c24.667 0 58.5 -7.66699 101.5 -23s71.167 -23 84.5 -23c25.333 0 46.666 16.667 63.999 50l103 -51c-38.667 -69.333 -86 -104 -142 -104c-25.333 0 -59.833 7.66699 -103.5 23
s-71.5 23 -83.5 23c-10.667 0 -20.834 -3.5 -30.501 -10.5s-15.834 -12.5 -18.501 -16.5zM155.003 115l-103.999 52c12 24.667 30.5 48 55.5 70s54.833 33 89.5 33c24.667 0 58.5 -7.66699 101.5 -23s71.167 -23 84.5 -23c24 0 45.333 16.667 64 50l103 -50
c-38 -70 -85.333 -105 -142 -105c-25.333 0 -59.833 7.66699 -103.5 23s-71.5 23 -83.5 23c-10.667 0 -20.834 -3.33301 -30.501 -10s-16 -12.167 -19 -16.5z" />
    <glyph glyph-name="notequal" unicode="&#x2260;" 
d="M370 341l-30 -49l-23 -49h225v-101h-274l-50 -105h-119l64 105h-104v101h165l35 57l19 41h-219v101h267l47 98h119l-60 -98h110v-101h-172z" />
    <glyph glyph-name="lessequal" unicode="&#x2264;" 
d="M490 467l-202 -60l-117 -28l118 -27l201 -59v-103l-400 141v102l400 140v-106zM90 41v98h400v-98h-400z" />
    <glyph glyph-name="greaterequal" unicode="&#x2265;" 
d="M110 573l400 -140v-102l-400 -141v103l201 59l118 27l-117 28l-202 60v106zM110 41v98h400v-98h-400z" />
    <glyph glyph-name="fi" unicode="&#xfb01;" horiz-adv-x="629" 
d="M557 490v-490h-127v378h-193v-378h-127v378h-97v112h97v85c0 45.333 13.833 82 41.5 110s64.167 42 109.5 42h174v-112h-198v-125h320z" />
    <glyph glyph-name="fl" unicode="&#xfb02;" horiz-adv-x="635" 
d="M437 700h127v-700h-127v378h-194v-378h-127v378h-103v112h103v85c0 45.333 14 82 42 110s64.667 42 110 42h94v-112h-119v-125h194v210z" />
    <glyph glyph-name=".null" horiz-adv-x="0" 
 />
    <glyph glyph-name="nonmarkingreturn" horiz-adv-x="333" 
 />
    <glyph glyph-name="G.ss04" horiz-adv-x="785" 
d="M416 356l328.998 0.000976562v-31c0 -99.333 -31.167 -180 -93.5 -242s-145.5 -93 -249.5 -93c-102 0 -187.833 33.833 -257.5 101.5s-104.5 153.834 -104.5 258.501c0 107.333 34.667 194.166 104 260.499s158.333 99.5 267 99.5c82.667 0 153.334 -21.5 212.001 -64.5
s96.334 -104.5 113.001 -184.5l-121 -53c-11.333 67.333 -34 114.5 -68 141.5s-79.333 40.5 -136 40.5c-156 0 -234 -79.667 -234 -239c0 -80.667 19.5 -141.5 58.5 -182.5s95.167 -61.5 168.5 -61.5c63.333 0 110.5 11.667 141.5 35s50.167 59.666 57.5 108.999h-187v105z
" />
    <glyph glyph-name="Gbreve.ss04" horiz-adv-x="785" 
d="M405 765c-48 0 -86.834 14.333 -116.501 43s-45.167 66.334 -46.5 113.001h104c0 -26 4.33301 -44 13 -54s24 -15 46 -15c23.333 0 39.5 5 48.5 15s13.5 28 13.5 54h104c-1.33301 -46.667 -17.166 -84.334 -47.499 -113.001s-69.833 -43 -118.5 -43zM415.999 356
l328.998 0.000976562v-31c0 -99.333 -31.167 -180 -93.5 -242s-145.5 -93 -249.5 -93c-102 0 -187.833 33.833 -257.5 101.5s-104.5 153.834 -104.5 258.501c0 107.333 34.667 194.166 104 260.499s158.333 99.5 267 99.5c82.667 0 153.334 -21.5 212.001 -64.5
s96.334 -104.5 113.001 -184.5l-121 -53c-11.333 67.333 -34 114.5 -68 141.5s-79.333 40.5 -136 40.5c-156 0 -234 -79.667 -234 -239c0 -80.667 19.5 -141.5 58.5 -182.5s95.167 -61.5 168.5 -61.5c63.333 0 110.5 11.667 141.5 35s50.167 59.666 57.5 108.999h-187v105z
" />
    <glyph glyph-name="uni0122.ss04" horiz-adv-x="785" 
d="M416 356l328.998 0.000976562v-31c0 -99.333 -31.167 -180 -93.5 -242s-145.5 -93 -249.5 -93c-102 0 -187.833 33.833 -257.5 101.5s-104.5 153.834 -104.5 258.501c0 107.333 34.667 194.166 104 260.499s158.333 99.5 267 99.5c82.667 0 153.334 -21.5 212.001 -64.5
s96.334 -104.5 113.001 -184.5l-121 -53c-11.333 67.333 -34 114.5 -68 141.5s-79.333 40.5 -136 40.5c-156 0 -234 -79.667 -234 -239c0 -80.667 19.5 -141.5 58.5 -182.5s95.167 -61.5 168.5 -61.5c63.333 0 110.5 11.667 141.5 35s50.167 59.666 57.5 108.999h-187v105z
M385.998 -36.999c20 0 36.168 -5.83203 48.501 -17.499s18.833 -26.834 19.5 -45.501c0 -14 -3.33301 -26.333 -10 -37l-66 -102h-96l92 75c-16 2.66699 -29 9.66699 -39 21s-15 25.666 -15 42.999c0 18.667 6.16699 33.834 18.5 45.501s28.166 17.5 47.499 17.5z" />
    <glyph glyph-name="Gdotaccent.ss04" horiz-adv-x="785" 
d="M406 768c-26.667 0 -47.167 7.00098 -61.5 21.001s-21.5 34 -21.5 60c0 52 27.667 78 83 78c26.667 0 47.167 -6.83301 61.5 -20.5s21.5 -32.834 21.5 -57.501c0 -26 -7.16699 -46 -21.5 -60s-34.833 -21 -61.5 -21zM416 356.001l328.998 0.000976562v-31
c0 -99.333 -31.167 -180 -93.5 -242s-145.5 -93 -249.5 -93c-102 0 -187.833 33.833 -257.5 101.5s-104.5 153.834 -104.5 258.501c0 107.333 34.667 194.166 104 260.499s158.333 99.5 267 99.5c82.667 0 153.334 -21.5 212.001 -64.5s96.334 -104.5 113.001 -184.5
l-121 -53c-11.333 67.333 -34 114.5 -68 141.5s-79.333 40.5 -136 40.5c-156 0 -234 -79.667 -234 -239c0 -80.667 19.5 -141.5 58.5 -182.5s95.167 -61.5 168.5 -61.5c63.333 0 110.5 11.667 141.5 35s50.167 59.666 57.5 108.999h-187v105z" />
    <glyph glyph-name="Q.ss09" horiz-adv-x="807" 
d="M729 87l44.0029 -44.001l-78 -78l-42 42l-35 52c-62.667 -46 -135.334 -69 -218.001 -69c-100.667 0 -185.834 33.833 -255.501 101.5s-104.5 153.834 -104.5 258.501c0 105.333 34.667 191.666 104 258.999s154.666 101 255.999 101s186.833 -33.667 256.5 -101
s104.5 -153.666 104.5 -258.999c0 -90 -26.667 -167 -80 -231zM177.003 350.999c0 -160.667 74.333 -241 223 -241c56 0 101.333 11.333 136 34l-61 41l-61 61l78 78l61 -61l39 -59c21.333 38.667 32 87.667 32 147c0 159.333 -74.667 239 -224 239
c-148.667 0 -223 -79.667 -223 -239z" />
    <glyph glyph-name="IJ.ss11" horiz-adv-x="557" 
d="M348 700l131 0.000976562v-538c0 -48.667 -14.667 -87.834 -44 -117.501s-68.333 -44.5 -117 -44.5h-233v120h263v580zM85 223.001v477h131v-477h-131z" />
    <glyph glyph-name="J.ss11" horiz-adv-x="423" 
d="M214 700l131.001 0.000976562v-538c0 -48.667 -14.833 -87.834 -44.5 -117.501s-68.834 -44.5 -117.501 -44.5h-145v120h176v580z" />
    <glyph glyph-name="OE.ss12" horiz-adv-x="1140" 
d="M1078 579h-318.998v-150h301v-117h-301v-2v-189h319v-121h-450v66c-65.333 -50.667 -141.333 -76 -228 -76c-100.667 0 -185.834 33.833 -255.501 101.5s-104.5 153.834 -104.5 258.501c0 105.333 34.667 191.666 104 258.999s154.666 101 255.999 101
c88 0 164 -25.333 228 -76v66h450v-121zM400.002 110c149.333 0 224 80.333 224 241c0 159.333 -74.667 239 -224 239c-148.667 0 -223 -79.667 -223 -239c0 -160.667 74.333 -241 223 -241z" />
    <glyph glyph-name="i.loclTRK" horiz-adv-x="270" 
d="M135 572c-26.667 0 -47.167 7.00098 -61.5 21.001s-21.5 34 -21.5 60c0 52 27.667 78 83 78c26.667 0 47.167 -6.83301 61.5 -20.5s21.5 -32.834 21.5 -57.501c0 -26 -7.16699 -46 -21.5 -60s-34.833 -21 -61.5 -21zM72 0.000976562v490h127v-490h-127z" />
    <glyph glyph-name="germandbls.calt" horiz-adv-x="733" 
d="M463 453c0 -16 5.66699 -29.668 17 -41.001s25.666 -20 42.999 -26s36 -14 56 -24s38.667 -21 56 -33s31.666 -30 42.999 -54s17 -52.667 17 -86c0 -66 -20.167 -115.667 -60.5 -149s-96.166 -50 -167.499 -50c-66.667 0 -120.667 14 -162 42l54 125
c33.333 -32 70 -48 110 -48c59.333 0 89 24 89 72c0 20 -7.66699 36.5 -23 49.5s-33.666 23.5 -54.999 31.5s-42.833 17 -64.5 27s-40.167 25.167 -55.5 45.5s-23 45.5 -23 75.5c0 35.333 12.667 68.833 38 100.5s67.333 54.5 126 68.5h-294v-579h-132v530
c0 51.333 16.167 92.5 48.5 123.5s74.833 46.5 127.5 46.5h385v-111c-48.667 -10.667 -89.667 -29.167 -123 -55.5s-50 -53.166 -50 -80.499z" />
    <glyph glyph-name="a.ss01" horiz-adv-x="560" 
d="M279 500c66.667 0 118.999 -16 156.999 -48s57 -76.667 57 -134v-318h-126v104c-25.333 -76 -80.333 -114 -165 -114c-49.333 0 -88.333 12 -117 36s-43 57 -43 99c0 102.667 89 154 267 154h58v35c0 29.333 -7.16699 50.5 -21.5 63.5s-38.166 19.5 -71.499 19.5
c-64.667 0 -97 -33.667 -97 -101l-114 23c-1.33301 50 17.5 92.667 56.5 128s92.167 53 159.5 53zM244.999 81c34 0 62.833 11.167 86.5 33.5s35.5 53.833 35.5 94.5h-51c-46.667 0 -82.667 -6.33301 -108 -19s-38 -30.667 -38 -54c0 -36.667 25 -55 75 -55z" />
    <glyph glyph-name="aacute.ss01" horiz-adv-x="560" 
d="M477 733l-172 -173h-70l61 173h181zM279 500c66.667 0 118.999 -16 156.999 -48s57 -76.667 57 -134v-318h-126v104c-25.333 -76 -80.333 -114 -165 -114c-49.333 0 -88.333 12 -117 36s-43 57 -43 99c0 102.667 89 154 267 154h58v35c0 29.333 -7.16699 50.5 -21.5 63.5
s-38.166 19.5 -71.499 19.5c-64.667 0 -97 -33.667 -97 -101l-114 23c-1.33301 50 17.5 92.667 56.5 128s92.167 53 159.5 53zM244.999 81c34 0 62.833 11.167 86.5 33.5s35.5 53.833 35.5 94.5h-51c-46.667 0 -82.667 -6.33301 -108 -19s-38 -30.667 -38 -54
c0 -36.667 25 -55 75 -55z" />
    <glyph glyph-name="abreve.ss01" horiz-adv-x="560" 
d="M286 560c-48 0 -86.834 14.166 -116.501 42.499s-45.167 65.833 -46.5 112.5h104c0 -25.333 4.33301 -43.166 13 -53.499s24 -15.5 46 -15.5c23.333 0 39.5 5 48.5 15s13.5 28 13.5 54h104c-1.33301 -46.667 -17.166 -84.167 -47.499 -112.5s-69.833 -42.5 -118.5 -42.5z
M278.999 499.999c66.667 0 118.999 -16 156.999 -48s57 -76.667 57 -134v-318h-126v104c-25.333 -76 -80.333 -114 -165 -114c-49.333 0 -88.333 12 -117 36s-43 57 -43 99c0 102.667 89 154 267 154h58v35c0 29.333 -7.16699 50.5 -21.5 63.5s-38.166 19.5 -71.499 19.5
c-64.667 0 -97 -33.667 -97 -101l-114 23c-1.33301 50 17.5 92.667 56.5 128s92.167 53 159.5 53zM244.998 80.999c34 0 62.833 11.167 86.5 33.5s35.5 53.833 35.5 94.5h-51c-46.667 0 -82.667 -6.33301 -108 -19s-38 -30.667 -38 -54c0 -36.667 25 -55 75 -55z" />
    <glyph glyph-name="acircumflex.ss01" horiz-adv-x="560" 
d="M288 639l-100 -79h-79l123 173h111l123 -173h-79zM279 500c66.667 0 118.999 -16 156.999 -48s57 -76.667 57 -134v-318h-126v104c-25.333 -76 -80.333 -114 -165 -114c-49.333 0 -88.333 12 -117 36s-43 57 -43 99c0 102.667 89 154 267 154h58v35
c0 29.333 -7.16699 50.5 -21.5 63.5s-38.166 19.5 -71.499 19.5c-64.667 0 -97 -33.667 -97 -101l-114 23c-1.33301 50 17.5 92.667 56.5 128s92.167 53 159.5 53zM244.999 81c34 0 62.833 11.167 86.5 33.5s35.5 53.833 35.5 94.5h-51c-46.667 0 -82.667 -6.33301 -108 -19
s-38 -30.667 -38 -54c0 -36.667 25 -55 75 -55z" />
    <glyph glyph-name="adieresis.ss01" horiz-adv-x="560" 
d="M174 572c-54 0 -81.6689 27 -83.002 81c0 24.667 7.16699 43.834 21.5 57.501s34.833 20.5 61.5 20.5s47.167 -6.83301 61.5 -20.5s21.5 -32.834 21.5 -57.501c0.666992 -26 -6.16602 -46 -20.499 -60s-35.166 -21 -62.499 -21zM398.998 572
c-54 0 -81.6689 27 -83.002 81c0 24.667 7.16699 43.834 21.5 57.501s34.833 20.5 61.5 20.5s47.167 -6.83301 61.5 -20.5s21.5 -32.834 21.5 -57.501c0.666992 -26 -6.16602 -46 -20.499 -60s-35.166 -21 -62.499 -21zM278.996 500c66.667 0 118.999 -16 156.999 -48
s57 -76.667 57 -134v-318h-126v104c-25.333 -76 -80.333 -114 -165 -114c-49.333 0 -88.333 12 -117 36s-43 57 -43 99c0 102.667 89 154 267 154h58v35c0 29.333 -7.16699 50.5 -21.5 63.5s-38.166 19.5 -71.499 19.5c-64.667 0 -97 -33.667 -97 -101l-114 23
c-1.33301 50 17.5 92.667 56.5 128s92.167 53 159.5 53zM244.995 81c34 0 62.833 11.167 86.5 33.5s35.5 53.833 35.5 94.5h-51c-46.667 0 -82.667 -6.33301 -108 -19s-38 -30.667 -38 -54c0 -36.667 25 -55 75 -55z" />
    <glyph glyph-name="agrave.ss01" horiz-adv-x="560" 
d="M339 560h-70l-172 173h181zM279 500c66.667 0 118.999 -16 156.999 -48s57 -76.667 57 -134v-318h-126v104c-25.333 -76 -80.333 -114 -165 -114c-49.333 0 -88.333 12 -117 36s-43 57 -43 99c0 102.667 89 154 267 154h58v35c0 29.333 -7.16699 50.5 -21.5 63.5
s-38.166 19.5 -71.499 19.5c-64.667 0 -97 -33.667 -97 -101l-114 23c-1.33301 50 17.5 92.667 56.5 128s92.167 53 159.5 53zM244.999 81c34 0 62.833 11.167 86.5 33.5s35.5 53.833 35.5 94.5h-51c-46.667 0 -82.667 -6.33301 -108 -19s-38 -30.667 -38 -54
c0 -36.667 25 -55 75 -55z" />
    <glyph glyph-name="amacron.ss01" horiz-adv-x="560" 
d="M437 684v-91h-300v91h300zM279 500c66.667 0 118.999 -16 156.999 -48s57 -76.667 57 -134v-318h-126v104c-25.333 -76 -80.333 -114 -165 -114c-49.333 0 -88.333 12 -117 36s-43 57 -43 99c0 102.667 89 154 267 154h58v35c0 29.333 -7.16699 50.5 -21.5 63.5
s-38.166 19.5 -71.499 19.5c-64.667 0 -97 -33.667 -97 -101l-114 23c-1.33301 50 17.5 92.667 56.5 128s92.167 53 159.5 53zM244.999 81c34 0 62.833 11.167 86.5 33.5s35.5 53.833 35.5 94.5h-51c-46.667 0 -82.667 -6.33301 -108 -19s-38 -30.667 -38 -54
c0 -36.667 25 -55 75 -55z" />
    <glyph glyph-name="aogonek.ss01" horiz-adv-x="560" 
d="M461 0c-25.333 -18.667 -43.002 -33.334 -53.002 -44.001s-15 -22 -15 -34c0 -22.667 14 -34 42 -34c20.667 0 38.334 3 53.001 9v-77c-25.333 -6.66699 -51 -10 -77 -10c-37.333 0 -65.833 8.16699 -85.5 24.5s-29.5 36.5 -29.5 60.5c0 22 9.5 42.333 28.5 61
s47.833 33.334 86.5 44.001h-44v104c-25.333 -76 -80.333 -114 -165 -114c-49.333 0 -88.333 12 -117 36s-43 57 -43 99c0 102.667 89 154 267 154h58v35c0 29.333 -7.16699 50.5 -21.5 63.5s-38.166 19.5 -71.499 19.5c-64.667 0 -97 -33.667 -97 -101l-114 23
c-1.33301 50 17.5 92.667 56.5 128s92.167 53 159.5 53c66.667 0 119 -16 157 -48s57 -76.667 57 -134v-318h-32zM244.998 81c34 0 62.833 11.167 86.5 33.5s35.5 53.833 35.5 94.5h-51c-46.667 0 -82.667 -6.33301 -108 -19s-38 -30.667 -38 -54c0 -36.667 25 -55 75 -55z
" />
    <glyph glyph-name="aring.ss01" horiz-adv-x="560" 
d="M287 545c-37.333 0 -68 11.167 -92 33.5s-36 50.833 -36 85.5c0 35.333 12 64 36 86s54.667 33 92 33s68 -11 92 -33s36 -50.667 36 -86c0 -34.667 -12 -63.167 -36 -85.5s-54.667 -33.5 -92 -33.5zM288 709c-17.333 0 -29.5 -3.33301 -36.5 -10
s-10.5 -18.334 -10.5 -35.001c0 -16 3.66699 -27.5 11 -34.5s19.333 -10.5 36 -10.5s28.334 3.5 35.001 10.5s10 18.5 10 34.5c0 16.667 -3.33301 28.334 -10 35.001s-18.334 10 -35.001 10zM279 500c66.667 0 118.999 -16 156.999 -48s57 -76.667 57 -134v-318h-126v104
c-25.333 -76 -80.333 -114 -165 -114c-49.333 0 -88.333 12 -117 36s-43 57 -43 99c0 102.667 89 154 267 154h58v35c0 29.333 -7.16699 50.5 -21.5 63.5s-38.166 19.5 -71.499 19.5c-64.667 0 -97 -33.667 -97 -101l-114 23c-1.33301 50 17.5 92.667 56.5 128
s92.167 53 159.5 53zM244.999 81c34 0 62.833 11.167 86.5 33.5s35.5 53.833 35.5 94.5h-51c-46.667 0 -82.667 -6.33301 -108 -19s-38 -30.667 -38 -54c0 -36.667 25 -55 75 -55z" />
    <glyph glyph-name="atilde.ss01" horiz-adv-x="560" 
d="M209 624c-17.333 0 -25.999 -18.668 -25.999 -56.001h-59c0 56 6.5 95.5 19.5 118.5s34.833 34.5 65.5 34.5c17.333 0 34.166 -3.66699 50.499 -11s29.5 -15.5 39.5 -24.5s21 -17.167 33 -24.5s22.667 -11 32 -11c18.667 0 28 18.667 28 56h58
c0 -54.667 -6.16699 -93.667 -18.5 -117s-33.833 -35 -64.5 -35c-22 0 -43.167 5.83301 -63.5 17.5s-38.333 23.334 -54 35.001s-29.167 17.5 -40.5 17.5zM279.001 499.999c66.667 0 118.999 -16 156.999 -48s57 -76.667 57 -134v-318h-126v104
c-25.333 -76 -80.333 -114 -165 -114c-49.333 0 -88.333 12 -117 36s-43 57 -43 99c0 102.667 89 154 267 154h58v35c0 29.333 -7.16699 50.5 -21.5 63.5s-38.166 19.5 -71.499 19.5c-64.667 0 -97 -33.667 -97 -101l-114 23c-1.33301 50 17.5 92.667 56.5 128
s92.167 53 159.5 53zM245 80.999c34 0 62.833 11.167 86.5 33.5s35.5 53.833 35.5 94.5h-51c-46.667 0 -82.667 -6.33301 -108 -19s-38 -30.667 -38 -54c0 -36.667 25 -55 75 -55z" />
    <glyph glyph-name="y.ss02" horiz-adv-x="602" 
d="M404 490h126.003v-462c0 -63.333 -23 -113.833 -69 -151.5s-107.333 -56.5 -184 -56.5c-58.667 0 -108.5 11.5 -149.5 34.5s-69.167 57.167 -84.5 102.5l120 50c9.33301 -32.667 23.666 -55.667 42.999 -69s45.333 -20 78 -20c45.333 0 76.666 9.33301 93.999 28
s26 49.334 26 92.001v112c-22.667 -84.667 -76 -127 -160 -127c-118 0 -177 69 -177 207v260h127v-246c0 -70 32 -105 96 -105c35.333 0 63.166 12.667 83.499 38s30.5 62.666 30.5 111.999v201z" />
    <glyph glyph-name="yacute.ss02" horiz-adv-x="602" 
d="M494 733l-172 -173h-70l61 173h181zM404 490h126.003v-462c0 -63.333 -23 -113.833 -69 -151.5s-107.333 -56.5 -184 -56.5c-58.667 0 -108.5 11.5 -149.5 34.5s-69.167 57.167 -84.5 102.5l120 50c9.33301 -32.667 23.666 -55.667 42.999 -69s45.333 -20 78 -20
c45.333 0 76.666 9.33301 93.999 28s26 49.334 26 92.001v112c-22.667 -84.667 -76 -127 -160 -127c-118 0 -177 69 -177 207v260h127v-246c0 -70 32 -105 96 -105c35.333 0 63.166 12.667 83.499 38s30.5 62.666 30.5 111.999v201z" />
    <glyph glyph-name="ycircumflex.ss02" horiz-adv-x="602" 
d="M305 639l-100 -79h-79l123 173h111l123 -173h-79zM404 490h126.003v-462c0 -63.333 -23 -113.833 -69 -151.5s-107.333 -56.5 -184 -56.5c-58.667 0 -108.5 11.5 -149.5 34.5s-69.167 57.167 -84.5 102.5l120 50c9.33301 -32.667 23.666 -55.667 42.999 -69
s45.333 -20 78 -20c45.333 0 76.666 9.33301 93.999 28s26 49.334 26 92.001v112c-22.667 -84.667 -76 -127 -160 -127c-118 0 -177 69 -177 207v260h127v-246c0 -70 32 -105 96 -105c35.333 0 63.166 12.667 83.499 38s30.5 62.666 30.5 111.999v201z" />
    <glyph glyph-name="ydieresis.ss02" horiz-adv-x="602" 
d="M191 572c-54 0 -81.6689 27 -83.002 81c0 24.667 7.16699 43.834 21.5 57.501s34.833 20.5 61.5 20.5s47.167 -6.83301 61.5 -20.5s21.5 -32.834 21.5 -57.501c0.666992 -26 -6.16602 -46 -20.499 -60s-35.166 -21 -62.499 -21zM415.998 572
c-54 0 -81.6689 27 -83.002 81c0 24.667 7.16699 43.834 21.5 57.501s34.833 20.5 61.5 20.5s47.167 -6.83301 61.5 -20.5s21.5 -32.834 21.5 -57.501c0.666992 -26 -6.16602 -46 -20.499 -60s-35.166 -21 -62.499 -21zM403.996 490h126.003v-462
c0 -63.333 -23 -113.833 -69 -151.5s-107.333 -56.5 -184 -56.5c-58.667 0 -108.5 11.5 -149.5 34.5s-69.167 57.167 -84.5 102.5l120 50c9.33301 -32.667 23.666 -55.667 42.999 -69s45.333 -20 78 -20c45.333 0 76.666 9.33301 93.999 28s26 49.334 26 92.001v112
c-22.667 -84.667 -76 -127 -160 -127c-118 0 -177 69 -177 207v260h127v-246c0 -70 32 -105 96 -105c35.333 0 63.166 12.667 83.499 38s30.5 62.666 30.5 111.999v201z" />
    <glyph glyph-name="ygrave.ss02" horiz-adv-x="602" 
d="M356 560h-70l-172 173h181zM404 490h126.003v-462c0 -63.333 -23 -113.833 -69 -151.5s-107.333 -56.5 -184 -56.5c-58.667 0 -108.5 11.5 -149.5 34.5s-69.167 57.167 -84.5 102.5l120 50c9.33301 -32.667 23.666 -55.667 42.999 -69s45.333 -20 78 -20
c45.333 0 76.666 9.33301 93.999 28s26 49.334 26 92.001v112c-22.667 -84.667 -76 -127 -160 -127c-118 0 -177 69 -177 207v260h127v-246c0 -70 32 -105 96 -105c35.333 0 63.166 12.667 83.499 38s30.5 62.666 30.5 111.999v201z" />
    <glyph glyph-name="u.ss03" horiz-adv-x="598" 
d="M404 490h126.999v-288c0 -64 -21.333 -115.333 -64 -154s-99 -58 -169 -58c-69.333 0 -125.166 19.333 -167.499 58s-63.5 90 -63.5 154v288h127v-292c0 -36.667 8 -61.834 24 -75.501s42.667 -20.5 80 -20.5c38 0 65.167 6.83301 81.5 20.5s24.5 38.834 24.5 75.501v292
z" />
    <glyph glyph-name="uacute.ss03" horiz-adv-x="598" 
d="M489 733l-172 -173h-70l61 173h181zM404 490h126.999v-288c0 -64 -21.333 -115.333 -64 -154s-99 -58 -169 -58c-69.333 0 -125.166 19.333 -167.499 58s-63.5 90 -63.5 154v288h127v-292c0 -36.667 8 -61.834 24 -75.501s42.667 -20.5 80 -20.5
c38 0 65.167 6.83301 81.5 20.5s24.5 38.834 24.5 75.501v292z" />
    <glyph glyph-name="ucircumflex.ss03" horiz-adv-x="598" 
d="M300 639l-100 -79h-79l123 173h111l123 -173h-79zM404 490h126.999v-288c0 -64 -21.333 -115.333 -64 -154s-99 -58 -169 -58c-69.333 0 -125.166 19.333 -167.499 58s-63.5 90 -63.5 154v288h127v-292c0 -36.667 8 -61.834 24 -75.501s42.667 -20.5 80 -20.5
c38 0 65.167 6.83301 81.5 20.5s24.5 38.834 24.5 75.501v292z" />
    <glyph glyph-name="udieresis.ss03" horiz-adv-x="598" 
d="M186 572c-54 0 -81.6689 27 -83.002 81c0 24.667 7.16699 43.834 21.5 57.501s34.833 20.5 61.5 20.5s47.167 -6.83301 61.5 -20.5s21.5 -32.834 21.5 -57.501c0.666992 -26 -6.16602 -46 -20.499 -60s-35.166 -21 -62.499 -21zM410.998 572
c-54 0 -81.6689 27 -83.002 81c0 24.667 7.16699 43.834 21.5 57.501s34.833 20.5 61.5 20.5s47.167 -6.83301 61.5 -20.5s21.5 -32.834 21.5 -57.501c0.666992 -26 -6.16602 -46 -20.499 -60s-35.166 -21 -62.499 -21zM403.996 490h126.999v-288
c0 -64 -21.333 -115.333 -64 -154s-99 -58 -169 -58c-69.333 0 -125.166 19.333 -167.499 58s-63.5 90 -63.5 154v288h127v-292c0 -36.667 8 -61.834 24 -75.501s42.667 -20.5 80 -20.5c38 0 65.167 6.83301 81.5 20.5s24.5 38.834 24.5 75.501v292z" />
    <glyph glyph-name="ugrave.ss03" horiz-adv-x="598" 
d="M109 733h181l61 -173h-70zM404 490h126.999v-288c0 -64 -21.333 -115.333 -64 -154s-99 -58 -169 -58c-69.333 0 -125.166 19.333 -167.499 58s-63.5 90 -63.5 154v288h127v-292c0 -36.667 8 -61.834 24 -75.501s42.667 -20.5 80 -20.5c38 0 65.167 6.83301 81.5 20.5
s24.5 38.834 24.5 75.501v292z" />
    <glyph glyph-name="uhungarumlaut.ss03" horiz-adv-x="598" 
d="M393 713l-152 -153h-70l61 173h349l-171 -173h-71zM404 198l-0.000976562 292h127v-288c0 -64 -21.333 -115.333 -64 -154s-99 -58 -169 -58c-69.333 0 -125.166 19.333 -167.499 58s-63.5 90 -63.5 154v288h127v-292c0 -36.667 8 -61.834 24 -75.501
s42.667 -20.5 80 -20.5c38 0 65.167 6.83301 81.5 20.5s24.5 38.834 24.5 75.501z" />
    <glyph glyph-name="umacron.ss03" horiz-adv-x="598" 
d="M149 684h300v-91h-300v91zM404 490h126.999v-288c0 -64 -21.333 -115.333 -64 -154s-99 -58 -169 -58c-69.333 0 -125.166 19.333 -167.499 58s-63.5 90 -63.5 154v288h127v-292c0 -36.667 8 -61.834 24 -75.501s42.667 -20.5 80 -20.5c38 0 65.167 6.83301 81.5 20.5
s24.5 38.834 24.5 75.501v292z" />
    <glyph glyph-name="uogonek.ss03" horiz-adv-x="598" 
d="M404 490l126.999 0.00292969v-288c0 -52.667 -14.5 -96.834 -43.5 -132.501s-68.5 -59.5 -118.5 -71.5c-24 -18 -40.833 -32.167 -50.5 -42.5s-14.5 -21.5 -14.5 -33.5c0 -22.667 14 -34 42 -34c20.667 0 38.334 3 53.001 9v-77c-25.333 -6.66699 -51 -10 -77 -10
c-37.333 0 -65.833 8.16699 -85.5 24.5s-29.5 36.5 -29.5 60.5c0 41.333 28.333 73 85 95c-68 1.33301 -122.5 21.166 -163.5 59.499s-61.5 89.166 -61.5 152.499v288h127v-292c0 -36.667 8 -61.834 24 -75.501s42.667 -20.5 80 -20.5c38 0 65.167 6.83301 81.5 20.5
s24.5 38.834 24.5 75.501v292z" />
    <glyph glyph-name="uring.ss03" horiz-adv-x="598" 
d="M299 545c-37.333 0 -68 11.167 -92 33.5s-36 50.833 -36 85.5c0 35.333 12 64 36 86s54.667 33 92 33s68 -11 92 -33s36 -50.667 36 -86c0 -34.667 -12 -63.167 -36 -85.5s-54.667 -33.5 -92 -33.5zM300 619c16.667 0 28.334 3.5 35.001 10.5s10 18.5 10 34.5
c0 16.667 -3.33301 28.334 -10 35.001s-18.334 10 -35.001 10c-17.333 0 -29.5 -3.33301 -36.5 -10s-10.5 -18.334 -10.5 -35.001c0 -16 3.66699 -27.5 11 -34.5s19.333 -10.5 36 -10.5zM404 490h126.999v-288c0 -64 -21.333 -115.333 -64 -154s-99 -58 -169 -58
c-69.333 0 -125.166 19.333 -167.499 58s-63.5 90 -63.5 154v288h127v-292c0 -36.667 8 -61.834 24 -75.501s42.667 -20.5 80 -20.5c38 0 65.167 6.83301 81.5 20.5s24.5 38.834 24.5 75.501v292z" />
    <glyph glyph-name="t.ss07" horiz-adv-x="363" 
d="M345 490v-112h-105v-378h-128v378h-94v112h94v146h128v-146h105z" />
    <glyph glyph-name="tbar.ss07" horiz-adv-x="363" 
d="M345 378h-105v-73h105v-86h-105v-219h-128v219h-94v86h94v73h-94v112h94v146h128v-146h105v-112z" />
    <glyph glyph-name="tcaron.ss07" horiz-adv-x="363" 
d="M304 793h134l-65 -247h-69v247zM240 636v-146h105v-112h-105v-378h-128v378h-94v112h94v146h128z" />
    <glyph glyph-name="uni0163.ss07" horiz-adv-x="363" 
d="M240 0h-29.999l-34 -55c32.667 -2 57.834 -11 75.501 -27s26.5 -36 26.5 -60c0 -28.667 -11.333 -52.167 -34 -70.5s-51.334 -27.5 -86.001 -27.5c-28.667 0 -54.167 6.16699 -76.5 18.5s-37.833 29.166 -46.5 50.499l61 45c8.66699 -32.667 29 -49 61 -49
c11.333 0 20.5 2.83301 27.5 8.5s10.5 13.5 10.5 23.5c0 12.667 -8.83301 24.334 -26.5 35.001s-40.834 18.667 -69.501 24l51 84h-38v378h-94v112h94v146h128v-146h105v-112h-105v-378z" />
    <glyph glyph-name="uni021B.ss07" horiz-adv-x="363" 
d="M240 490h105v-112h-105v-378h-128v378h-94v112h94v146h128v-146zM175 -37c20 0 36.168 -5.83203 48.501 -17.499s18.833 -26.834 19.5 -45.501c0 -14 -3.33301 -26.333 -10 -37l-66 -102h-96l92 75c-16 2.66699 -29 9.66699 -39 21s-15 25.666 -15 42.999
c0 18.667 6.16699 33.834 18.5 45.501s28.166 17.5 47.499 17.5z" />
    <glyph glyph-name="f.ss08" horiz-adv-x="348" 
d="M343 490v-112h-144v-378h-127v575c0 45.333 13.833 82 41.5 110s64.167 42 109.5 42h117v-112h-141v-125h144z" />
    <glyph glyph-name="t.ss08" horiz-adv-x="364" 
d="M336 378h-142v-266h129v-112h-105c-45.333 0 -81.833 14 -109.5 42s-41.5 64.667 -41.5 110v484h127v-146h142v-112z" />
    <glyph glyph-name="tbar.ss08" horiz-adv-x="364" 
d="M336 378h-142v-73h126v-86h-126v-107h129v-112h-105c-45.333 0 -81.833 14 -109.5 42s-41.5 64.667 -41.5 110v484h127v-146h142v-112z" />
    <glyph glyph-name="tcaron.ss08" horiz-adv-x="364" 
d="M393 793l-65 -247h-69v247h134zM194 636v-146h142v-112h-142v-266h129v-112h-105c-45.333 0 -81.833 14 -109.5 42s-41.5 64.667 -41.5 110v484h127z" />
    <glyph glyph-name="uni0163.ss08" horiz-adv-x="364" 
d="M336 378l-142 0.00195312v-266h129v-112h-104l-33 -55c32.667 -2 57.667 -10.833 75 -26.5s26 -35.834 26 -60.501c0 -28.667 -11.333 -52.167 -34 -70.5s-51 -27.5 -85 -27.5c-28.667 0 -54.167 6.16699 -76.5 18.5s-37.833 29.166 -46.5 50.499l61 45
c8 -32.667 28 -49 60 -49c12 0 21.5 2.83301 28.5 8.5s10.5 13.5 10.5 23.5c0 12.667 -9 24.334 -27 35.001s-41.333 18.667 -70 24l56 92c-30 9.33301 -53.667 26.666 -71 51.999s-26 56 -26 92v484h127v-146h142v-112z" />
    <glyph glyph-name="uni021B.ss08" horiz-adv-x="364" 
d="M336 378h-142v-266h129v-112h-105c-45.333 0 -81.833 14 -109.5 42s-41.5 64.667 -41.5 110v484h127v-146h142v-112zM176 -37c19.333 0 35.333 -5.83301 48 -17.5s19 -26.834 19 -45.501c0 -14 -3.33301 -26.333 -10 -37l-65 -102h-97l93 75c-16 2 -29 8.83301 -39 20.5
s-15 26.167 -15 43.5c-0.666992 18.667 5.33301 33.834 18 45.501s28.667 17.5 48 17.5z" />
    <glyph glyph-name="m.ss10" horiz-adv-x="939" 
d="M715 490c46 0 83.833 -14 113.5 -42s44.5 -64.667 44.5 -110v-338h-127v375h-210v-375h-127v375h-210v-375h-127v490h643z" />
    <glyph glyph-name="n.ss10" horiz-adv-x="602" 
d="M378 490c46 0 83.833 -14 113.5 -42s44.5 -64.667 44.5 -110v-338h-127v375h-210v-375h-127v490h306z" />
    <glyph glyph-name="nacute.ss10" horiz-adv-x="602" 
d="M488 733l-172 -173h-70l61 173h181zM378 490c46 0 83.833 -14 113.5 -42s44.5 -64.667 44.5 -110v-338h-127v375h-210v-375h-127v490h306z" />
    <glyph glyph-name="ncaron.ss10" horiz-adv-x="602" 
d="M354 560h-111l-123 173h79l100 -79l99 79h79zM378 490c46 0 83.833 -14 113.5 -42s44.5 -64.667 44.5 -110v-338h-127v375h-210v-375h-127v490h306z" />
    <glyph glyph-name="uni0146.ss10" horiz-adv-x="602" 
d="M378 490c46 0 83.833 -14 113.5 -42s44.5 -64.667 44.5 -110v-338h-127v375h-210v-375h-127v490h306zM291 -37c20 0 36.168 -5.83203 48.501 -17.499s18.833 -26.834 19.5 -45.501c0 -14 -3.33301 -26.333 -10 -37l-66 -102h-96l92 75c-16 2.66699 -29 9.66699 -39 21
s-15 25.666 -15 42.999c0 18.667 6.16699 33.834 18.5 45.501s28.166 17.5 47.499 17.5z" />
    <glyph glyph-name="eng.ss10" horiz-adv-x="602" 
d="M378 490c46 0 83.833 -14 113.5 -42s44.5 -64.667 44.5 -110v-356c0 -45.333 -14 -82 -42 -110s-64.667 -42 -110 -42h-61v115h86v430h-210v-375h-127v490h306z" />
    <glyph glyph-name="ntilde.ss10" horiz-adv-x="602" 
d="M220 624c-17.333 0 -25.999 -18.668 -25.999 -56.001h-59c0 56 6.5 95.5 19.5 118.5s34.833 34.5 65.5 34.5c17.333 0 34.166 -3.66699 50.499 -11s29.5 -15.5 39.5 -24.5s21 -17.167 33 -24.5s22.667 -11 32 -11c18.667 0 28 18.667 28 56h58
c0 -54.667 -6.16699 -93.667 -18.5 -117s-33.833 -35 -64.5 -35c-22 0 -43.167 5.83301 -63.5 17.5s-38.333 23.334 -54 35.001s-29.167 17.5 -40.5 17.5zM378.001 489.999c46 0 83.833 -14 113.5 -42s44.5 -64.667 44.5 -110v-338h-127v375h-210v-375h-127v490h306z" />
    <glyph glyph-name="r.ss10" horiz-adv-x="421" 
d="M199 0h-127v338c0 45.333 14.667 82 44 110s67 42 113 42h172v-115h-202v-375z" />
    <glyph glyph-name="racute.ss10" horiz-adv-x="421" 
d="M405 733l-172 -173h-70l61 173h181zM199 0h-127v338c0 45.333 14.667 82 44 110s67 42 113 42h172v-115h-202v-375z" />
    <glyph glyph-name="rcaron.ss10" horiz-adv-x="421" 
d="M271 560h-111l-123 173h79l100 -79l99 79h79zM229 490h172v-115h-202v-375h-127v338c0 45.333 14.667 82 44 110s67 42 113 42z" />
    <glyph glyph-name="uni0157.ss10" horiz-adv-x="421" 
d="M229 490h172v-115h-202v-375h-127v338c0 45.333 14.667 82 44 110s67 42 113 42zM127 -37c20 0 36.168 -5.83203 48.501 -17.499s18.833 -26.834 19.5 -45.501c0 -14 -3.33301 -26.333 -10 -37l-66 -102h-96l92 75c-16 2.66699 -29 9.66699 -39 21s-15 25.666 -15 42.999
c0 18.667 6.16699 33.834 18.5 45.501s28.166 17.5 47.499 17.5z" />
    <glyph glyph-name="u.ss10" horiz-adv-x="603" 
d="M404 490h127v-490h-307c-46 0 -83.667 14 -113 42s-44 64.667 -44 110v338h127v-375h210v375z" />
    <glyph glyph-name="uacute.ss10" horiz-adv-x="603" 
d="M488 733l-172 -173h-70l61 173h181zM404 490h127v-490h-307c-46 0 -83.667 14 -113 42s-44 64.667 -44 110v338h127v-375h210v375z" />
    <glyph glyph-name="ucircumflex.ss10" horiz-adv-x="603" 
d="M299 639l-100 -79h-79l123 173h111l123 -173h-79zM404 490h127v-490h-307c-46 0 -83.667 14 -113 42s-44 64.667 -44 110v338h127v-375h210v375z" />
    <glyph glyph-name="udieresis.ss10" horiz-adv-x="603" 
d="M185 572c-54 0 -81.6689 27 -83.002 81c0 24.667 7.16699 43.834 21.5 57.501s34.833 20.5 61.5 20.5s47.167 -6.83301 61.5 -20.5s21.5 -32.834 21.5 -57.501c0.666992 -26 -6.16602 -46 -20.499 -60s-35.166 -21 -62.499 -21zM409.998 572
c-54 0 -81.6689 27 -83.002 81c0 24.667 7.16699 43.834 21.5 57.501s34.833 20.5 61.5 20.5s47.167 -6.83301 61.5 -20.5s21.5 -32.834 21.5 -57.501c0.666992 -26 -6.16602 -46 -20.499 -60s-35.166 -21 -62.499 -21zM403.996 490h127v-490h-307c-46 0 -83.667 14 -113 42
s-44 64.667 -44 110v338h127v-375h210v375z" />
    <glyph glyph-name="ugrave.ss10" horiz-adv-x="603" 
d="M350 560h-70l-172 173h181zM404 490h127v-490h-307c-46 0 -83.667 14 -113 42s-44 64.667 -44 110v338h127v-375h210v375z" />
    <glyph glyph-name="uhungarumlaut.ss10" horiz-adv-x="603" 
d="M392 713l-152 -153h-70l61 173h349l-171 -173h-71zM404 115v375h127v-490h-307c-46 0 -83.667 14 -113 42s-44 64.667 -44 110v338h127v-375h210z" />
    <glyph glyph-name="umacron.ss10" horiz-adv-x="603" 
d="M448 684v-91h-300v91h300zM404 490h127v-490h-307c-46 0 -83.667 14 -113 42s-44 64.667 -44 110v338h127v-375h210v375z" />
    <glyph glyph-name="uogonek.ss10" horiz-adv-x="603" 
d="M501 0c-25.333 -18.667 -43 -33.334 -53 -44.001s-15 -22 -15 -34c0 -22.667 14 -34 42 -34c20.667 0 38.334 3 53.001 9v-77c-24.667 -6.66699 -50.334 -10 -77.001 -10c-37.333 0 -65.833 8.16699 -85.5 24.5s-29.5 36.5 -29.5 60.5c0 22 9.5 42.333 28.5 61
s47.833 33.334 86.5 44.001h-227c-46 0 -83.667 14 -113 42s-44 64.667 -44 110v338h127v-375h210v375h127v-490h-30z" />
    <glyph glyph-name="uring.ss10" horiz-adv-x="603" 
d="M298 545c-37.333 0 -68 11.167 -92 33.5s-36 50.833 -36 85.5c0 35.333 12 64 36 86s54.667 33 92 33s68 -11 92 -33s36 -50.667 36 -86c0 -34.667 -12 -63.167 -36 -85.5s-54.667 -33.5 -92 -33.5zM299 709c-17.333 0 -29.5 -3.33301 -36.5 -10
s-10.5 -18.334 -10.5 -35.001c0 -16 3.66699 -27.5 11 -34.5s19.333 -10.5 36 -10.5s28.334 3.5 35.001 10.5s10 18.5 10 34.5c0 16.667 -3.33301 28.334 -10 35.001s-18.334 10 -35.001 10zM404 490h127v-490h-307c-46 0 -83.667 14 -113 42s-44 64.667 -44 110v338h127
v-375h210v375z" />
    <glyph glyph-name="f_f" horiz-adv-x="713" 
d="M708 490v-112h-144v-378h-127v378h-194v-378h-127v378h-103v112h103v85c0 45.333 14 82 42 110s64.667 42 110 42h117v-112h-142v-125h194v85c0 45.333 13.833 82 41.5 110s64.167 42 109.5 42h117v-112h-141v-125h144z" />
    <glyph glyph-name="f_f_f" horiz-adv-x="1034" 
d="M1029 490v-112h-145v-378h-127v378h-193v-378h-127v378h-194v-378h-127v378h-103v112h103v85c0 45.333 14 82 42 110s64.667 42 110 42h117v-112h-142v-125h194v85c0 45.333 13.833 82 41.5 110s64.167 42 109.5 42h117v-112h-141v-125h193v85c0 45.333 14 82 42 110
s64.667 42 110 42h117v-112h-142v-125h145z" />
    <glyph glyph-name="f_f_i" horiz-adv-x="943" 
d="M891 490v-490h-127v378h-194v-378h-127v378h-200v-378h-127v378h-103v112h103v85c0 45.333 14 82 42 110s64.667 42 110 42h117v-112h-142v-125h200v85c0 45.333 14 82 42 110s64.667 42 110 42h174v-112h-199v-125h321z" />
    <glyph glyph-name="f_f_l" horiz-adv-x="956" 
d="M757 700h127v-700h-127v378h-193v-378h-127v378h-194v-378h-127v378h-103v112h103v85c0 45.333 14 82 42 110s64.667 42 110 42h117v-112h-142v-125h194v85c0 45.333 13.833 82 41.5 110s64.167 42 109.5 42h94v-112h-118v-125h193v210z" />
    <glyph glyph-name="w_w_w" horiz-adv-x="2122" 
d="M1974 490h135l-142 -490h-137l-88 253l-26 92l-27 -93l-89 -252h-135l-77 259l-75 -259h-137l-88 253l-26 93l-27 -94l-89 -252h-135l-76 259l-75 -259h-137l-89 253l-26 92l-27 -93l-89 -252h-134l-145 490h138l66 -282l16 -84l22 85l90 281h125l89 -281l24 -90l17 90
l66 281h138l67 -282l16 -84l22 85l90 281h125l89 -281l24 -88l16 88l67 281h138l66 -282l16 -85l23 86l89 281h126l89 -281l24 -88l16 88z" />
    <glyph glyph-name="ordfeminine.ss01" horiz-adv-x="486" 
d="M242 709c58 0 103.5 -13.833 136.5 -41.5s49.5 -66.5 49.5 -116.5v-275h-109v95c-20.667 -69.333 -68.334 -104 -143.001 -104c-42.667 0 -76.667 10.5 -102 31.5s-38 49.5 -38 85.5c0 43.333 19 76.833 57 100.5s92.667 35.5 164 35.5h62v33c0 46.667 -26.667 70 -80 70
c-30 0 -52.167 -6.5 -66.5 -19.5s-21.833 -35.5 -22.5 -67.5l-99 22c0.666992 44.667 18.334 81 53.001 109s80.667 42 138 42zM210 346c30 0 55.668 9.66797 77.001 29.001s32 46.666 32 81.999h-59c-34 0 -61.333 -5.5 -82 -16.5s-31 -26.167 -31 -45.5
c0 -14.667 5.66699 -26.5 17 -35.5s26.666 -13.5 45.999 -13.5z" />
    <glyph glyph-name="zero.osf" horiz-adv-x="592" 
d="M295 568c78.667 0 141.834 -25.333 189.501 -76s71.5 -121.334 71.5 -212.001s-23.833 -161.667 -71.5 -213s-110.834 -77 -189.501 -77c-78 0 -140.667 25.833 -188 77.5s-71 122.5 -71 212.5c0 90.667 23.667 161.334 71 212.001s110 76 188 76zM295 104
c48 0 81.5 13.167 100.5 39.5s28.5 71.833 28.5 136.5s-9.5 109.834 -28.5 135.501s-52.5 38.5 -100.5 38.5c-47.333 0 -80.333 -12.833 -99 -38.5s-28 -70.834 -28 -135.501s9.5 -110.167 28.5 -136.5s51.833 -39.5 98.5 -39.5z" />
    <glyph glyph-name="one.osf" horiz-adv-x="560" 
d="M372 110h180v-110h-511v110h200v357l-168 -156l-60 124l235 123h124v-448z" />
    <glyph glyph-name="two.osf" horiz-adv-x="574" 
d="M186 110h341v-110h-480v104l188 111c45.333 26 80.5 51.333 105.5 76s37.5 51.667 37.5 81c0 55.333 -31.333 83 -94 83c-72 0 -102.667 -47.333 -92 -142l-138 17c-4.66699 74 14.333 132.167 57 174.5s101 63.5 175 63.5c69.333 0 125 -17.5 167 -52.5
s63 -81.167 63 -138.5c0 -92 -62 -162.667 -186 -212z" />
    <glyph glyph-name="three.osf" horiz-adv-x="587" 
d="M405 222c54 -10.667 95.6689 -31.167 125.002 -61.5s44 -67.5 44 -111.5c0 -58 -24 -106 -72 -144s-112.667 -57 -194 -57c-84.667 0 -151.334 20.167 -200.001 60.5s-74.334 95.833 -77.001 166.5l140 16c2 -85.333 49 -128 141 -128c87.333 0 131 34 131 102
c0 66 -50 98 -150 96l-70 -1v113l73 -1c84.667 -2 127 28 127 90c0 60.667 -38.333 91 -115 91c-42 0 -73.167 -10 -93.5 -30s-30.5 -52.667 -30.5 -98l-139 17c0.666992 71.333 24 126.833 70 166.5s109.333 59.5 190 59.5c74.667 0 134.667 -17.5 180 -52.5
s68 -79.5 68 -133.5c0 -40 -12.833 -73.667 -38.5 -101s-62.167 -47 -109.5 -59z" />
    <glyph glyph-name="four.osf" horiz-adv-x="614" 
d="M599 115l-0.000976562 -115h-88v-142h-131v142h-348v116c44 62 75.833 128.667 95.5 200s29.834 152 30.501 242h153c-6 -152 -63 -305 -171 -459l243 14l17 335h111v-333h88z" />
    <glyph glyph-name="five.osf" horiz-adv-x="609" 
d="M366 327c65.333 0 117.997 -20.833 157.997 -62.5s60 -97.5 60 -167.5c0 -75.333 -25.167 -135.666 -75.5 -180.999s-117.166 -68 -200.499 -68c-71.333 0 -132.166 17.167 -182.499 51.5s-80.5 81.833 -90.5 142.5l133 41c9.33301 -78.667 57 -118 143 -118
c92.667 0 139 43.667 139 131c0 42.667 -10.167 74.167 -30.5 94.5s-52.166 30.5 -95.499 30.5c-32 0 -60 -7.83301 -84 -23.5s-42 -36.834 -54 -63.501l-121 24l31 400h452v-115h-168l-169 16l-19 -241c14 35.333 37 62.333 69 81s67 28 105 28z" />
    <glyph glyph-name="six.osf" horiz-adv-x="604" 
d="M362 474c61.333 0 113.333 -21.833 156 -65.5s64 -99.834 64 -168.501c0 -74.667 -25.667 -135 -77 -181s-116.333 -69 -195 -69c-78 0 -142.167 23.167 -192.5 69.5s-75.5 106.833 -75.5 181.5c0 62.667 17.667 127.334 53 194.001s102 155 200 265h194l-80 -71
l-75.5 -67.5c-16.333 -15 -38 -37.333 -65 -67s-54.833 -63.167 -83.5 -100.5c52.667 53.333 111.667 80 177 80zM311 107c46.667 0 81.334 10.668 104.001 32.001s34 54.333 34 99c0 46 -11.333 79.833 -34 101.5s-57.667 32.5 -105 32.5
c-46.667 0 -81.167 -10.833 -103.5 -32.5s-33.5 -55.167 -33.5 -100.5c0 -44.667 11.167 -77.834 33.5 -99.501s57.166 -32.5 104.499 -32.5z" />
    <glyph glyph-name="seven.osf" horiz-adv-x="507" 
d="M18 558h484.001v-112c-80 -110.667 -138.333 -208.167 -175 -292.5s-56.334 -182.833 -59.001 -295.5h-168c28 218.667 131.667 413.667 311 585h-393v115z" />
    <glyph glyph-name="eight.osf" horiz-adv-x="630" 
d="M416 365c50.667 -9.33301 92.5 -28.5 125.5 -57.5s49.5 -68.167 49.5 -117.5c0 -62 -25.167 -110.833 -75.5 -146.5s-116.833 -53.5 -199.5 -53.5c-84 0 -151.167 18 -201.5 54s-75.5 85.333 -75.5 148c0 48.667 16.167 87.167 48.5 115.5s74.833 47.5 127.5 57.5
c-101.333 20 -152 71.333 -152 154c0 59.333 23 106 69 140s107 51 183 51c76.667 0 138 -17 184 -51s69 -80.333 69 -139c0 -40 -13 -73.167 -39 -99.5s-63.667 -44.833 -113 -55.5zM316 604c-82.667 0 -124 -31.333 -124 -94c0 -64 41 -96 123 -96c83.333 0 125 32 125 96
c0 62.667 -41.333 94 -124 94zM315 99c92 0 138 34.667 138 104c0 71.333 -46 107 -138 107c-48 0 -83.333 -8.5 -106 -25.5s-34 -43.833 -34 -80.5c0 -70 46.667 -105 140 -105z" />
    <glyph glyph-name="nine.osf" horiz-adv-x="604" 
d="M294 568c78 0 142.167 -23.167 192.5 -69.5s75.5 -106.833 75.5 -181.5c0 -62.667 -17.667 -127.334 -53 -194.001s-102 -155 -200 -265h-194l80 71l75.5 67.5c16.333 15 38 37.333 65 67s54.833 63.167 83.5 100.5c-52.667 -53.333 -111.667 -80 -177 -80
c-61.333 0 -113.333 21.833 -156 65.5s-64 99.834 -64 168.501c0 74.667 25.667 135 77 181s116.333 69 195 69zM294 186c46.667 0 81.167 10.832 103.5 32.499s33.5 55.167 33.5 100.5c0 44.667 -11.167 77.834 -33.5 99.501s-57.166 32.5 -104.499 32.5
c-46.667 0 -81.334 -10.667 -104.001 -32s-34 -54.333 -34 -99c0 -46 11.333 -79.833 34 -101.5s57.667 -32.5 105 -32.5z" />
    <glyph glyph-name="three.osf.ss05" horiz-adv-x="595" 
d="M316 270c74 0 133 -17.665 177 -52.998s66 -84.333 66 -147c0 -66.667 -24.333 -120.334 -73 -161.001s-113 -61 -193 -61c-84 0 -150.5 20.833 -199.5 62.5s-74.5 98.167 -76.5 169.5l143 15c1.33301 -44.667 13.5 -77.334 36.5 -98.001s57.167 -31 102.5 -31
c84 0 126 36 126 108c0 35.333 -11.5 62.5 -34.5 81.5s-56.5 28.5 -100.5 28.5c-14 0 -27 -1 -39 -3s-25 -5 -39 -9l-22 -6l-51 90l234 195l-157 -8h-182v115h505v-107l-236 -181h13z" />
    <glyph glyph-name="three.ss05" 
d="M321 412c74 0 133 -17.665 177 -52.998s66 -84.333 66 -147c0 -66.667 -24.333 -120.334 -73 -161.001s-113.334 -61 -194.001 -61c-83.333 0 -149.666 21 -198.999 63s-74.666 98.333 -75.999 169l143 15c0.666992 -44.667 12.667 -77.334 36 -98.001
s57.666 -31 102.999 -31c83.333 0 125 36 125 108c0 35.333 -11.5 62.5 -34.5 81.5s-56.167 28.5 -99.5 28.5c-14 0 -27 -1 -39 -3s-25.333 -5 -40 -9l-21 -6l-51 90l234 195l-157 -8h-182v115h505v-107l-236 -181h13z" />
    <glyph glyph-name="one.ss06" horiz-adv-x="555" 
d="M375 115h170v-115h-494v115h193v496l-150 -146l-68 117l225 118h124v-585z" />
    <glyph glyph-name="zero.tf" 
d="M299 710c82.667 0 149 -31.833 199 -95.5s75 -151.834 75 -264.501s-25 -200.834 -75 -264.501s-116.333 -95.5 -199 -95.5c-82 0 -147.833 31.833 -197.5 95.5s-74.5 151.834 -74.5 264.501s24.833 200.834 74.5 264.501s115.5 95.5 197.5 95.5zM299 106
c52.667 0 89.334 17.833 110.001 53.5s31 99.167 31 190.5s-10.333 154.833 -31 190.5s-57.334 53.5 -110.001 53.5c-52 0 -88.167 -17.833 -108.5 -53.5s-30.5 -99.167 -30.5 -190.5s10.167 -154.833 30.5 -190.5s56.5 -53.5 108.5 -53.5z" />
    <glyph glyph-name="one.tf" 
d="M568 115v-115h-531v115h204v496l-150 -146l-68 117l225 118h124v-585h196z" />
    <glyph glyph-name="two.tf" 
d="M166 115h385v-115h-509v108l211 155c50 36.667 89.333 72.167 118 106.5s43 71.166 43 110.499c0 75.333 -39.667 113 -119 113c-52 0 -87.333 -16.333 -106 -49s-21.334 -83.667 -8.00098 -153l-142 16c-13.333 94.667 3.83398 168.834 51.501 222.501
s115.5 80.5 203.5 80.5c76.667 0 138.5 -20.333 185.5 -61s70.5 -94 70.5 -160c0 -67.333 -19.167 -124 -57.5 -170s-93.5 -86.333 -165.5 -121z" />
    <glyph glyph-name="three.tf" 
d="M401 364c54 -10.667 95.832 -31.168 125.499 -61.501s44.5 -67.5 44.5 -111.5c0 -57.333 -24.167 -105.166 -72.5 -143.499s-113.166 -57.5 -194.499 -57.5c-84.667 0 -151.167 20.167 -199.5 60.5s-73.833 95.833 -76.5 166.5l140 16c2 -85.333 49 -128 141 -128
c87.333 0 131 34 131 102c0 66 -50 98 -150 96l-70 -1v113l72 -1c84.667 -2 127 28 127 90c0 60.667 -38 91 -114 91c-42 0 -73.167 -10 -93.5 -30s-30.5 -52.667 -30.5 -98l-139 17c0 71.333 23 126.833 69 166.5s109.333 59.5 190 59.5c74.667 0 134.667 -17.5 180 -52.5
s68 -79.5 68 -133.5c0 -40 -12.667 -73.667 -38 -101s-62 -47 -110 -59z" />
    <glyph glyph-name="four.tf" 
d="M571 279l0.000976562 -114.999h-82v-164h-132v164h-329v116c42 63.333 72 127.166 90 191.499s27.333 140.5 28 228.5h153c-4.66699 -137.333 -59.334 -283 -164.001 -437l225 14l17 320h112v-318h82z" />
    <glyph glyph-name="five.tf" 
d="M351 469c65.333 0 117.998 -20.833 157.998 -62.5s60 -97.5 60 -167.5c0 -75.333 -25.167 -135.666 -75.5 -180.999s-117.166 -68 -200.499 -68c-72 0 -132.833 17.167 -182.5 51.5s-79.5 81.833 -89.5 142.5l132 41c9.33301 -78.667 57.333 -118 144 -118
c46.667 0 81.334 10.667 104.001 32s34 54.333 34 99c0 42.667 -10.167 74.167 -30.5 94.5s-51.833 30.5 -94.5 30.5c-32.667 0 -61 -7.83301 -85 -23.5s-42 -36.834 -54 -63.501l-121 24l31 400h452v-115h-167l-170 16l-19 -241c14 35.333 37 62.333 69 81s67 28 105 28z
" />
    <glyph glyph-name="six.tf" 
d="M348 474c61.333 0 113.333 -21.833 156 -65.5s64 -99.834 64 -168.501c0 -74.667 -25.667 -135 -77 -181s-116.333 -69 -195 -69c-78 0 -142.167 23.167 -192.5 69.5s-75.5 106.833 -75.5 181.5c0 62.667 17.667 127.334 53 194.001s102 155 200 265h194l-80 -71
l-75.5 -67.5c-16.333 -15 -38 -37.333 -65 -67s-54.833 -63.167 -83.5 -100.5c52.667 53.333 111.667 80 177 80zM297 107c46.667 0 81.334 10.668 104.001 32.001s34 54.333 34 99c0 46 -11.333 79.833 -34 101.5s-57.667 32.5 -105 32.5
c-46.667 0 -81.167 -10.833 -103.5 -32.5s-33.5 -55.167 -33.5 -100.5c0 -44.667 11.167 -77.834 33.5 -99.501s57.166 -32.5 104.499 -32.5z" />
    <glyph glyph-name="seven.tf" 
d="M559 700l0.000976562 -112c-80 -110.667 -138.333 -208.167 -175 -292.5s-56.334 -182.833 -59.001 -295.5h-168c28 219.333 131.667 414.333 311 585h-303v-193h-127v308h521z" />
    <glyph glyph-name="eight.tf" 
d="M401 365c50.667 -9.33301 92.5 -28.5 125.5 -57.5s49.5 -68.167 49.5 -117.5c0 -62 -25.167 -110.833 -75.5 -146.5s-116.833 -53.5 -199.5 -53.5c-84 0 -151.167 18 -201.5 54s-75.5 85.333 -75.5 148c0 48.667 16.167 87.167 48.5 115.5s74.833 47.5 127.5 57.5
c-101.333 20 -152 71.333 -152 154c0 59.333 23 106 69 140s107 51 183 51c76.667 0 138 -17 184 -51s69 -80.333 69 -139c0 -40 -13 -73.167 -39 -99.5s-63.667 -44.833 -113 -55.5zM301 604c-82.667 0 -124 -31.333 -124 -94c0 -64 41 -96 123 -96c83.333 0 125 32 125 96
c0 62.667 -41.333 94 -124 94zM300 99c92 0 138 34.667 138 104c0 71.333 -46 107 -138 107c-48 0 -83.333 -8.5 -106 -25.5s-34 -43.833 -34 -80.5c0 -70 46.667 -105 140 -105z" />
    <glyph glyph-name="nine.tf" 
d="M304 710c78 0 142.167 -23.167 192.5 -69.5s75.5 -106.833 75.5 -181.5c0 -62.667 -17.667 -127.334 -53 -194.001s-102 -155 -200 -265h-194l80 71l75.5 67.5c16.333 15 38 37.333 65 67s54.833 63.167 83.5 100.5c-52.667 -53.333 -111.667 -80 -177 -80
c-61.333 0 -113.333 21.833 -156 65.5s-64 99.834 -64 168.501c0 74.667 25.667 135 77 181s116.333 69 195 69zM304 328c46.667 0 81.167 10.832 103.5 32.499s33.5 55.167 33.5 100.5c0 44.667 -11.167 77.834 -33.5 99.501s-57.166 32.5 -104.499 32.5
c-46.667 0 -81.334 -10.667 -104.001 -32s-34 -54.333 -34 -99c0 -46 11.333 -79.833 34 -101.5s57.667 -32.5 105 -32.5z" />
    <glyph glyph-name="three.tf.ss05" 
d="M329 412c74 0 133 -17.6641 177 -52.9971s66 -84.333 66 -147c0 -66.667 -24.333 -120.334 -73 -161.001s-113 -61 -193 -61c-83.333 0 -149.666 21 -198.999 63s-75 98.333 -77 169l144 15c0.666992 -44.667 12.667 -77.334 36 -98.001s57.666 -31 102.999 -31
c83.333 0 125 36 125 108c0 35.333 -11.5 62.5 -34.5 81.5s-56.5 28.5 -100.5 28.5c-14 0 -27 -1 -39 -3s-24.833 -4.83301 -38.5 -8.5s-21.167 -5.83398 -22.5 -6.50098l-51 90l234 195l-157 -8h-181v115h504v-107l-236 -181h13z" />
    <glyph glyph-name="zero.tosf" 
d="M295 568c78.667 0 141.834 -25.333 189.501 -76s71.5 -121.334 71.5 -212.001s-23.833 -161.667 -71.5 -213s-110.834 -77 -189.501 -77c-78 0 -140.667 25.833 -188 77.5s-71 122.5 -71 212.5c0 90.667 23.667 161.334 71 212.001s110 76 188 76zM295 104
c48 0 81.5 13.167 100.5 39.5s28.5 71.833 28.5 136.5s-9.5 109.834 -28.5 135.501s-52.5 38.5 -100.5 38.5c-47.333 0 -80.333 -12.833 -99 -38.5s-28 -70.834 -28 -135.501s9.5 -110.167 28.5 -136.5s51.833 -39.5 98.5 -39.5z" />
    <glyph glyph-name="one.tosf" 
d="M392 110h180v-110h-511v110h200v357l-168 -156l-60 124l235 123h124v-448z" />
    <glyph glyph-name="two.tosf" 
d="M214 110h341v-110h-480v104l188 111c45.333 26 80.5 51.333 105.5 76s37.5 51.667 37.5 81c0 55.333 -31.333 83 -94 83c-72 0 -102.667 -47.333 -92 -142l-138 17c-4.66699 74 14.333 132.167 57 174.5s101 63.5 175 63.5c69.333 0 125 -17.5 167 -52.5
s63 -81.167 63 -138.5c0 -92 -62 -162.667 -186 -212z" />
    <glyph glyph-name="three.tosf" 
d="M401 222c54 -10.667 95.832 -31.168 125.499 -61.501s44.5 -67.5 44.5 -111.5c0 -57.333 -24.167 -105.166 -72.5 -143.499s-113.166 -57.5 -194.499 -57.5c-84.667 0 -151.167 20.167 -199.5 60.5s-73.833 95.833 -76.5 166.5l140 16c2 -85.333 49 -128 141 -128
c87.333 0 131 34 131 102c0 66 -50 98 -150 96l-70 -1v113l72 -1c84.667 -2 127 28 127 90c0 60.667 -38 91 -114 91c-42 0 -73.167 -10 -93.5 -30s-30.5 -52.667 -30.5 -98l-139 17c0 71.333 23 126.833 69 166.5s109.333 59.5 190 59.5c74.667 0 134.667 -17.5 180 -52.5
s68 -79.5 68 -133.5c0 -40 -12.667 -73.667 -38 -101s-62 -47 -110 -59z" />
    <glyph glyph-name="four.tosf" 
d="M567 115l-0.000976562 -115h-88v-142h-131v142h-315v116c44 62 75.833 128.667 95.5 200s29.834 152 30.501 242h153c-6 -152.667 -62.667 -305.667 -170 -459l209 13l17 336h111v-333h88z" />
    <glyph glyph-name="five.tosf" 
d="M351 327c65.333 0 117.998 -20.833 157.998 -62.5s60 -97.5 60 -167.5c0 -75.333 -25.167 -135.666 -75.5 -180.999s-117.166 -68 -200.499 -68c-72 0 -132.833 17.167 -182.5 51.5s-79.5 81.833 -89.5 142.5l132 41c9.33301 -78.667 57.333 -118 144 -118
c46.667 0 81.334 10.667 104.001 32s34 54.333 34 99c0 42.667 -10.167 74.167 -30.5 94.5s-51.833 30.5 -94.5 30.5c-32.667 0 -61 -7.83301 -85 -23.5s-42 -36.834 -54 -63.501l-121 24l31 400h452v-115h-167l-170 16l-19 -241c14 35.333 37 62.333 69 81s67 28 105 28z
" />
    <glyph glyph-name="six.tosf" 
d="M348 474c61.333 0 113.333 -21.833 156 -65.5s64 -99.834 64 -168.501c0 -74.667 -25.667 -135 -77 -181s-116.333 -69 -195 -69c-78 0 -142.167 23.167 -192.5 69.5s-75.5 106.833 -75.5 181.5c0 62.667 17.667 127.334 53 194.001s102 155 200 265h194l-80 -71
l-75.5 -67.5c-16.333 -15 -38 -37.333 -65 -67s-54.833 -63.167 -83.5 -100.5c52.667 53.333 111.667 80 177 80zM297 107c46.667 0 81.334 10.668 104.001 32.001s34 54.333 34 99c0 46 -11.333 79.833 -34 101.5s-57.667 32.5 -105 32.5
c-46.667 0 -81.167 -10.833 -103.5 -32.5s-33.5 -55.167 -33.5 -100.5c0 -44.667 11.167 -77.834 33.5 -99.501s57.166 -32.5 104.499 -32.5z" />
    <glyph glyph-name="seven.tosf" 
d="M559 558l0.000976562 -112c-80 -110.667 -138.333 -208.167 -175 -292.5s-56.334 -182.833 -59.001 -295.5h-168c28 219.333 131.667 414.333 311 585h-303v-193h-127v308h521z" />
    <glyph glyph-name="eight.tosf" 
d="M401 365c50.667 -9.33301 92.5 -28.5 125.5 -57.5s49.5 -68.167 49.5 -117.5c0 -62 -25.167 -110.833 -75.5 -146.5s-116.833 -53.5 -199.5 -53.5c-84 0 -151.167 18 -201.5 54s-75.5 85.333 -75.5 148c0 48.667 16.167 87.167 48.5 115.5s74.833 47.5 127.5 57.5
c-101.333 20 -152 71.333 -152 154c0 59.333 23 106 69 140s107 51 183 51c76.667 0 138 -17 184 -51s69 -80.333 69 -139c0 -40 -13 -73.167 -39 -99.5s-63.667 -44.833 -113 -55.5zM301 604c-82.667 0 -124 -31.333 -124 -94c0 -64 41 -96 123 -96c83.333 0 125 32 125 96
c0 62.667 -41.333 94 -124 94zM300 99c92 0 138 34.667 138 104c0 71.333 -46 107 -138 107c-48 0 -83.333 -8.5 -106 -25.5s-34 -43.833 -34 -80.5c0 -70 46.667 -105 140 -105z" />
    <glyph glyph-name="nine.tosf" 
d="M304 578c78 0 142.167 -23.167 192.5 -69.5s75.5 -106.833 75.5 -181.5c0 -62.667 -17.667 -127.334 -53 -194.001s-102 -155 -200 -265h-194l80 71l75.5 67.5c16.333 15 38 37.333 65 67s54.833 63.167 83.5 100.5c-52.667 -53.333 -111.667 -80 -177 -80
c-61.333 0 -113.333 21.833 -156 65.5s-64 99.834 -64 168.501c0 74.667 25.667 135 77 181s116.333 69 195 69zM304 196c46.667 0 81.167 10.832 103.5 32.499s33.5 55.167 33.5 100.5c0 44.667 -11.167 77.834 -33.5 99.501s-57.166 32.5 -104.499 32.5
c-46.667 0 -81.334 -10.667 -104.001 -32s-34 -54.333 -34 -99c0 -46 11.333 -79.833 34 -101.5s57.667 -32.5 105 -32.5z" />
    <glyph glyph-name="three.tosf.ss05" 
d="M329 271c74 0 133 -17.6641 177 -52.9971s66 -84.333 66 -147c0 -66.667 -24.333 -120.334 -73 -161.001s-113 -61 -193 -61c-83.333 0 -149.666 21 -198.999 63s-75 98.333 -77 169l144 15c0.666992 -44.667 12.667 -77.334 36 -98.001s57.666 -31 102.999 -31
c83.333 0 125 36 125 108c0 35.333 -11.5 62.5 -34.5 81.5s-56.5 28.5 -100.5 28.5c-14 0 -27 -1 -39 -3s-24.833 -4.83301 -38.5 -8.5s-21.167 -5.83398 -22.5 -6.50098l-51 90l234 195l-157 -8h-181v115h504v-107l-236 -181h13z" />
    <glyph glyph-name="zero.zero" horiz-adv-x="652" 
d="M325 710c86 0 155.333 -31.833 208 -95.5s79 -151.834 79 -264.501s-26.333 -200.834 -79 -264.501s-122 -95.5 -208 -95.5s-155 31.833 -207 95.5s-78 151.834 -78 264.501s26 200.834 78 264.501s121 95.5 207 95.5zM325 594c-56.667 0 -96 -17.834 -118 -53.501
s-33 -99.167 -33 -190.5c0 -49.333 2.66699 -87.666 8 -114.999l98 125l139 209c-22.667 16.667 -54 25 -94 25zM325 105.999c56.667 0 96.167 17.833 118.5 53.5s33.5 99.167 33.5 190.5c0 56 -3.66699 99.667 -11 131l-119 -153l-125 -188c22.667 -22.667 57 -34 103 -34z
" />
    <glyph glyph-name="zero.zero.osf" 
d="M299 568c78.667 0 141.834 -25.333 189.501 -76s71.5 -121.334 71.5 -212.001s-23.833 -161.667 -71.5 -213s-110.834 -77 -189.501 -77c-78 0 -140.667 25.833 -188 77.5s-71 122.5 -71 212.5c0 90.667 23.667 161.334 71 212.001s110 76 188 76zM299 454
c-47.333 0 -80.333 -12.832 -99 -38.499s-28 -70.834 -28 -135.501c0 -42.667 3.66699 -76 11 -100l84 115l89 151c-14 5.33301 -33 8 -57 8zM299 104.001c48 0 81.5 13.167 100.5 39.5s28.5 71.833 28.5 136.5c0 48.667 -4.66699 85 -14 109l-92 -126l-87 -148
c18 -7.33301 39.333 -11 64 -11z" />
    <glyph glyph-name="zero.zero.tf" 
d="M299 710c82.667 0 149 -31.833 199 -95.5s75 -151.834 75 -264.501s-25 -200.834 -75 -264.501s-116.333 -95.5 -199 -95.5c-82 0 -147.833 31.833 -197.5 95.5s-74.5 151.834 -74.5 264.501s24.833 200.834 74.5 264.501s115.5 95.5 197.5 95.5zM299 594
c-52 0 -88.168 -17.832 -108.501 -53.499s-30.5 -99.167 -30.5 -190.5c0 -42.667 2 -78.334 6 -107.001l85 115l130 215c-19.333 14 -46.666 21 -81.999 21zM298.999 106.001c52.667 0 89.333 17.833 110 53.5s31 99.167 31 190.5c0 51.333 -3 94 -9 128l-111 -152
l-114 -188c20.667 -21.333 51.667 -32 93 -32z" />
    <glyph glyph-name="zero.zero.tosf" 
d="M299 568c78.667 0 141.834 -25.333 189.501 -76s71.5 -121.334 71.5 -212.001s-23.833 -161.667 -71.5 -213s-110.834 -77 -189.501 -77c-78 0 -140.667 25.833 -188 77.5s-71 122.5 -71 212.5c0 90.667 23.667 161.334 71 212.001s110 76 188 76zM299 454
c-47.333 0 -80.333 -12.832 -99 -38.499s-28 -70.834 -28 -135.501c0 -44.667 4.33301 -79.667 13 -105l87 120l88 150c-16 6 -36.333 9 -61 9zM299 104.001c48 0 81.5 13.167 100.5 39.5s28.5 71.833 28.5 136.5c0 44 -4.33301 78.667 -13 104l-85 -119l-90 -152
c16 -6 35.667 -9 59 -9z" />
    <glyph glyph-name="zero.dnom" horiz-adv-x="390" 
d="M194 404c50.667 0 91.5 -18 122.5 -54s46.5 -86.333 46.5 -151s-15.333 -115 -46 -151s-71.667 -54 -123 -54c-50.667 0 -91.167 18 -121.5 54s-45.5 86.333 -45.5 151c0 64 15.167 114.167 45.5 150.5s70.833 54.5 121.5 54.5zM194 74c29.333 0 49 8.66699 59 26
s15 50.333 15 99s-5 81.667 -15 99s-29.667 26 -59 26c-28 0 -47 -8.66699 -57 -26s-15 -50.333 -15 -99s5 -81.667 15 -99s29 -26 57 -26z" />
    <glyph glyph-name="one.dnom" horiz-adv-x="302" 
d="M136 398h92v-398h-95v340l-95 -88l-36 78z" />
    </font>
</defs>
</svg>
