<?xml version="1.0" standalone="no"?>
<!DOCTYPE svg PUBLIC "-//W3C//DTD SVG 20010904//EN"
 "http://www.w3.org/TR/2001/REC-SVG-20010904/DTD/svg10.dtd">
<svg version="1.0" xmlns="http://www.w3.org/2000/svg"
 width="982.000000pt" height="785.000000pt" viewBox="0 0 982.000000 785.000000"
 preserveAspectRatio="xMidYMid meet">
<metadata>
Created by potrace 1.16, written by Peter Selinger 2001-2019
</metadata>
<g transform="translate(0.000000,785.000000) scale(0.100000,-0.100000)"
fill="#000000" stroke="none">
<path d="M2305 7843 c-101 -9 -328 -45 -400 -63 -166 -44 -228 -94 -241 -193
-4 -26 -16 -61 -28 -77 -11 -15 -34 -47 -51 -70 -16 -22 -43 -60 -60 -82 -56
-77 -130 -116 -380 -202 -497 -170 -790 -286 -895 -355 -97 -64 -136 -151
-151 -336 -5 -66 -21 -208 -34 -315 -44 -364 -50 -485 -50 -1065 1 -619 18
-980 81 -1680 47 -532 214 -1673 329 -2251 3 -11 27 -44 55 -74 l50 -53 254 5
255 5 3 -273 3 -272 24 -26 c31 -33 155 -81 291 -113 86 -20 141 -26 305 -30
178 -5 224 -2 415 21 438 55 628 112 752 224 l38 34 40 -36 c53 -47 145 -93
238 -117 135 -34 412 -21 662 33 52 11 201 41 330 67 220 45 238 47 275 34 64
-22 113 -31 240 -42 186 -17 206 -26 348 -154 187 -168 247 -190 532 -191 178
0 261 12 345 53 l38 18 17 -44 c32 -83 138 -130 315 -140 169 -9 321 29 415
104 19 15 54 54 77 86 23 31 43 57 45 57 18 0 65 -39 169 -140 151 -146 198
-172 330 -178 153 -7 299 41 479 159 129 84 153 90 430 100 349 12 466 36 570
114 64 48 148 85 194 85 85 0 307 80 427 155 230 143 284 269 284 657 l0 190
35 48 c63 86 100 177 100 247 0 56 -3 66 -30 92 -16 17 -57 45 -90 63 -48 27
-61 40 -69 68 -6 21 -33 59 -66 91 -65 66 -152 112 -400 215 -91 37 -183 77
-205 89 -22 12 -89 48 -150 80 -434 230 -1101 637 -1310 800 -128 100 -120 77
-90 256 61 375 88 660 88 934 0 323 -23 427 -135 622 -81 142 -113 227 -127
341 -13 101 -5 193 45 517 32 208 37 265 38 425 1 160 -2 199 -22 289 -35 153
-59 225 -84 248 -14 12 -62 30 -119 43 -85 21 -101 22 -129 10 -47 -20 -58
-56 -49 -165 4 -49 8 -157 8 -238 l1 -148 -73 -77 c-40 -42 -89 -97 -110 -121
-20 -25 -38 -43 -40 -40 -2 2 -21 33 -42 68 -21 36 -76 104 -121 151 -74 79
-83 92 -94 145 -12 56 -9 226 6 337 5 41 3 50 -20 72 -52 53 -147 19 -271 -95
-94 -87 -101 -120 -86 -427 17 -333 42 -475 105 -613 53 -114 69 -189 70 -314
1 -127 -9 -175 -72 -335 -94 -241 -123 -402 -123 -675 0 -284 40 -573 131
-942 28 -111 50 -208 49 -215 0 -13 -23 -33 -194 -169 -145 -116 -453 -393
-708 -636 -59 -57 -110 -103 -115 -103 -4 0 -18 91 -30 203 -55 478 -132 1038
-327 2382 -119 818 -182 1146 -328 1695 -91 343 -77 334 -827 530 -280 73
-527 148 -590 180 -51 26 -144 141 -169 210 -53 146 -132 204 -309 230 -63 9
-229 11 -317 3z m322 -193 c85 -19 86 -23 13 -93 -166 -158 -247 -225 -261
-216 -8 5 -30 9 -49 9 -22 0 -51 11 -80 31 -57 38 -132 77 -184 95 -41 15
-166 93 -166 105 0 11 217 52 385 72 68 9 297 6 342 -3z m129 -337 c-3 -21 -6
-111 -6 -200 l0 -162 -28 8 c-49 15 -88 39 -146 92 -51 47 -56 54 -56 94 0 40
4 47 63 100 60 55 137 104 166 105 10 0 12 -9 7 -37z m-686 -54 c77 -41 119
-78 122 -110 3 -21 -15 -41 -105 -122 -60 -53 -115 -97 -123 -97 -7 0 -18 19
-24 43 -6 23 -13 49 -16 57 -7 19 -34 208 -34 238 0 20 4 22 61 22 49 0 73 -6
119 -31z m1019 -61 c71 -30 293 -270 276 -298 -3 -6 -18 -10 -33 -10 -22 0
-32 8 -47 38 -11 20 -80 97 -153 171 -133 132 -136 139 -43 99z m-1459 -69 c0
-35 -9 -54 -57 -117 -32 -42 -81 -115 -109 -162 -32 -53 -57 -85 -68 -84 -9 0
-32 1 -51 2 -20 1 -35 7 -35 15 0 6 27 68 61 137 59 123 62 126 117 157 31 17
73 45 92 62 19 17 38 30 43 31 4 0 7 -19 7 -41z m2112 -118 c222 -57 424 -114
433 -122 2 -3 -14 -117 -35 -254 -21 -138 -48 -320 -60 -405 -12 -85 -23 -164
-25 -175 -4 -19 -12 -20 -215 -20 l-211 0 6 25 c38 147 105 482 135 681 11 66
10 80 -4 107 -21 40 -59 60 -130 68 l-56 7 -44 73 c-25 41 -41 74 -36 74 4 0
113 -27 242 -59z m-1313 -82 c107 -103 244 -169 352 -169 l49 0 0 -147 c-1
-544 -35 -1044 -120 -1743 -16 -135 -41 -355 -56 -490 -14 -135 -29 -248 -33
-252 -7 -8 -292 846 -386 1156 -94 307 -189 699 -285 1170 -54 266 -53 262
-44 253 8 -8 100 21 156 49 26 13 97 69 158 124 73 66 118 100 133 100 14 0
43 -19 76 -51z m-1269 16 c0 -13 -65 -151 -75 -157 -5 -4 -24 -8 -41 -8 -48 0
-122 -30 -144 -57 -40 -52 -45 -39 312 -773 287 -589 759 -1407 1033 -1790 45
-63 110 -162 145 -220 73 -122 87 -140 111 -140 12 0 22 -15 34 -50 16 -48 15
-54 -9 -177 -76 -378 -78 -759 -10 -1643 32 -415 115 -826 219 -1082 l25 -61
-25 -33 c-50 -65 -155 -119 -301 -153 -95 -22 -388 -61 -604 -81 -181 -17
-375 2 -532 52 l-68 22 0 236 0 237 58 13 c31 7 69 18 84 26 37 19 68 62 68
95 0 16 12 53 27 84 l27 55 -37 268 c-20 147 -66 474 -102 727 -35 252 -62
461 -60 463 2 3 129 20 282 38 325 40 320 38 308 134 -4 33 -14 63 -26 75 -20
21 -41 19 -437 -29 l-104 -13 6 26 c4 14 9 112 13 217 8 257 -13 452 -91 869
-19 99 -39 230 -46 290 -58 548 -310 1325 -677 2087 -71 147 -84 181 -72 189
26 17 675 265 702 268 4 1 7 -1 7 -4z m1990 -176 c51 -96 52 -96 246 -69 91
12 167 20 170 17 7 -6 -35 -237 -82 -452 -107 -493 -249 -926 -519 -1584 -109
-267 -117 -283 -110 -226 55 425 120 1048 140 1327 19 281 38 924 31 1053 l-6
100 49 -53 c27 -30 63 -80 81 -113z m-1445 -114 c51 -270 155 -743 219 -995
67 -265 130 -475 289 -962 52 -159 93 -288 92 -288 -5 0 -202 318 -294 474
-270 455 -446 783 -683 1270 -114 236 -208 431 -208 433 0 6 125 -6 248 -23
143 -21 162 -13 214 91 32 63 88 149 93 143 2 -2 15 -66 30 -143z m2681 -241
c58 -240 116 -511 148 -695 58 -326 356 -2448 420 -2989 56 -473 107 -1052 94
-1066 -3 -3 -41 -1 -83 5 -104 15 -256 13 -400 -4 -65 -8 -121 -12 -124 -9
-11 10 -143 872 -251 1637 -187 1324 -171 1170 -145 1417 22 197 48 344 95
535 31 124 44 207 60 370 24 254 49 457 95 755 19 124 35 230 35 235 0 28 15
-23 56 -191z m2743 -29 c0 -91 -14 -220 -60 -520 -39 -263 -43 -426 -11 -556
25 -103 52 -165 137 -318 85 -153 95 -199 102 -443 8 -280 -20 -599 -88 -996
-41 -243 -42 -231 39 -311 174 -174 699 -510 1383 -884 223 -122 321 -170 461
-226 271 -107 328 -140 358 -208 25 -57 69 -105 127 -140 37 -22 41 -27 33
-48 -9 -24 -60 -105 -66 -105 -2 0 -92 14 -200 31 -255 39 -363 68 -502 133
-67 32 -121 52 -133 49 -27 -7 -59 -51 -59 -80 0 -32 35 -65 109 -103 129 -64
305 -110 602 -156 l117 -17 6 -45 c9 -69 7 -249 -4 -340 -14 -108 -44 -186
-89 -231 -70 -70 -259 -164 -381 -190 -30 -7 -85 -19 -122 -28 l-67 -16 -58
43 c-88 67 -228 205 -298 295 -125 160 -230 354 -319 589 -25 65 -53 127 -62
137 -32 36 -107 19 -124 -27 -11 -28 21 -125 101 -312 134 -313 337 -590 571
-778 l38 -30 -31 -23 c-39 -29 -136 -46 -337 -60 -250 -18 -220 -27 -293 87
-150 229 -251 463 -399 922 -51 157 -101 294 -111 305 -40 42 -129 12 -129
-43 0 -30 125 -429 190 -607 93 -254 180 -438 287 -610 45 -72 50 -85 33 -85
-31 0 -135 -51 -228 -112 -135 -89 -195 -116 -287 -128 -120 -15 -142 -5 -300
149 -66 64 -130 124 -143 132 l-24 14 25 130 c53 273 94 723 86 950 -4 93 -5
98 -33 122 -23 19 -36 24 -60 19 -62 -12 -66 -26 -66 -250 0 -288 -22 -517
-77 -809 -24 -130 -27 -139 -52 -148 -35 -14 -65 -43 -117 -116 -34 -48 -57
-68 -101 -90 -55 -27 -65 -28 -193 -28 -155 0 -190 6 -190 36 0 11 -6 35 -14
54 -14 34 -14 35 31 102 146 218 252 571 253 840 0 63 -3 74 -22 87 -32 23
-75 20 -102 -7 -19 -19 -24 -38 -30 -117 -20 -271 -110 -552 -236 -734 -47
-68 -54 -74 -98 -84 -26 -5 -80 -22 -121 -37 -140 -51 -420 -44 -522 12 -26
14 -93 68 -149 120 -70 65 -122 104 -166 125 -60 28 -184 57 -248 58 -27 0
-24 4 40 49 90 63 237 194 349 313 64 66 109 126 154 204 136 233 157 268 199
316 23 27 45 61 48 74 8 29 -17 70 -52 86 -35 16 -64 -1 -121 -71 l-48 -61 -6
43 c-4 23 -12 123 -18 222 -7 99 -15 195 -18 214 -6 33 -2 38 113 148 337 324
720 667 864 776 52 39 126 101 164 138 l68 67 -4 48 c-3 27 -23 119 -46 204
-184 699 -198 1202 -42 1575 56 133 78 211 90 320 18 157 -10 316 -86 486 -49
111 -71 232 -88 499 l-6 85 25 -54 c15 -31 56 -86 98 -130 82 -86 155 -196
199 -303 40 -97 60 -118 113 -118 48 0 72 21 102 90 24 54 69 112 196 248 109
116 113 127 124 277 7 97 8 98 14 45 4 -30 7 -91 8 -135z m-6670 -230 c262
-593 438 -1131 518 -1584 24 -140 26 -164 28 -581 3 -619 8 -678 171 -1814 52
-363 94 -665 94 -671 0 -8 -35 -14 -106 -18 -165 -11 -442 -74 -565 -131 -17
-8 -43 121 -119 604 -132 832 -192 1345 -235 1990 -65 1000 -58 1671 25 2284
11 82 20 170 20 196 0 99 12 79 169 -275z m3456 -347 c-4 -18 -8 -34 -9 -34 0
-1 -79 -5 -174 -9 l-173 -8 7 29 c4 16 8 31 10 33 7 8 126 18 232 20 l114 1
-7 -32z m84 -302 c-4 -41 -26 -152 -48 -248 -83 -352 -124 -733 -125 -1143 -1
-357 27 -564 109 -823 13 -42 22 -78 20 -80 -2 -2 -99 -9 -215 -15 -241 -14
-240 -13 -240 -98 0 -59 17 -98 44 -104 12 -3 125 1 253 8 l232 12 5 -35 c3
-19 35 -231 71 -470 102 -673 175 -1121 191 -1160 8 -19 26 -44 39 -55 21 -18
28 -45 60 -242 20 -122 34 -227 31 -232 -11 -17 -126 -50 -266 -77 -74 -14
-200 -41 -280 -59 -189 -44 -255 -54 -427 -64 -214 -13 -324 12 -422 95 -116
100 -256 575 -305 1039 -41 382 -79 1221 -62 1358 l7 57 37 0 c92 0 154 77
160 199 4 90 -16 127 -90 164 l-56 28 15 57 c8 31 62 165 120 297 241 550 475
1143 602 1527 l42 127 62 4 c34 2 148 4 252 5 l191 2 -7 -74z m1076 -4183
c-70 -110 -237 -280 -369 -378 -43 -31 -79 -55 -81 -53 -8 8 -68 388 -62 394
3 4 93 15 199 25 106 10 218 23 248 28 87 14 85 14 65 -16z"/>
<path d="M2333 6660 c-99 -51 -118 -174 -40 -259 73 -79 210 -64 257 30 76
148 -71 303 -217 229z"/>
<path d="M2393 5989 c-147 -73 -98 -290 69 -305 98 -10 167 57 168 162 0 125
-123 200 -237 143z"/>
<path d="M2475 5276 c-37 -16 -82 -68 -91 -102 -11 -42 2 -110 26 -144 45 -63
154 -89 216 -51 76 46 102 158 55 234 -41 67 -133 95 -206 63z"/>
</g>
</svg>
