<?xml version="1.0" standalone="no"?>
<!DOCTYPE svg PUBLIC "-//W3C//DTD SVG 20010904//EN"
 "http://www.w3.org/TR/2001/REC-SVG-20010904/DTD/svg10.dtd">
<svg version="1.0" xmlns="http://www.w3.org/2000/svg"
 width="900.000000pt" height="1060.000000pt" viewBox="0 0 900.000000 1060.000000"
 preserveAspectRatio="xMidYMid meet">
<metadata>
Created by potrace 1.16, written by Peter Selinger 2001-2019
</metadata>
<g transform="translate(0.000000,1060.000000) scale(0.100000,-0.100000)"
fill="#000000" stroke="none">
<path d="M4255 10193 c-573 -46 -949 -154 -1258 -359 -254 -170 -398 -382
-442 -654 -5 -34 -8 -36 -83 -58 -250 -76 -559 -257 -727 -426 -53 -53 -74
-88 -162 -266 -337 -678 -614 -1492 -807 -2365 -131 -596 -220 -1273 -256
-1955 -13 -251 -13 -909 0 -1160 21 -390 71 -890 125 -1235 14 -88 48 -315 76
-505 28 -190 57 -360 65 -377 7 -18 28 -42 46 -53 32 -20 46 -20 470 -18 l438
3 31 32 32 31 49 341 49 340 45 97 c49 104 58 107 70 28 8 -58 38 -103 79
-120 52 -21 4758 -21 4810 0 41 17 71 62 79 120 13 81 22 77 71 -29 l46 -100
48 -333 c51 -353 56 -371 112 -399 34 -18 864 -18 898 0 57 29 62 47 118 420
145 962 173 1211 203 1752 13 244 13 913 0 1165 -78 1488 -401 2867 -962 4110
-83 185 -200 409 -234 449 -33 40 -191 167 -285 229 -136 91 -370 200 -501
232 -44 11 -48 15 -53 49 -44 275 -193 492 -455 663 -101 67 -294 160 -407
198 -223 74 -512 129 -789 149 -128 10 -441 12 -539 4z m500 -238 c161 -7 369
-38 545 -81 492 -120 809 -350 895 -648 13 -43 16 -85 13 -160 -3 -92 -7 -107
-38 -164 -109 -203 -427 -316 -929 -329 -209 -6 -214 -5 -200 13 8 11 53 71
100 134 178 237 290 434 319 559 7 29 10 80 7 112 -18 197 -200 326 -553 391
-105 19 -154 22 -414 22 -260 0 -309 -3 -414 -22 -220 -41 -362 -100 -457
-193 -83 -81 -115 -191 -90 -309 26 -120 141 -321 320 -560 47 -63 92 -123
100 -134 14 -18 9 -19 -200 -13 -508 13 -840 134 -939 342 -32 68 -40 225 -15
311 59 204 224 374 490 505 264 130 624 211 1010 228 165 8 199 7 450 -4z m70
-401 c262 -34 411 -108 409 -203 -2 -48 -54 -159 -133 -279 l-61 -92 -540 0
-540 0 -61 92 c-79 120 -131 231 -133 279 -3 113 209 196 559 219 150 10 356
3 500 -16z m-2231 -707 c79 -213 325 -382 667 -456 197 -42 322 -54 609 -55
l274 -1 118 -240 117 -240 1 -238 0 -237 -1102 2 -1102 3 -62 270 c-35 149
-93 407 -131 574 l-68 304 55 49 c79 72 231 170 344 224 119 56 249 105 257
96 3 -4 14 -28 23 -55z m4092 -42 c125 -61 263 -150 344 -223 l54 -49 -68
-304 c-37 -167 -95 -425 -130 -574 l-62 -270 -1102 -3 -1102 -2 0 236 0 237
120 245 120 244 157 -7 c187 -8 437 7 612 36 390 65 651 215 756 434 18 39 36
78 39 87 5 16 11 16 78 -8 40 -14 123 -50 184 -79z m-1838 -75 c-1 -5 -39 -53
-84 -107 -69 -85 -93 -124 -169 -285 -49 -104 -91 -188 -95 -188 -3 0 -46 83
-95 186 -91 190 -96 199 -203 328 l-63 76 356 0 c225 0 355 -4 353 -10z
m-3060 -702 c23 -101 71 -313 107 -471 l66 -288 -40 -172 c-76 -324 -123 -589
-165 -927 -103 -818 -112 -1841 -25 -2805 39 -441 106 -935 160 -1190 l22
-100 -101 -207 -101 -208 -410 0 c-226 0 -411 3 -411 7 0 4 -13 100 -30 213
-166 1151 -158 2319 25 3490 138 880 396 1796 718 2545 96 224 129 295 137
295 3 0 25 -82 48 -182z m5555 10 c384 -875 656 -1841 796 -2838 161 -1135
159 -2249 -5 -3358 -13 -91 -24 -169 -24 -174 0 -4 -185 -8 -411 -8 l-411 0
-99 205 c-54 113 -99 214 -99 224 0 10 11 67 24 127 68 302 154 1021 186 1554
75 1259 4 2344 -216 3303 l-46 198 103 447 c56 246 104 457 107 470 2 12 8 22
12 22 4 0 41 -78 83 -172z m-2965 -3255 l2 -2363 -1149 0 -1148 0 -17 111
c-113 736 -162 1484 -153 2333 8 698 42 1126 133 1666 33 195 107 550 125 598
l9 22 1097 -2 1098 -3 3 -2362z m2447 2357 c10 -16 84 -356 116 -529 56 -313
99 -681 131 -1126 18 -245 18 -1340 0 -1605 -33 -496 -72 -887 -123 -1240 -16
-113 -29 -208 -29 -212 0 -5 -517 -8 -1150 -8 l-1150 0 0 2358 c0 1297 3 2362
7 2365 11 11 2191 8 2198 -3z m-2445 -5005 l0 -55 -1112 2 -1112 3 -12 47 c-6
26 -9 49 -6 52 3 4 509 6 1124 6 l1118 0 0 -55z m2482 49 c3 -3 0 -26 -6 -52
l-12 -47 -1112 -3 -1112 -2 0 48 c0 27 3 52 7 55 8 8 2227 9 2235 1z m-2482
-394 l0 -50 -1074 0 -1074 0 -6 36 c-4 19 -10 42 -13 50 -4 12 144 14 1081 14
l1086 0 0 -50z m2407 36 c-3 -8 -9 -31 -13 -50 l-6 -36 -1074 0 -1074 0 0 50
0 50 1086 0 c937 0 1085 -2 1081 -14z m-5141 -437 c-3 -17 -6 -38 -6 -45 0
-12 -60 -14 -350 -14 -290 0 -350 2 -350 14 0 7 -3 28 -6 45 l-6 31 362 0 363
0 -7 -31z m6420 0 c-3 -17 -6 -38 -6 -45 0 -12 -60 -14 -350 -14 -290 0 -350
2 -350 14 0 7 -3 28 -6 45 l-6 31 362 0 363 0 -7 -31z m-6466 -323 c0 -14 -4
-36 -10 -50 l-10 -26 -289 0 c-159 0 -292 4 -295 8 -3 5 -8 28 -12 50 l-7 42
312 0 311 0 0 -24z m6416 -18 c-4 -22 -9 -45 -12 -50 -3 -4 -136 -8 -295 -8
l-289 0 -10 26 c-6 14 -10 36 -10 50 l0 24 311 0 312 0 -7 -42z"/>
<path d="M2708 5274 c-15 -8 -34 -27 -42 -42 -8 -16 -49 -190 -91 -388 -42
-197 -126 -588 -186 -868 -60 -280 -109 -526 -109 -548 0 -32 7 -47 34 -74 29
-29 41 -34 80 -34 36 0 52 6 76 28 29 26 34 42 111 397 174 808 299 1404 299
1429 0 87 -95 142 -172 100z"/>
<path d="M6179 5275 c-35 -19 -59 -58 -59 -96 0 -46 361 -1740 381 -1792 17
-40 60 -67 109 -67 34 0 48 6 76 34 27 27 34 42 34 74 0 22 -49 268 -109 548
-60 280 -144 671 -186 869 -42 198 -83 372 -91 387 -27 52 -101 73 -155 43z"/>
</g>
</svg>
