<?xml version="1.0" standalone="no"?>
<!DOCTYPE svg PUBLIC "-//W3C//DTD SVG 20010904//EN"
 "http://www.w3.org/TR/2001/REC-SVG-20010904/DTD/svg10.dtd">
<svg version="1.0" xmlns="http://www.w3.org/2000/svg"
 width="860.000000pt" height="933.000000pt" viewBox="0 0 860.000000 933.000000"
 preserveAspectRatio="xMidYMid meet">
<metadata>
Created by potrace 1.16, written by Peter Selinger 2001-2019
</metadata>
<g transform="translate(0.000000,933.000000) scale(0.100000,-0.100000)"
fill="#000000" stroke="none">
<path d="M3175 8897 c-38 -21 -51 -43 -261 -461 l-221 -440 -209 -176 c-115
-96 -423 -355 -684 -574 -518 -435 -554 -466 -569 -505 -6 -14 -71 -377 -145
-806 -75 -429 -212 -1225 -306 -1770 -94 -545 -182 -1053 -195 -1130 -13 -77
-79 -455 -145 -840 -78 -448 -120 -714 -117 -739 8 -55 53 -107 115 -131 l52
-20 0 -265 c1 -325 8 -353 102 -401 35 -18 64 -19 417 -19 244 0 390 4 408 11
15 5 41 22 57 37 53 50 56 67 56 367 l0 275 28 0 c42 1 107 34 135 71 27 36
24 20 394 1773 l128 608 5 -1164 5 -1164 28 -43 c42 -63 88 -81 215 -81 l102
0 0 -275 c0 -300 3 -317 56 -367 16 -15 42 -32 57 -37 40 -15 3194 -15 3234 0
15 5 41 22 57 37 53 50 56 67 56 367 l0 275 103 0 c143 1 195 26 232 113 13
32 15 176 16 1194 1 661 5 1143 10 1123 4 -19 67 -314 139 -655 72 -341 146
-692 165 -780 19 -88 68 -321 110 -519 76 -358 86 -396 122 -428 25 -23 87
-48 118 -48 l25 0 0 -275 c0 -300 3 -317 56 -367 16 -15 42 -32 57 -37 18 -7
164 -11 408 -11 353 0 382 1 417 19 95 49 102 74 102 399 l0 268 44 12 c58 15
101 53 122 107 16 43 16 49 -4 147 -12 57 -80 445 -152 863 -72 418 -245 1422
-385 2230 -140 809 -277 1602 -305 1763 -28 162 -57 306 -64 321 -21 39 -50
64 -784 681 l-673 565 -215 429 c-118 236 -220 436 -226 444 -6 7 -29 22 -49
33 -37 18 -71 19 -1121 19 l-1083 0 -40 -23z m1819 -325 c3 -6 -815 -1186
-839 -1211 -5 -4 -605 1195 -605 1209 0 12 1436 14 1444 2z m455 -430 l129
-257 -94 -186 -93 -187 -423 -105 c-233 -58 -424 -104 -425 -103 -5 4 762
1096 769 1096 5 0 66 -116 137 -258z m-1924 -303 c141 -281 255 -513 253 -515
-3 -2 -130 38 -284 89 l-279 93 -92 179 c-51 99 -92 188 -93 197 0 21 221 468
232 468 4 0 122 -230 263 -511z m-655 -418 c61 -122 98 -184 117 -196 15 -10
238 -88 497 -175 375 -125 471 -160 470 -173 0 -10 -1 -1187 -2 -2617 l-2
-2600 -690 0 -690 0 0 1915 c0 2061 3 1952 -48 2008 -77 86 -241 55 -284 -53
-7 -20 -238 -1096 -382 -1785 -12 -60 -117 -554 -231 -1097 l-209 -988 -359 0
-359 0 6 28 c3 15 87 500 186 1077 100 578 241 1399 315 1825 183 1060 197
1139 275 1595 45 261 74 403 83 410 19 14 623 522 936 787 141 119 261 217
268 217 7 1 53 -79 103 -178z m3573 -327 l602 -505 12 -52 c7 -29 85 -470 173
-982 179 -1042 433 -2513 575 -3336 52 -301 95 -549 95 -553 0 -3 -161 -6
-358 -6 l-357 0 -82 388 c-245 1155 -468 2212 -593 2807 -111 528 -146 678
-165 706 -55 85 -199 97 -267 22 -51 -56 -48 53 -48 -2008 l0 -1915 -865 0
-865 0 2 2612 3 2613 640 160 c473 118 649 166 672 183 24 17 55 68 120 197
49 96 91 175 96 175 4 0 278 -228 610 -506z m-5263 -5954 l0 -170 -170 0 -170
0 0 170 0 170 170 0 170 0 0 -170z m4500 0 l0 -170 -1380 0 -1380 0 0 170 0
170 1380 0 1380 0 0 -170z m2080 0 l0 -170 -170 0 -170 0 0 170 0 170 170 0
170 0 0 -170z"/>
<path d="M3525 3192 c-16 -11 -195 -186 -396 -388 -393 -395 -398 -402 -384
-485 8 -45 51 -101 96 -125 48 -24 119 -18 170 15 70 45 735 719 754 763 31
76 8 163 -57 209 -45 33 -141 38 -183 11z"/>
<path d="M4650 5635 l0 -175 518 2 517 3 0 170 0 170 -517 3 -518 2 0 -175z"/>
<path d="M4930 3203 c-89 -34 -132 -140 -95 -231 19 -44 684 -718 754 -763 49
-31 122 -39 164 -18 74 38 114 115 102 193 -7 38 -36 70 -384 419 -207 208
-388 385 -403 393 -26 14 -108 18 -138 7z"/>
</g>
</svg>
