<?xml version="1.0" standalone="no"?>
<!DOCTYPE svg PUBLIC "-//W3C//DTD SVG 20010904//EN"
 "http://www.w3.org/TR/2001/REC-SVG-20010904/DTD/svg10.dtd">
<svg version="1.0" xmlns="http://www.w3.org/2000/svg"
 width="512.000000pt" height="512.000000pt" viewBox="0 0 512.000000 512.000000"
 preserveAspectRatio="xMidYMid meet">
<metadata>
Created by potrace 1.16, written by Peter Selinger 2001-2019
</metadata>
<g transform="translate(0.000000,512.000000) scale(0.100000,-0.100000)"
fill="#000000" stroke="none">
<path d="M2154 5068 c-16 -12 -107 -89 -202 -171 -134 -115 -174 -155 -179
-178 -3 -17 -15 -36 -27 -43 -11 -8 -172 -76 -356 -151 -184 -76 -344 -145
-354 -154 -47 -39 -192 -299 -295 -528 -279 -621 -528 -1482 -640 -2218 -68
-442 -91 -726 -98 -1170 -5 -369 -5 -370 17 -397 l21 -28 369 0 369 0 18 24
c16 20 22 62 37 272 28 390 74 844 112 1104 23 155 26 157 46 30 38 -244 88
-602 107 -758 12 -111 23 -169 33 -179 20 -19 56 -27 295 -63 450 -67 685 -85
1133 -85 448 0 683 18 1133 85 239 36 275 44 295 63 10 10 21 68 33 179 11 89
35 271 54 403 20 132 43 291 52 353 9 62 20 107 23 100 24 -45 101 -745 137
-1237 14 -205 20 -247 36 -267 l18 -24 369 0 369 0 21 28 c22 27 22 28 17 397
-7 444 -30 728 -98 1170 -112 735 -361 1598 -640 2218 -103 229 -248 489 -295
528 -10 9 -170 78 -354 153 -184 76 -345 144 -356 151 -12 8 -24 27 -27 43 -6
29 -115 130 -345 320 l-63 52 -378 0 c-376 0 -379 0 -407 -22z m732 -150 c27
-124 -18 -369 -132 -708 -64 -191 -184 -500 -194 -500 -11 0 -132 314 -200
517 -101 305 -150 555 -130 663 5 25 9 48 10 53 0 4 144 7 319 7 l319 0 8 -32z
m-795 -208 c16 -134 68 -339 143 -559 60 -178 66 -207 40 -181 -7 7 -93 6
-262 -1 -139 -7 -255 -9 -258 -6 -4 3 29 163 72 355 l79 349 84 72 c46 40 85
70 87 69 2 -2 8 -46 15 -98z m1041 28 l83 -71 78 -349 c44 -192 76 -352 73
-355 -3 -4 -119 -1 -257 5 -185 9 -256 9 -271 1 -19 -10 -20 -9 -14 7 5 11 30
84 58 163 83 240 128 425 153 624 4 26 8 47 10 47 2 0 41 -32 87 -72z m-1412
-242 c0 -2 -29 -132 -65 -291 -36 -158 -65 -305 -65 -326 0 -59 27 -72 142
-68 l93 4 16 -120 16 -120 -38 -49 c-54 -67 -51 -89 16 -152 l56 -51 75 -559
c81 -608 244 -1881 244 -1909 0 -16 -11 -17 -152 -11 -189 9 -427 29 -664 58
l-182 22 -6 50 c-3 28 -6 64 -6 81 0 16 99 315 219 665 120 349 222 645 225
657 7 22 -8 62 -28 75 -19 13 -69 9 -86 -7 -10 -9 -98 -249 -196 -534 -99
-286 -181 -517 -184 -514 -3 2 -26 135 -52 295 l-47 291 120 451 c177 668 203
810 203 1141 1 178 -3 227 -22 321 -32 162 -78 287 -134 367 l-20 28 39 15
c21 8 133 55 248 104 192 81 235 97 235 86z m1940 -97 c135 -56 248 -103 253
-106 4 -2 -1 -16 -12 -31 -55 -79 -101 -205 -133 -366 -19 -94 -23 -143 -22
-321 0 -331 26 -473 203 -1141 l120 -451 -47 -291 c-26 -160 -49 -293 -52
-295 -3 -3 -85 228 -184 514 -98 285 -186 525 -196 534 -17 16 -67 20 -86 7
-20 -13 -35 -53 -28 -75 3 -12 105 -308 225 -657 120 -350 219 -649 219 -665
0 -17 -3 -53 -6 -81 l-6 -51 -162 -21 c-370 -50 -725 -72 -1138 -72 l-248 0
-5 23 c-2 12 -25 191 -50 397 -25 206 -70 559 -99 785 -30 225 -52 413 -50
417 3 4 266 220 585 479 319 259 585 482 592 496 7 15 7 32 1 49 -5 13 -74 99
-153 190 l-144 166 99 -6 c313 -19 343 -19 369 -2 19 13 25 25 25 55 0 21 -29
167 -65 326 -36 158 -65 289 -65 291 0 9 24 0 260 -97z m-2540 -253 c79 -140
113 -307 113 -566 1 -301 -28 -461 -190 -1070 -169 -636 -198 -770 -247 -1130
-39 -283 -83 -723 -101 -1005 -12 -186 -15 -205 -36 -205 -18 0 -19 13 -19
380 0 367 -1 381 -20 400 -23 23 -67 26 -93 6 -13 -10 -45 -113 -108 -348 -49
-183 -96 -357 -105 -385 l-15 -53 -81 0 -81 0 6 322 c12 625 95 1240 253 1873
171 681 385 1271 618 1702 39 73 72 133 73 133 1 0 16 -24 33 -54z m3072 -246
c329 -686 602 -1641 718 -2510 41 -311 61 -571 67 -898 l6 -323 -83 3 -82 3
-104 385 c-71 264 -109 389 -121 397 -25 19 -70 16 -93 -7 -19 -19 -20 -33
-20 -400 0 -367 -1 -380 -19 -380 -21 0 -24 19 -36 205 -18 282 -62 722 -101
1005 -49 363 -75 480 -248 1133 -162 610 -190 767 -190 1067 0 141 5 198 23
290 22 115 64 235 103 298 l21 34 50 -89 c27 -48 77 -144 109 -213z m-1857
-27 c9 -27 47 -119 82 -206 l65 -158 -78 -174 c-50 -112 -82 -171 -89 -166
-93 73 -351 286 -353 292 -2 4 76 100 172 211 114 132 176 211 176 226 0 33 5
27 25 -25z m653 -203 c94 -110 172 -203 172 -207 -1 -5 -144 -124 -318 -265
-174 -141 -370 -300 -435 -353 -105 -86 -116 -93 -103 -63 7 18 97 215 199
438 101 223 211 472 243 553 46 115 60 142 64 123 3 -14 83 -116 178 -226z
m-827 -562 c55 -45 98 -85 97 -89 -2 -4 -34 -73 -73 -154 l-69 -148 -28 204
c-15 112 -29 219 -32 237 -3 17 -3 32 0 32 3 0 50 -37 105 -82z m-701 -2357
c201 -23 389 -38 608 -50 84 -4 155 -10 157 -13 7 -7 26 -161 20 -166 -17 -17
-646 50 -932 99 l-62 11 -6 46 c-3 26 -8 60 -10 75 -4 26 -3 28 23 23 15 -3
106 -14 202 -25z m2425 2 c-2 -16 -7 -49 -10 -75 l-6 -46 -66 -12 c-375 -65
-877 -110 -1230 -110 -183 0 -183 0 -184 23 0 12 -3 52 -7 88 l-8 66 391 6
c453 6 707 26 1117 86 4 1 6 -11 3 -26z"/>
<path d="M3268 3149 c-189 -176 -349 -331 -355 -344 -10 -18 -10 -31 -2 -52
13 -35 25 -43 68 -43 27 0 45 11 105 68 39 38 181 171 316 296 135 126 260
244 278 262 56 59 37 134 -36 134 -27 0 -75 -42 -374 -321z"/>
<path d="M2720 1568 c-18 -20 -20 -35 -20 -148 0 -85 4 -131 13 -143 13 -17
308 -147 334 -147 26 0 307 121 328 141 18 18 20 33 20 148 0 187 32 171 -346
171 -304 0 -308 0 -329 -22z m538 -160 l-3 -41 -104 -44 -103 -45 -102 44
-101 44 -3 42 -3 42 211 0 211 0 -3 -42z"/>
</g>
</svg>
