<?xml version="1.0" standalone="no"?>
<!DOCTYPE svg PUBLIC "-//W3C//DTD SVG 20010904//EN"
 "http://www.w3.org/TR/2001/REC-SVG-20010904/DTD/svg10.dtd">
<svg version="1.0" xmlns="http://www.w3.org/2000/svg"
 width="840.000000pt" height="460.000000pt" viewBox="0 0 840.000000 460.000000"
 preserveAspectRatio="xMidYMid meet">
<metadata>
Created by potrace 1.16, written by Peter Selinger 2001-2019
</metadata>
<g transform="translate(0.000000,460.000000) scale(0.100000,-0.100000)"
fill="#000000" stroke="none">
<path d="M4153 4266 c-15 -33 -17 -34 -39 -20 -12 9 -38 14 -56 12 -28 -3 -33
-7 -36 -32 -2 -16 1 -33 7 -39 19 -19 12 -27 -27 -27 -54 0 -72 -23 -72 -92 0
-115 47 -213 130 -268 16 -11 21 -22 16 -36 -3 -11 -55 -80 -115 -154 l-109
-135 92 -24 c71 -19 119 -24 221 -25 118 -1 134 1 173 22 24 13 42 26 39 28
-3 3 -33 12 -66 20 -122 28 -139 49 -101 124 20 40 40 60 40 40 0 -6 11 -22
25 -36 31 -31 49 -23 116 47 37 38 48 58 54 96 5 26 7 57 6 69 -1 11 9 45 23
75 14 29 26 67 26 82 0 71 -61 143 -148 171 -42 14 -52 23 -67 57 -37 82 -103
104 -132 45z"/>
<path d="M4417 3373 c3 -34 2 -44 -5 -34 -15 21 -94 -11 -128 -52 -25 -30 -26
-34 -19 -116 4 -47 17 -155 29 -239 l22 -154 -27 -13 c-14 -8 -38 -31 -54 -52
l-28 -38 44 43 c25 23 50 42 57 42 6 0 17 -21 23 -46 7 -26 25 -62 42 -81 l30
-34 -6 -192 c-6 -195 -20 -289 -55 -369 l-17 -41 -29 39 c-16 21 -46 58 -67
81 -48 53 -77 109 -89 175 l-9 53 3 -65 c4 -76 25 -124 97 -215 26 -34 53 -74
59 -89 27 -73 94 16 126 169 11 57 16 129 16 253 l-1 173 87 -80 c48 -44 138
-131 201 -195 l114 -115 -18 -68 c-20 -73 -23 -201 -6 -243 9 -23 10 -21 10
17 1 23 6 45 11 48 6 4 10 -23 10 -73 0 -90 10 -111 27 -55 l11 38 1 -43 c1
-53 21 -47 22 6 l1 37 10 -32 c19 -60 38 -30 38 61 0 46 1 48 15 30 14 -18 14
-18 15 4 0 13 -16 91 -36 174 l-36 150 -181 232 c-297 380 -274 346 -281 418
-3 35 -7 139 -9 232 l-4 168 44 -68 c56 -87 59 -103 34 -152 -31 -62 -25 -70
14 -21 53 67 49 103 -19 193 -35 46 -60 91 -71 129 -9 31 -18 57 -19 57 -2 0
-2 -21 1 -47z"/>
<path d="M3861 3348 c-3 -102 52 -240 132 -332 68 -77 75 -91 83 -162 l7 -59
-30 40 c-58 78 -78 90 -145 90 -56 0 -62 -2 -93 -36 -38 -42 -56 -107 -54
-202 l1 -62 13 55 c24 110 36 141 66 175 27 30 37 35 75 35 37 0 51 -6 85 -37
42 -38 58 -63 96 -148 25 -57 29 -50 10 17 -9 28 -12 73 -9 124 5 97 -5 121
-89 211 -67 72 -115 165 -134 261 -10 54 -13 60 -14 30z"/>
<path d="M5001 2290 c192 -191 239 -251 377 -473 228 -368 305 -544 327 -748
9 -81 14 -79 -155 -86 -146 -7 -190 3 -315 68 -79 41 -81 41 -165 37 -98 -5
-145 -25 -302 -129 -133 -88 -188 -111 -280 -117 -98 -6 -145 6 -348 87 l-165
65 -110 1 c-104 0 -118 -3 -270 -50 -150 -47 -167 -50 -266 -50 -101 0 -107 1
-143 28 -20 16 -60 60 -87 97 -71 98 -140 157 -206 176 l-55 16 53 31 c173 98
344 278 433 454 33 67 86 200 85 216 0 6 -13 -19 -28 -58 -78 -197 -183 -345
-338 -474 -98 -83 -255 -171 -303 -171 -38 0 -70 -11 -70 -24 0 -7 33 -11 102
-11 96 0 107 -2 158 -31 40 -22 69 -49 105 -99 77 -107 144 -171 190 -184 95
-26 198 -12 425 58 200 61 271 56 492 -35 162 -67 248 -87 338 -81 101 6 164
32 311 129 219 144 298 160 435 88 96 -51 167 -70 260 -70 103 0 227 18 240
36 23 29 -9 210 -62 349 -56 145 -284 532 -422 715 -63 83 -227 251 -342 350
-41 36 4 -14 101 -110z"/>
<path d="M3552 2248 c-23 -30 -53 -102 -69 -165 -11 -46 -16 -116 -17 -213 -1
-156 6 -215 29 -223 37 -15 226 144 342 288 62 77 149 213 141 220 -2 2 -28
-33 -58 -78 -65 -98 -250 -286 -340 -346 l-65 -43 -8 54 c-5 29 -6 123 -4 208
5 156 20 234 54 287 16 24 13 32 -5 11z"/>
<path d="M4035 2045 c7 -289 49 -515 95 -515 14 1 311 274 352 324 61 76 66
101 34 171 -14 30 -27 55 -31 55 -3 0 4 -18 15 -40 45 -87 20 -137 -131 -266
-190 -161 -237 -195 -243 -176 -14 48 -46 243 -61 367 -30 262 -34 274 -30 80z"/>
<path d="M2660 1009 c-34 -124 24 -222 142 -240 68 -11 94 -31 144 -110 87
-136 133 -163 279 -162 59 0 125 11 250 41 311 76 329 73 488 -76 137 -128
197 -157 322 -157 66 1 106 7 152 23 93 33 278 119 373 175 199 116 229 130
266 124 19 -3 67 -26 106 -51 133 -85 305 -99 436 -35 58 28 112 83 112 114 0
5 -8 -4 -19 -20 -47 -78 -132 -115 -265 -115 -102 0 -174 19 -240 63 -135 90
-154 89 -338 -16 -145 -83 -316 -163 -432 -202 -53 -18 -96 -25 -150 -25 -109
0 -159 25 -285 144 -134 127 -162 141 -271 140 -66 -1 -121 -11 -245 -45 -141
-37 -173 -43 -270 -43 -141 -1 -157 7 -232 121 -59 89 -95 119 -153 128 -107
17 -140 41 -161 118 -8 29 -8 56 -1 92 13 63 7 72 -8 14z"/>
</g>
</svg>
