<?xml version="1.0" standalone="no"?>
<!DOCTYPE svg PUBLIC "-//W3C//DTD SVG 20010904//EN"
 "http://www.w3.org/TR/2001/REC-SVG-20010904/DTD/svg10.dtd">
<svg version="1.0" xmlns="http://www.w3.org/2000/svg"
 width="920.000000pt" height="541.000000pt" viewBox="0 0 920.000000 541.000000"
 preserveAspectRatio="xMidYMid meet">
<metadata>
Created by potrace 1.16, written by Peter Selinger 2001-2019
</metadata>
<g transform="translate(0.000000,541.000000) scale(0.100000,-0.100000)"
fill="#000000" stroke="none">
<path d="M4570 5113 c-34 -13 -50 -37 -50 -73 0 -86 -59 -179 -125 -196 -14
-3 -25 -8 -25 -11 0 -17 115 -87 164 -100 11 -3 57 -7 101 -9 74 -2 84 0 138
29 31 17 60 40 63 49 3 10 10 18 15 18 19 0 8 18 -14 24 -63 16 -116 95 -117
174 0 41 -1 43 -22 36 -31 -11 -108 -7 -142 6 -42 16 -28 19 29 8 36 -8 62 -7
94 1 43 12 43 12 21 28 -24 17 -104 27 -130 16z"/>
<path d="M4876 4812 c-6 -18 -66 -79 -66 -66 0 3 -7 -2 -15 -10 -34 -34 -160
-52 -233 -35 -20 5 -46 12 -57 14 -11 3 -21 9 -23 15 -2 6 -8 8 -13 4 -5 -3
-9 0 -9 6 0 6 -4 9 -9 6 -4 -3 -19 3 -31 14 -13 11 -26 20 -30 20 -4 0 -18 9
-31 21 -18 16 -32 19 -59 15 -95 -16 -164 -51 -188 -96 -22 -43 -10 -154 28
-250 56 -143 116 -289 173 -420 67 -154 107 -271 107 -311 0 -42 -73 -118
-158 -163 -124 -66 -191 -111 -282 -190 -152 -133 -230 -255 -230 -361 0 -40
2 -42 25 -37 39 7 74 46 81 92 5 30 26 66 77 133 103 133 178 204 302 286 61
40 120 82 133 94 30 28 28 14 -7 -36 -34 -49 -144 -153 -192 -182 -65 -39 -99
-114 -99 -223 0 -120 43 -172 142 -172 74 0 137 30 197 95 78 84 128 239 152
460 7 66 15 123 18 127 3 4 27 2 54 -4 l47 -11 0 -107 c0 -164 -26 -280 -84
-378 -24 -42 -43 -60 -89 -84 -60 -32 -121 -94 -205 -207 -60 -81 -96 -110
-120 -95 -9 6 -31 39 -48 73 -53 104 -99 141 -176 141 -26 0 -56 -8 -78 -22
-44 -27 -25 -35 36 -14 72 24 104 6 150 -86 20 -40 48 -85 62 -100 53 -57 129
-28 252 98 152 154 233 202 299 175 27 -12 29 -16 34 -89 16 -212 -76 -474
-218 -617 -33 -33 -86 -77 -117 -98 l-56 -38 -33 17 c-42 21 -122 22 -172 0
-22 -8 -85 -60 -140 -114 -121 -117 -152 -136 -228 -136 -73 -1 -93 13 -181
132 -60 80 -80 99 -114 111 -96 33 -172 -46 -113 -119 22 -27 22 -26 3 40 -8
31 13 60 44 60 53 0 95 -33 158 -126 80 -118 101 -129 227 -129 l97 1 0 -26
c0 -14 -5 -54 -10 -90 -5 -36 -16 -126 -25 -200 -29 -250 -76 -415 -167 -593
-72 -141 -155 -223 -299 -300 -58 -32 -113 -57 -121 -57 -31 0 -177 81 -207
115 -55 63 -52 126 3 90 30 -20 46 -14 26 10 -7 9 -29 15 -51 15 -34 0 -41 -4
-50 -27 -36 -93 59 -207 211 -254 325 -100 602 84 715 476 36 126 55 252 64
440 6 117 13 172 25 195 21 43 14 48 -18 13 -36 -38 -58 -114 -106 -348 -22
-110 -54 -245 -71 -300 -80 -260 -205 -396 -392 -427 -110 -18 -115 -3 -17 48
47 24 106 60 132 79 140 103 270 375 317 665 26 157 51 379 51 447 0 44 3 53
21 58 12 4 63 47 113 95 107 102 138 120 202 120 70 0 109 -45 153 -175 59
-174 116 -266 185 -299 88 -41 209 -6 290 86 42 47 44 49 51 27 13 -41 -5
-408 -26 -538 -69 -417 -224 -680 -447 -758 l-54 -18 -23 27 c-13 15 -34 59
-46 98 -25 76 -49 110 -79 110 -10 0 -74 -21 -142 -47 -102 -38 -135 -46 -193
-47 -54 -1 -78 4 -99 18 -26 17 -28 17 -23 1 4 -9 7 -18 7 -21 0 -2 18 -13 40
-24 89 -46 181 -34 346 44 l92 44 6 -55 c16 -140 80 -204 201 -204 80 0 132
22 201 84 57 52 64 55 64 31 0 -28 41 -84 83 -115 33 -24 50 -29 96 -29 76 0
125 15 166 51 34 30 65 102 51 117 -4 4 -29 -16 -54 -45 -77 -84 -130 -100
-209 -62 -51 24 -123 124 -123 170 0 17 -5 29 -12 29 -7 0 -39 -29 -71 -65
-64 -72 -130 -111 -199 -120 l-43 -5 36 14 c75 29 117 57 170 109 122 122 226
363 273 632 21 116 40 447 32 550 -6 68 -3 88 13 125 27 62 35 129 19 159 -19
35 -38 38 -38 6 0 -23 -2 -26 -15 -15 -13 10 -15 9 -15 -9 0 -12 5 -19 10 -16
17 11 12 -4 -42 -108 -107 -208 -216 -260 -296 -143 -12 18 -44 82 -70 142
-27 60 -53 118 -59 128 -9 17 0 28 76 91 117 97 164 153 216 260 44 89 85 230
85 292 0 55 15 44 40 -30 17 -50 37 -84 66 -114 38 -40 44 -43 94 -43 79 0
132 29 183 102 48 69 47 70 66 -75 23 -171 99 -325 218 -439 84 -79 131 -101
208 -96 106 7 164 73 165 188 0 69 -42 162 -94 208 -32 28 -44 32 -91 32 -46
0 -59 -5 -89 -30 -61 -54 -70 -130 -24 -212 27 -47 71 -79 118 -85 32 -5 43
-1 64 20 47 47 28 169 -29 183 -13 3 -29 3 -34 -1 -14 -8 -14 -42 -1 -50 6 -3
10 3 10 14 0 12 4 21 10 21 17 0 40 -57 40 -99 0 -32 -5 -44 -25 -57 -23 -15
-27 -15 -59 5 -41 26 -86 109 -86 158 0 115 121 146 193 51 77 -101 75 -263
-4 -303 -66 -35 -141 -12 -225 67 -141 132 -237 334 -244 513 -7 140 5 184 28
107 16 -53 64 -116 111 -148 29 -19 53 -26 94 -27 64 -1 89 14 85 52 -2 20 -9
27 -30 29 -16 2 -28 -1 -28 -7 0 -6 12 -11 27 -11 20 0 24 -3 16 -11 -17 -17
-86 -14 -120 6 -16 9 -47 42 -69 72 -62 88 -84 113 -117 130 -30 15 -31 15
-53 -13 l-23 -28 -73 37 c-53 26 -92 55 -139 104 -140 145 -206 333 -222 636
l-5 87 32 0 c17 1 48 7 69 14 34 13 41 12 79 -8 50 -25 101 -96 123 -169 9
-29 27 -115 41 -192 28 -161 44 -216 86 -300 55 -110 106 -155 175 -155 53 0
93 36 93 81 0 16 3 29 6 29 4 0 38 -30 77 -66 87 -83 137 -106 228 -106 75 -1
98 13 99 59 0 23 -33 48 -50 38 -18 -11 -10 -26 10 -20 25 8 27 -16 3 -40 -38
-38 -163 13 -254 104 -63 64 -100 129 -159 288 -101 268 -229 419 -398 469
l-47 14 88 -81 c77 -71 93 -92 131 -173 25 -50 60 -143 79 -206 28 -94 33
-126 29 -178 -2 -36 0 -74 7 -91 13 -31 53 -57 70 -47 17 11 13 23 -9 29 -37
10 -65 118 -40 157 15 23 61 -6 84 -54 40 -81 28 -161 -26 -180 -22 -8 -34 -5
-67 17 -76 51 -125 166 -186 445 -51 229 -96 311 -188 343 -29 10 -36 17 -31
31 6 21 -8 23 -38 7 -20 -11 -20 -10 1 20 18 25 26 29 36 21 11 -9 15 -2 20
37 33 259 71 432 115 532 17 39 30 77 28 84 -2 7 14 50 35 95 60 127 62 186 7
241 -28 28 -62 42 -212 87 -10 3 -19 -2 -22 -14z m-456 -277 c91 -32 160 -114
210 -248 12 -33 27 -56 33 -54 7 2 13 27 14 59 1 42 11 78 41 141 43 91 60
107 117 107 48 0 88 -22 156 -86 l56 -54 -33 -64 c-17 -35 -40 -99 -50 -142
-17 -73 -21 -79 -66 -111 -32 -23 -55 -51 -72 -86 -31 -64 -48 -182 -38 -259
l8 -56 -33 -7 c-18 -3 -48 -4 -65 -1 -18 3 -49 8 -69 11 l-36 5 -7 73 c-20
204 -92 323 -220 363 l-52 16 -62 118 c-34 65 -62 124 -62 132 0 19 75 89 135
127 28 17 51 31 51 31 1 0 21 -7 44 -15z m326 -15 c-23 -26 -64 -114 -71 -153
-4 -20 -10 -37 -14 -37 -3 0 -19 23 -36 51 -29 49 -84 107 -135 141 -24 16
-18 16 122 15 130 -1 145 -3 134 -17z m-318 -443 c54 -25 87 -72 105 -152 35
-147 49 -217 44 -222 -9 -8 -60 6 -93 26 -27 17 -32 26 -37 79 -7 60 -32 139
-81 245 l-26 58 22 -7 c13 -3 43 -16 66 -27z m97 -388 c20 -12 34 -27 31 -34
-5 -14 -32 -131 -71 -307 -44 -196 -104 -285 -216 -321 -82 -27 -116 -23 -139
16 -43 70 -13 226 56 286 42 37 64 39 100 8 22 -19 28 -34 32 -79 5 -69 -9
-116 -49 -154 -43 -41 -64 -25 -64 47 0 44 5 59 24 78 19 19 21 25 10 32 -17
10 -50 -10 -67 -42 -27 -51 6 -158 52 -167 55 -11 109 36 132 117 20 67 14
120 -20 171 -22 34 -23 40 -10 51 43 36 138 214 149 280 4 21 8 39 10 39 2 0
20 -10 40 -21z m215 -131 c0 -169 53 -384 126 -516 62 -111 194 -236 280 -265
l36 -13 -44 -84 c-49 -96 -87 -128 -131 -111 -34 13 -54 54 -111 226 -25 77
-60 164 -76 193 -31 53 -94 108 -137 119 -18 4 -22 10 -17 22 54 129 58 151
58 334 1 97 4 177 9 177 4 0 7 -37 7 -82z m37 -793 c-3 -115 -7 -141 -36 -225
-54 -159 -116 -247 -255 -364 l-78 -67 -33 38 -33 38 51 35 c212 144 339 397
340 675 l0 100 24 -50 c22 -47 24 -59 20 -180z"/>
<path d="M3799 2865 c-18 -19 -39 -35 -46 -35 -8 0 -11 -5 -8 -10 4 -6 -10
-29 -30 -53 -20 -23 -55 -80 -77 -127 -115 -242 -139 -290 -164 -320 -33 -39
-71 -55 -90 -39 -21 18 -17 49 6 49 24 0 26 15 4 24 -25 10 -44 -13 -44 -53 0
-47 14 -61 63 -61 52 0 74 12 129 73 l48 52 0 -54 c0 -74 17 -125 54 -159 78
-74 197 -69 277 11 91 91 123 214 117 457 -2 93 -9 174 -15 185 -10 17 -12 14
-17 -25 -3 -25 -10 -128 -16 -230 -10 -185 -24 -257 -56 -290 -12 -12 -12 -8
1 24 23 55 17 186 -10 241 -23 46 -76 85 -115 85 -16 0 -54 -14 -85 -30 l-57
-30 7 27 c12 52 96 217 136 270 45 60 36 72 -12 18z m70 -321 c42 -54 50 -152
21 -255 -14 -48 -51 -103 -74 -107 -38 -8 -65 7 -75 43 -10 37 -8 52 16 128
12 39 18 47 34 42 14 -5 20 0 25 20 9 35 -6 49 -37 35 -72 -33 -105 -179 -57
-250 13 -20 39 -41 58 -48 34 -12 33 -12 -29 -9 -55 3 -67 7 -87 30 -46 54
-38 170 20 285 52 103 140 143 185 86z"/>
<path d="M5726 2685 c25 -125 99 -285 174 -380 64 -81 122 -129 218 -183 68
-38 83 -42 127 -39 65 4 108 26 115 57 l6 25 7 -27 c14 -55 -38 -119 -113
-138 -59 -16 -100 -2 -100 34 0 22 -24 46 -45 46 -4 0 -5 -17 -2 -37 3 -29 -3
-52 -25 -95 -62 -117 -179 -152 -226 -67 -9 17 -28 45 -41 61 l-24 29 -82 -81
c-87 -85 -131 -110 -191 -110 -30 0 -44 8 -78 43 -22 24 -52 59 -65 78 -62 89
-128 97 -237 31 -74 -44 -121 -54 -179 -37 -27 8 -29 7 -16 -8 7 -9 31 -22 52
-29 49 -14 92 -2 185 52 95 55 115 49 178 -56 54 -90 103 -119 189 -110 78 8
145 44 204 111 l49 55 17 -35 c32 -67 122 -94 200 -62 36 15 97 79 122 127 14
26 19 29 43 23 49 -14 113 -5 153 22 50 33 71 74 67 133 -3 46 -4 47 -38 48
-19 0 -43 4 -53 9 -20 8 -46 -9 -33 -22 4 -4 12 -1 17 7 8 12 9 9 7 -10 -3
-23 -7 -25 -48 -23 -66 3 -174 61 -244 130 -70 69 -112 131 -195 290 -34 65
-70 129 -81 143 l-21 25 7 -30z"/>
<path d="M3412 2073 c-26 -10 -106 -151 -217 -379 -157 -324 -233 -435 -380
-556 -111 -90 -216 -138 -305 -138 -49 0 -119 38 -147 80 -28 40 -29 61 -5 90
16 20 21 21 42 10 17 -9 20 -14 9 -21 -17 -10 -5 -23 16 -16 21 9 19 44 -4 57
-22 11 -61 13 -86 4 -21 -9 -45 -56 -45 -92 0 -47 57 -121 120 -156 51 -29 61
-31 150 -30 151 2 257 51 380 174 152 153 250 329 355 640 78 230 115 306 159
325 l31 13 -30 0 c-16 0 -36 -2 -43 -5z"/>
<path d="M6260 1838 c0 -7 23 -65 50 -128 190 -435 474 -740 689 -740 56 0
136 42 165 87 33 51 50 123 43 187 -16 158 -172 276 -289 220 -58 -27 -73 -59
-73 -147 0 -76 1 -80 33 -108 39 -35 77 -38 85 -8 8 30 -2 49 -27 49 l-21 -1
22 -18 c28 -24 18 -35 -13 -14 -77 50 -41 213 46 213 121 0 228 -217 160 -327
-68 -112 -205 -80 -360 84 -86 91 -344 428 -437 570 -55 84 -73 104 -73 81z"/>
<path d="M5305 1574 c9 -74 55 -218 104 -319 148 -309 391 -477 667 -462 49 2
99 8 111 12 19 6 23 2 33 -35 23 -85 111 -150 185 -136 37 7 75 50 75 84 0 28
-26 52 -56 52 -24 0 -34 -23 -14 -35 6 -3 10 -1 10 4 0 17 17 13 24 -6 4 -10
-2 -25 -16 -40 -28 -30 -69 -25 -110 14 -61 59 -51 161 23 232 81 80 195 75
275 -11 93 -98 84 -197 -29 -306 -119 -117 -244 -184 -342 -186 -103 -1 -159
41 -258 194 -84 132 -147 180 -234 180 -68 0 -173 -90 -198 -170 -6 -20 5 -13
56 34 81 76 115 96 161 96 50 0 78 -27 134 -130 74 -137 130 -199 213 -238 46
-21 68 -25 150 -24 72 0 109 5 147 20 115 46 239 150 295 247 24 42 29 61 29
119 0 38 -5 86 -12 107 -14 49 -69 114 -127 151 -39 24 -54 28 -120 28 -120
-1 -208 -53 -250 -149 -29 -68 -74 -86 -204 -78 -348 19 -596 274 -712 732
-11 44 -14 49 -10 19z"/>
<path d="M5392 658 c-7 -7 -12 -18 -12 -25 0 -20 24 -15 38 8 21 33 25 15 5
-20 -21 -37 -85 -71 -134 -71 -19 0 -59 7 -89 15 -30 8 -57 15 -59 15 -2 0 4
-10 15 -21 58 -66 204 -64 275 2 23 21 29 36 29 68 0 38 -2 41 -28 41 -15 0
-33 -5 -40 -12z"/>
</g>
</svg>
