<?xml version="1.0" standalone="no"?>
<!DOCTYPE svg PUBLIC "-//W3C//DTD SVG 20010904//EN"
 "http://www.w3.org/TR/2001/REC-SVG-20010904/DTD/svg10.dtd">
<svg version="1.0" xmlns="http://www.w3.org/2000/svg"
 width="900.000000pt" height="512.000000pt" viewBox="0 0 900.000000 512.000000"
 preserveAspectRatio="xMidYMid meet">
<metadata>
Created by potrace 1.16, written by Peter Selinger 2001-2019
</metadata>
<g transform="translate(0.000000,512.000000) scale(0.100000,-0.100000)"
fill="#000000" stroke="none">
<path d="M4335 5113 c-124 -14 -144 -23 -297 -125 -156 -105 -264 -196 -279
-235 -6 -18 -16 -23 -42 -23 -113 0 -365 -81 -429 -138 -30 -26 -22 -65 24
-116 l41 -48 -26 -51 c-191 -380 -327 -1528 -327 -2764 0 -365 -2 -356 63
-368 18 -3 114 -5 215 -3 100 2 182 1 182 -2 0 -3 -21 -233 -46 -513 -25 -279
-43 -519 -40 -531 8 -31 77 -60 241 -101 492 -124 1278 -124 1770 0 165 41
233 70 241 101 5 19 -59 789 -82 991 l-6 53 195 0 c190 0 242 7 259 33 11 17
10 642 -2 927 -45 1078 -158 1859 -317 2177 l-26 52 42 47 c45 51 53 90 23
117 -52 48 -273 122 -394 134 -59 5 -71 9 -78 27 -14 39 -127 133 -273 229
-78 52 -152 99 -164 106 -45 23 -346 39 -468 24z m372 -129 c46 -7 46 -6 58
-116 l6 -58 -271 0 -271 0 6 48 c17 132 11 120 68 126 29 4 72 8 97 10 53 4
247 -2 307 -10z m-607 -225 l-15 -130 -45 -33 c-25 -18 -63 -58 -84 -89 -22
-32 -41 -56 -42 -54 -10 10 -34 157 -34 206 0 48 4 61 25 81 26 25 196 149
205 149 3 1 -1 -58 -10 -130z m878 70 c48 -34 101 -75 119 -92 35 -33 35 -30
11 -182 -17 -113 -18 -114 -63 -49 -22 31 -60 72 -85 90 l-45 33 -15 130 c-9
72 -14 131 -12 131 2 0 42 -28 90 -61z m-190 -179 c3 -32 -5 -44 -80 -127 -46
-50 -101 -114 -123 -142 -22 -28 -43 -50 -46 -51 -3 0 -49 39 -101 88 -53 48
-125 112 -161 142 -54 45 -66 60 -66 86 -1 17 2 34 6 37 4 4 133 6 287 5 l281
-3 3 -35z m-1009 -160 c36 -200 57 -250 104 -250 33 0 45 12 127 130 77 110
104 139 132 140 38 0 25 -26 -54 -108 -87 -91 -199 -234 -226 -289 -22 -46 -6
-73 65 -112 136 -76 283 -167 283 -176 0 -5 -11 -28 -23 -50 l-23 -40 -101 -7
c-89 -6 -298 -36 -367 -54 -18 -4 -26 -1 -30 13 -3 10 -42 175 -86 367 -63
274 -78 351 -68 357 7 4 65 41 128 82 63 42 118 72 121 69 4 -4 12 -36 18 -72z
m1653 -43 c37 -23 68 -44 68 -47 0 -13 -168 -721 -172 -726 -3 -2 -34 2 -69
10 -93 21 -280 46 -349 46 l-60 0 -25 56 c-14 31 -25 59 -25 63 0 7 98 44 255
99 61 21 83 33 95 54 14 26 13 31 -22 100 -48 97 -118 195 -213 296 -70 75
-76 85 -63 99 24 23 49 1 125 -107 104 -150 124 -166 173 -140 22 12 31 41 61
191 11 57 22 110 24 117 3 9 24 0 67 -28 35 -22 93 -59 130 -83z m-994 -199
l22 -24 -48 -70 c-26 -38 -67 -100 -91 -139 -24 -38 -45 -71 -46 -73 -2 -2
-43 21 -91 51 -49 30 -111 66 -137 81 l-48 28 27 36 c60 82 101 130 168 199
l69 73 76 -69 c42 -38 86 -80 99 -93z m417 32 c65 -71 161 -207 153 -215 -2
-2 -44 -18 -93 -36 -173 -60 -400 -171 -547 -265 -38 -24 -68 -41 -68 -38 0 9
68 129 129 229 69 114 165 246 253 352 79 95 59 98 173 -27z m-1370 -359 l75
-323 0 -631 c0 -552 -3 -659 -20 -847 -11 -118 -20 -225 -20 -237 l0 -23 -199
0 -200 0 5 143 c37 1049 118 1750 251 2164 15 45 28 81 30 79 2 -1 37 -148 78
-325z m2190 54 c103 -422 163 -1013 200 -1977 l5 -138 -200 0 -200 0 0 23 c0
12 -9 117 -20 232 -17 184 -20 289 -20 846 l0 637 60 258 c33 143 68 291 77
329 l16 70 24 -70 c13 -38 39 -133 58 -210z m-955 -253 c49 -108 54 -112 148
-112 84 0 243 -20 365 -46 l77 -17 0 -418 0 -419 -165 0 -165 0 -6 28 c-17 72
-89 132 -159 132 -42 0 -112 -37 -132 -70 -15 -26 -18 -27 -37 -14 -28 19
-250 20 -287 0 -25 -12 -27 -12 -43 14 -18 32 -89 70 -129 70 -55 0 -127 -47
-147 -95 -15 -36 -11 138 6 226 26 146 45 201 63 193 83 -34 141 -23 194 35
42 46 54 97 38 151 -13 45 -64 98 -105 108 l-30 8 79 60 c44 34 111 81 150
105 66 41 234 136 245 138 3 0 21 -34 40 -77z m-656 -219 c-89 -223 -152 -488
-161 -675 l-6 -118 -106 0 -106 0 3 419 2 419 117 22 c110 21 216 36 274 39
l26 1 -43 -107z m486 -993 l0 -170 -50 0 -50 0 0 164 0 165 48 4 c26 2 48 4
50 5 1 1 2 -74 2 -168z m-650 0 l0 -80 -105 0 -105 0 0 80 0 80 105 0 105 0 0
-80z m420 0 l0 -80 -145 0 -145 0 0 80 0 80 145 0 145 0 0 -80z m992 0 l3 -80
-317 0 -318 0 0 80 0 80 314 0 314 0 4 -80z m-1412 -1276 c0 -1019 -1 -1075
-17 -1070 -10 2 -58 12 -108 21 -49 9 -132 28 -182 42 -92 26 -93 27 -93 58 0
17 41 478 90 1024 50 546 90 994 90 997 0 2 50 4 110 4 l110 0 0 -1076z m424
1041 c4 -19 15 -39 26 -45 10 -5 79 -10 154 -10 148 0 161 5 173 61 l6 29 318
0 c176 0 319 -2 319 -5 0 -3 40 -451 90 -997 49 -546 90 -1007 90 -1024 0 -30
-2 -32 -77 -53 -226 -62 -436 -91 -783 -106 -128 -6 -555 9 -592 21 -17 5 -18
44 -18 627 0 615 0 622 19 591 28 -46 80 -74 135 -74 84 0 149 54 162 135 5
36 2 54 -17 92 -13 26 -36 56 -51 66 -38 28 -116 34 -159 12 -36 -18 -78 -62
-79 -82 0 -6 -3 -14 -7 -16 -5 -3 -7 114 -5 260 l3 265 22 -33 c61 -91 188
-96 260 -9 63 75 37 194 -52 240 -87 44 -182 10 -223 -80 -4 -8 -7 27 -7 78
l-1 92 144 0 144 0 6 -35z m-824 -597 c-3 -35 -8 -62 -12 -60 -5 1 -89 2 -188
2 l-180 0 0 60 0 60 193 0 192 0 -5 -62z m2380 -4 c0 -56 -2 -65 -16 -60 -9 3
-94 6 -189 6 l-173 0 -4 60 -3 60 193 0 192 0 0 -66z m-2400 -221 c0 -87 10
-83 -186 -83 l-174 0 0 60 0 60 180 0 180 0 0 -37z m2400 -23 l0 -60 -174 0
c-196 0 -186 -4 -186 83 l0 37 180 0 180 0 0 -60z"/>
<path d="M4740 3477 c-49 -26 -90 -90 -90 -139 0 -64 44 -127 109 -155 107
-46 240 65 216 180 -11 49 -46 95 -91 117 -53 26 -91 25 -144 -3z"/>
<path d="M4737 2219 c-42 -22 -74 -67 -83 -116 -18 -95 60 -185 161 -185 53 0
96 22 129 65 103 135 -55 316 -207 236z"/>
<path d="M4745 1595 c-46 -25 -63 -44 -81 -91 -21 -55 -14 -104 21 -150 34
-45 74 -64 132 -64 152 0 217 195 96 287 -44 33 -123 42 -168 18z"/>
</g>
</svg>
