<?xml version="1.0" standalone="no"?>
<!DOCTYPE svg PUBLIC "-//W3C//DTD SVG 20010904//EN"
 "http://www.w3.org/TR/2001/REC-SVG-20010904/DTD/svg10.dtd">
<svg version="1.0" xmlns="http://www.w3.org/2000/svg"
 width="900.000000pt" height="512.000000pt" viewBox="0 0 900.000000 512.000000"
 preserveAspectRatio="xMidYMid meet">
<metadata>
Created by potrace 1.16, written by Peter Selinger 2001-2019
</metadata>
<g transform="translate(0.000000,512.000000) scale(0.100000,-0.100000)"
fill="#000000" stroke="none">
<path d="M4380 5114 c-143 -18 -339 -73 -370 -104 -10 -10 -21 -37 -25 -61
-12 -77 -56 -212 -96 -294 -79 -161 -187 -274 -322 -334 -161 -73 -365 -70
-611 9 -108 35 -107 36 -232 -82 -172 -163 -288 -357 -344 -578 -22 -88 -14
-116 57 -197 345 -390 449 -1005 262 -1540 -61 -174 -146 -321 -271 -466 -67
-77 -69 -81 -63 -121 12 -72 74 -247 117 -328 85 -159 268 -366 360 -408 37
-16 41 -16 165 16 174 44 306 58 488 51 423 -16 703 -190 894 -554 44 -84 62
-110 84 -117 53 -19 76 0 132 110 181 359 475 545 901 570 166 10 401 -20 571
-73 72 -22 95 -11 218 111 151 150 247 306 308 501 43 138 41 158 -25 236
-219 256 -329 531 -358 887 -35 434 96 850 359 1145 34 37 61 74 61 81 0 49
-58 227 -105 322 -66 136 -147 245 -261 353 -122 116 -127 118 -222 87 -135
-44 -228 -59 -362 -59 -108 0 -136 4 -207 27 -148 48 -256 141 -343 293 -51
89 -104 234 -121 329 -7 40 -19 72 -30 83 -21 19 -191 75 -279 91 -62 12 -276
21 -330 14z m375 -186 l90 -23 13 -45 c77 -267 157 -415 294 -546 217 -207
502 -254 892 -148 l68 19 83 -87 c120 -126 193 -251 245 -419 l17 -56 -45 -54
c-159 -191 -277 -442 -332 -703 -110 -530 15 -1084 332 -1465 l45 -54 -17 -56
c-52 -167 -124 -291 -240 -414 l-86 -90 -109 21 c-198 39 -258 46 -425 46
-174 0 -259 -11 -405 -50 -112 -31 -289 -117 -377 -184 -84 -63 -203 -190
-254 -269 -21 -33 -41 -61 -44 -61 -3 1 -25 31 -50 68 -100 149 -288 307 -454
382 -272 122 -657 145 -1013 60 -84 -20 -85 -20 -112 -1 -65 47 -169 179 -232
295 -42 78 -89 203 -89 235 0 11 19 41 42 68 23 26 68 88 101 138 274 416 343
990 182 1505 -54 173 -181 404 -297 542 -31 37 -31 39 -19 90 29 129 159 344
280 462 l50 49 131 -32 c349 -87 623 -33 828 163 140 133 215 274 294 546 13
44 14 45 78 62 109 30 179 37 315 33 92 -3 156 -11 220 -27z"/>
<path d="M4379 4771 c-69 -13 -85 -26 -104 -78 -9 -27 -28 -78 -43 -116 -14
-37 -25 -82 -25 -99 0 -42 43 -80 87 -76 34 3 53 33 97 150 20 55 23 57 63 63
23 4 57 3 75 -2 29 -7 36 -17 67 -88 35 -82 71 -125 104 -125 34 0 68 22 80
51 11 25 7 44 -33 156 -56 159 -58 161 -213 168 -60 2 -130 0 -155 -4z"/>
<path d="M3890 4124 c-76 -57 -175 -112 -241 -133 -84 -27 -108 -101 -51 -153
18 -15 44 -28 59 -28 39 0 238 101 317 161 37 29 77 66 87 83 33 54 4 112 -62
121 -29 5 -44 -2 -109 -51z"/>
<path d="M4965 4168 c-32 -17 -45 -39 -45 -76 0 -28 8 -43 43 -75 101 -94 307
-207 377 -207 62 0 101 65 75 126 -10 24 -25 36 -61 49 -115 42 -153 63 -288
160 -51 37 -69 41 -101 23z"/>
<path d="M2893 3943 c-58 -63 -153 -232 -153 -272 0 -11 19 -48 43 -83 24 -35
54 -83 67 -106 41 -74 120 -96 159 -46 37 47 21 109 -57 211 l-24 33 30 52
c33 59 26 57 164 43 77 -8 77 -8 107 23 43 43 40 81 -10 120 -18 13 -214 52
-267 52 -23 0 -41 -8 -59 -27z"/>
<path d="M5885 3949 c-82 -15 -104 -23 -122 -44 -29 -33 -29 -74 -1 -110 21
-28 22 -28 107 -21 47 4 99 8 115 9 25 2 32 -5 58 -51 l30 -52 -24 -33 c-46
-60 -78 -124 -78 -154 0 -77 85 -111 137 -55 31 33 129 183 138 210 3 11 -3
46 -14 77 -23 64 -123 220 -151 235 -26 14 -77 11 -195 -11z"/>
<path d="M3100 3147 c-55 -19 -64 -49 -40 -139 11 -41 28 -130 39 -197 22
-134 35 -164 84 -185 27 -11 36 -11 59 1 47 23 51 43 33 156 -18 106 -47 244
-67 310 -8 25 -21 43 -39 53 -16 8 -29 14 -31 13 -2 0 -19 -5 -38 -12z"/>
<path d="M5828 3145 c-35 -20 -59 -97 -97 -323 -21 -121 -18 -144 21 -177 33
-28 46 -30 81 -14 36 16 47 43 58 137 5 47 21 130 34 183 32 124 32 153 0 184
-27 28 -57 31 -97 10z"/>
<path d="M3152 2323 c-23 -9 -42 -62 -53 -146 -5 -45 -21 -126 -35 -179 -31
-125 -31 -143 6 -180 25 -25 35 -29 63 -23 17 4 39 14 48 23 34 34 107 409 90
456 -17 44 -73 68 -119 49z"/>
<path d="M5747 2310 c-14 -11 -29 -29 -32 -40 -13 -39 65 -412 92 -442 9 -10
31 -22 50 -29 28 -9 38 -8 59 6 41 26 42 47 13 193 -15 76 -33 170 -39 211 -9
54 -19 81 -36 98 -29 29 -73 30 -107 3z"/>
<path d="M6001 1524 c-48 -40 -43 -82 19 -176 l50 -77 -36 -58 c-20 -32 -37
-59 -38 -60 -1 0 -41 5 -91 13 -70 12 -95 12 -118 3 -92 -38 -62 -147 46 -164
23 -3 77 -13 120 -21 72 -14 80 -14 115 3 46 23 102 95 153 198 27 54 38 88
35 106 -6 31 -101 180 -144 227 -37 39 -70 41 -111 6z"/>
<path d="M2886 1509 c-15 -17 -34 -45 -42 -61 -9 -17 -32 -53 -52 -81 -46 -64
-46 -100 -2 -190 38 -77 115 -177 151 -194 21 -10 47 -8 145 8 65 12 131 27
146 35 47 24 50 93 6 134 -26 24 -36 24 -148 6 -95 -16 -87 -19 -136 62 l-26
42 52 75 c61 90 71 128 40 168 -17 22 -29 27 -65 27 -36 0 -48 -5 -69 -31z"/>
<path d="M5295 1174 c-44 -8 -128 -26 -188 -40 -119 -29 -147 -50 -147 -109 0
-25 8 -40 31 -59 17 -14 36 -26 42 -26 7 0 50 12 97 26 47 13 130 32 185 40
121 18 149 34 153 90 2 31 -2 44 -20 61 -32 30 -61 33 -153 17z"/>
<path d="M3590 1173 c-51 -19 -75 -77 -50 -123 16 -29 37 -37 130 -50 47 -6
126 -22 175 -36 50 -13 102 -24 116 -24 75 0 108 94 50 143 -53 44 -365 111
-421 90z"/>
<path d="M4286 889 c-20 -16 -26 -29 -26 -59 0 -43 12 -60 90 -118 30 -22 68
-54 84 -71 47 -49 84 -43 169 27 127 103 137 115 137 160 0 32 -6 45 -26 61
-43 34 -75 27 -145 -29 -34 -27 -65 -50 -69 -50 -3 0 -24 15 -46 33 -88 74
-121 83 -168 46z"/>
</g>
</svg>
